<ttFont>
    <TTGlyph name="A" xMin="-106" yMin="0" xMax="1282" yMax="1352">
      <contour>
        <pt x="302" y="73" on="1"/>
        <pt x="288" y="0" on="1"/>
        <pt x="-106" y="0" on="1"/>
        <pt x="-92" y="73" on="1"/>
        <pt x="11" y="100" on="1"/>
        <pt x="679" y="1352" on="1"/>
        <pt x="919" y="1352" on="1"/>
        <pt x="1173" y="100" on="1"/>
        <pt x="1282" y="73" on="1"/>
        <pt x="1268" y="0" on="1"/>
        <pt x="719" y="0" on="1"/>
        <pt x="733" y="73" on="1"/>
        <pt x="871" y="100" on="1"/>
        <pt x="810" y="447" on="1"/>
        <pt x="338" y="447" on="1"/>
        <pt x="154" y="100" on="1"/>
      </contour>
      <contour>
        <pt x="689" y="1118" on="1"/>
        <pt x="394" y="557" on="1"/>
        <pt x="790" y="557" on="1"/>
      </contour>
    </TTGlyph>
    <TTGlyph name="AE" xMin="-161" yMin="0" xMax="1840" yMax="1341">
      <contour>
        <pt x="828" y="1252" on="1"/>
        <pt x="687" y="1270" on="1"/>
        <pt x="699" y="1341" on="1"/>
        <pt x="1840" y="1341" on="1"/>
        <pt x="1780" y="1000" on="1"/>
        <pt x="1689" y="1000" on="1"/>
        <pt x="1695" y="1217" on="1"/>
        <pt x="1587" y="1231" on="0"/>
        <pt x="1434" y="1231" on="1"/>
        <pt x="1234" y="1231" on="1"/>
        <pt x="1147" y="739" on="1"/>
        <pt x="1430" y="739" on="1"/>
        <pt x="1487" y="887" on="1"/>
        <pt x="1576" y="887" on="1"/>
        <pt x="1503" y="475" on="1"/>
        <pt x="1414" y="475" on="1"/>
        <pt x="1410" y="627" on="1"/>
        <pt x="1127" y="627" on="1"/>
        <pt x="1036" y="110" on="1"/>
        <pt x="1281" y="110" on="1"/>
        <pt x="1477" y="110" on="0"/>
        <pt x="1562" y="126" on="1"/>
        <pt x="1662" y="374" on="1"/>
        <pt x="1753" y="374" on="1"/>
        <pt x="1669" y="0" on="1"/>
        <pt x="550" y="0" on="1"/>
        <pt x="562" y="73" on="1"/>
        <pt x="739" y="100" on="1"/>
        <pt x="800" y="447" on="1"/>
        <pt x="388" y="447" on="1"/>
        <pt x="134" y="100" on="1"/>
        <pt x="283" y="73" on="1"/>
        <pt x="271" y="0" on="1"/>
        <pt x="-161" y="0" on="1"/>
        <pt x="-149" y="73" on="1"/>
        <pt x="-24" y="100" on="1"/>
      </contour>
      <contour>
        <pt x="820" y="557" on="1"/>
        <pt x="932" y="1198" on="1"/>
        <pt x="469" y="557" on="1"/>
      </contour>
    </TTGlyph>
    <TTGlyph name="AEacute" xMin="-161" yMin="0" xMax="1840" yMax="1757">
      <component glyphName="AE" x="0" y="0" flags="0x204"/>
      <component glyphName="acute" x="939" y="334" flags="0x4"/>
    </TTGlyph>
    <TTGlyph name="Aacute" xMin="-106" yMin="0" xMax="1282" yMax="1757">
      <component glyphName="A" x="0" y="0" flags="0x204"/>
      <component glyphName="acute" x="437" y="334" flags="0x4"/>
    </TTGlyph>
    <TTGlyph name="Abreve" xMin="-106" yMin="0" xMax="1282" yMax="1775">
      <component glyphName="A" x="0" y="0" flags="0x204"/>
      <component glyphName="breve" x="361" y="334" flags="0x4"/>
    </TTGlyph>
    <TTGlyph name="Acircumflex" xMin="-106" yMin="0" xMax="1282" yMax="1778">
      <component glyphName="A" x="0" y="0" flags="0x204"/>
      <component glyphName="circumflex" x="365" y="334" flags="0x4"/>
    </TTGlyph>
    <TTGlyph name="Adieresis" xMin="-106" yMin="0" xMax="1282" yMax="1704">
      <component glyphName="A" x="0" y="0" flags="0x204"/>
      <component glyphName="dieresis" x="353" y="334" flags="0x4"/>
    </TTGlyph>
    <TTGlyph name="Agrave" xMin="-106" yMin="0" xMax="1282" yMax="1757">
      <component glyphName="A" x="0" y="0" flags="0x204"/>
      <component glyphName="grave" x="314" y="334" flags="0x4"/>
    </TTGlyph>
    <TTGlyph name="Alpha" xMin="-106" yMin="0" xMax="1282" yMax="1352">
      <component glyphName="A" x="0" y="0" flags="0x204"/>
    </TTGlyph>
    <TTGlyph name="Alphatonos" xMin="-106" yMin="0" xMax="1282" yMax="1352">
      <component glyphName="A" x="0" y="0" flags="0x204"/>
      <component glyphName="tonos" x="-139" y="-170" flags="0x4"/>
    </TTGlyph>
    <TTGlyph name="Amacron" xMin="-106" yMin="0" xMax="1282" yMax="1635">
      <component glyphName="A" x="0" y="0" flags="0x204"/>
      <component glyphName="uni02C9" x="348" y="334" flags="0x4"/>
    </TTGlyph>
    <TTGlyph name="Aogonek" xMin="-106" yMin="-430" xMax="1282" yMax="1352">
      <component glyphName="A" x="0" y="0" flags="0x204"/>
      <component glyphName="ogonek" x="739" y="0" flags="0x4"/>
    </TTGlyph>
    <TTGlyph name="Aring" xMin="-106" yMin="0" xMax="1282" yMax="1661">
      <component glyphName="A" x="0" y="0" flags="0x204"/>
      <component glyphName="ring" x="339" y="178" flags="0x4"/>
    </TTGlyph>
    <TTGlyph name="Aringacute" xMin="-106" yMin="0" xMax="1282" yMax="2009">
      <component glyphName="A" x="0" y="0" flags="0x204"/>
      <component glyphName="ring" x="339" y="178" flags="0x4"/>
      <component glyphName="acute" x="448" y="586" flags="0x4"/>
    </TTGlyph>
    <TTGlyph name="Atilde" xMin="-106" yMin="0" xMax="1282" yMax="1729">
      <component glyphName="A" x="0" y="0" flags="0x204"/>
      <component glyphName="tilde" x="344" y="334" flags="0x4"/>
    </TTGlyph>
    <TTGlyph name="B" xMin="-19" yMin="-6" xMax="1290" yMax="1341">
      <contour>
        <pt x="677" y="764" on="1"/>
        <pt x="993" y="764" on="0"/>
        <pt x="993" y="1035" on="1"/>
        <pt x="993" y="1130" on="0"/>
        <pt x="872" y="1231" on="0"/>
        <pt x="755" y="1231" on="1"/>
        <pt x="666" y="1231" on="1"/>
        <pt x="583" y="764" on="1"/>
      </contour>
      <contour>
        <pt x="654" y="104" on="1"/>
        <pt x="823" y="104" on="0"/>
        <pt x="981" y="251" on="0"/>
        <pt x="981" y="405" on="1"/>
        <pt x="981" y="527" on="0"/>
        <pt x="829" y="654" on="0"/>
        <pt x="678" y="654" on="1"/>
        <pt x="564" y="654" on="1"/>
        <pt x="468" y="110" on="1"/>
        <pt x="573" y="104" on="0"/>
      </contour>
      <contour>
        <pt x="648" y="-6" on="1"/>
        <pt x="303" y="0" on="1"/>
        <pt x="-19" y="0" on="1"/>
        <pt x="-7" y="73" on="1"/>
        <pt x="171" y="100" on="1"/>
        <pt x="372" y="1242" on="1"/>
        <pt x="204" y="1268" on="1"/>
        <pt x="218" y="1341" on="1"/>
        <pt x="804" y="1341" on="1"/>
        <pt x="1290" y="1341" on="0"/>
        <pt x="1290" y="1048" on="1"/>
        <pt x="1290" y="907" on="0"/>
        <pt x="1113" y="738" on="0"/>
        <pt x="953" y="716" on="1"/>
        <pt x="1105" y="703" on="0"/>
        <pt x="1278" y="536" on="0"/>
        <pt x="1278" y="404" on="1"/>
        <pt x="1278" y="195" on="0"/>
        <pt x="963" y="-6" on="0"/>
      </contour>
    </TTGlyph>
    <TTGlyph name="Beta" xMin="-19" yMin="-6" xMax="1290" yMax="1341">
      <component glyphName="B" x="0" y="0" flags="0x204"/>
    </TTGlyph>
    <TTGlyph name="C" xMin="70" yMin="-20" xMax="1385" yMax="1356">
      <contour>
        <pt x="670" y="-20" on="1"/>
        <pt x="385" y="-20" on="0"/>
        <pt x="70" y="275" on="0"/>
        <pt x="70" y="531" on="1"/>
        <pt x="70" y="777" on="0"/>
        <pt x="278" y="1152" on="0"/>
        <pt x="664" y="1356" on="0"/>
        <pt x="912" y="1356" on="1"/>
        <pt x="1138" y="1356" on="0"/>
        <pt x="1385" y="1304" on="1"/>
        <pt x="1332" y="967" on="1"/>
        <pt x="1248" y="967" on="1"/>
        <pt x="1248" y="1161" on="1"/>
        <pt x="1194" y="1204" on="0"/>
        <pt x="1041" y="1251" on="0"/>
        <pt x="957" y="1251" on="1"/>
        <pt x="792" y="1251" on="0"/>
        <pt x="529" y="1067" on="0"/>
        <pt x="383" y="732" on="0"/>
        <pt x="383" y="522" on="1"/>
        <pt x="383" y="315" on="0"/>
        <pt x="567" y="83" on="0"/>
        <pt x="734" y="83" on="1"/>
        <pt x="832" y="83" on="0"/>
        <pt x="1030" y="140" on="0"/>
        <pt x="1091" y="184" on="1"/>
        <pt x="1168" y="404" on="1"/>
        <pt x="1253" y="404" on="1"/>
        <pt x="1187" y="64" on="1"/>
        <pt x="1074" y="27" on="0"/>
        <pt x="800" y="-20" on="0"/>
      </contour>
    </TTGlyph>
    <TTGlyph name="Cacute" xMin="70" yMin="-20" xMax="1385" yMax="1757">
      <component glyphName="C" x="0" y="0" flags="0x204"/>
      <component glyphName="acute" x="500" y="334" flags="0x4"/>
    </TTGlyph>
    <TTGlyph name="Ccaron" xMin="70" yMin="-20" xMax="1385" yMax="1778">
      <component glyphName="C" x="0" y="0" flags="0x204"/>
      <component glyphName="caron" x="460" y="334" flags="0x4"/>
    </TTGlyph>
    <TTGlyph name="Ccedilla" xMin="70" yMin="-432" xMax="1385" yMax="1356">
      <component glyphName="C" x="0" y="0" flags="0x204"/>
      <component glyphName="cedilla" x="463" y="0" flags="0x4"/>
    </TTGlyph>
    <TTGlyph name="Ccircumflex" xMin="70" yMin="-20" xMax="1385" yMax="1778">
      <component glyphName="C" x="0" y="0" flags="0x204"/>
      <component glyphName="circumflex" x="460" y="334" flags="0x4"/>
    </TTGlyph>
    <TTGlyph name="Chi" xMin="-52" yMin="0" xMax="1408" yMax="1341">
      <component glyphName="X" x="0" y="0" flags="0x204"/>
    </TTGlyph>
    <TTGlyph name="D" xMin="-15" yMin="-4" xMax="1431" yMax="1341">
      <contour>
        <pt x="1120" y="774" on="1"/>
        <pt x="1120" y="1231" on="0"/>
        <pt x="705" y="1231" on="1"/>
        <pt x="668" y="1231" on="1"/>
        <pt x="471" y="114" on="1"/>
        <pt x="556" y="106" on="0"/>
        <pt x="595" y="106" on="1"/>
        <pt x="839" y="106" on="0"/>
        <pt x="1120" y="464" on="0"/>
      </contour>
      <contour>
        <pt x="742" y="1341" on="1"/>
        <pt x="1079" y="1341" on="0"/>
        <pt x="1431" y="1054" on="0"/>
        <pt x="1431" y="788" on="1"/>
        <pt x="1431" y="549" on="0"/>
        <pt x="1228" y="188" on="0"/>
        <pt x="849" y="-4" on="0"/>
        <pt x="599" y="-4" on="1"/>
        <pt x="180" y="0" on="1"/>
        <pt x="-15" y="0" on="1"/>
        <pt x="-3" y="73" on="1"/>
        <pt x="174" y="100" on="1"/>
        <pt x="375" y="1242" on="1"/>
        <pt x="208" y="1268" on="1"/>
        <pt x="221" y="1341" on="1"/>
      </contour>
    </TTGlyph>
    <TTGlyph name="Dcaron" xMin="-15" yMin="-4" xMax="1431" yMax="1778">
      <component glyphName="D" x="0" y="0" flags="0x204"/>
      <component glyphName="caron" x="374" y="334" flags="0x4"/>
    </TTGlyph>
    <TTGlyph name="Delta" xMin="-68" yMin="0" xMax="1108" yMax="1352">
      <contour>
        <pt x="1092" y="0" on="1"/>
        <pt x="-68" y="0" on="1"/>
        <pt x="-53" y="80" on="1"/>
        <pt x="710" y="1352" on="1"/>
        <pt x="900" y="1352" on="1"/>
        <pt x="1108" y="80" on="1"/>
      </contour>
      <contour>
        <pt x="660" y="1060" on="1"/>
        <pt x="106" y="119" on="1"/>
        <pt x="798" y="119" on="1"/>
      </contour>
    </TTGlyph>
    <TTGlyph name="E" xMin="-15" yMin="0" xMax="1273" yMax="1341">
      <contour>
        <pt x="375" y="1242" on="1"/>
        <pt x="208" y="1268" on="1"/>
        <pt x="221" y="1341" on="1"/>
        <pt x="1273" y="1341" on="1"/>
        <pt x="1213" y="1000" on="1"/>
        <pt x="1122" y="1000" on="1"/>
        <pt x="1128" y="1217" on="1"/>
        <pt x="1019" y="1231" on="0"/>
        <pt x="807" y="1231" on="1"/>
        <pt x="669" y="1231" on="1"/>
        <pt x="582" y="739" on="1"/>
        <pt x="863" y="739" on="1"/>
        <pt x="920" y="887" on="1"/>
        <pt x="1009" y="887" on="1"/>
        <pt x="936" y="475" on="1"/>
        <pt x="847" y="475" on="1"/>
        <pt x="843" y="627" on="1"/>
        <pt x="562" y="627" on="1"/>
        <pt x="471" y="110" on="1"/>
        <pt x="654" y="110" on="1"/>
        <pt x="907" y="110" on="0"/>
        <pt x="992" y="126" on="1"/>
        <pt x="1095" y="374" on="1"/>
        <pt x="1186" y="374" on="1"/>
        <pt x="1102" y="0" on="1"/>
        <pt x="-15" y="0" on="1"/>
        <pt x="-3" y="73" on="1"/>
        <pt x="174" y="100" on="1"/>
      </contour>
    </TTGlyph>
    <TTGlyph name="Eacute" xMin="-15" yMin="0" xMax="1273" yMax="1757">
      <component glyphName="E" x="0" y="0" flags="0x204"/>
      <component glyphName="acute" x="403" y="334" flags="0x4"/>
    </TTGlyph>
    <TTGlyph name="Ebreve" xMin="-15" yMin="0" xMax="1273" yMax="1775">
      <component glyphName="E" x="0" y="0" flags="0x204"/>
      <component glyphName="breve" x="364" y="334" flags="0x4"/>
    </TTGlyph>
    <TTGlyph name="Ecaron" xMin="-15" yMin="0" xMax="1273" yMax="1778">
      <component glyphName="E" x="0" y="0" flags="0x204"/>
      <component glyphName="caron" x="326" y="334" flags="0x4"/>
    </TTGlyph>
    <TTGlyph name="Ecircumflex" xMin="-15" yMin="0" xMax="1273" yMax="1778">
      <component glyphName="E" x="0" y="0" flags="0x204"/>
      <component glyphName="circumflex" x="393" y="334" flags="0x4"/>
    </TTGlyph>
    <TTGlyph name="Edieresis" xMin="-15" yMin="0" xMax="1273" yMax="1704">
      <component glyphName="E" x="0" y="0" flags="0x204"/>
      <component glyphName="dieresis" x="362" y="334" flags="0x4"/>
    </TTGlyph>
    <TTGlyph name="Egrave" xMin="-15" yMin="0" xMax="1273" yMax="1757">
      <component glyphName="E" x="0" y="0" flags="0x204"/>
      <component glyphName="grave" x="298" y="334" flags="0x4"/>
    </TTGlyph>
    <TTGlyph name="Emacron" xMin="-15" yMin="0" xMax="1273" yMax="1635">
      <component glyphName="E" x="0" y="0" flags="0x204"/>
      <component glyphName="uni02C9" x="338" y="334" flags="0x4"/>
    </TTGlyph>
    <TTGlyph name="Eng" xMin="-16" yMin="-20" xMax="1485" yMax="1351">
      <contour>
        <pt x="898" y="-20" on="1"/>
        <pt x="749" y="-20" on="0"/>
        <pt x="663" y="10" on="1"/>
        <pt x="711" y="284" on="1"/>
        <pt x="800" y="284" on="1"/>
        <pt x="805" y="119" on="1"/>
        <pt x="840" y="86" on="0"/>
        <pt x="903" y="86" on="1"/>
        <pt x="1023" y="86" on="0"/>
        <pt x="1058" y="282" on="1"/>
        <pt x="1170" y="919" on="1"/>
        <pt x="1188" y="1015" on="0"/>
        <pt x="1188" y="1051" on="1"/>
        <pt x="1188" y="1218" on="0"/>
        <pt x="1015" y="1218" on="1"/>
        <pt x="866" y="1218" on="0"/>
        <pt x="646" y="1114" on="1"/>
        <pt x="468" y="100" on="1"/>
        <pt x="566" y="85" on="1"/>
        <pt x="551" y="0" on="1"/>
        <pt x="-16" y="0" on="1"/>
        <pt x="-3" y="74" on="1"/>
        <pt x="172" y="100" on="1"/>
        <pt x="373" y="1241" on="1"/>
        <pt x="207" y="1268" on="1"/>
        <pt x="220" y="1341" on="1"/>
        <pt x="673" y="1341" on="1"/>
        <pt x="665" y="1219" on="1"/>
        <pt x="797" y="1287" on="0"/>
        <pt x="1018" y="1351" on="0"/>
        <pt x="1123" y="1351" on="1"/>
        <pt x="1301" y="1351" on="0"/>
        <pt x="1485" y="1218" on="0"/>
        <pt x="1485" y="1072" on="1"/>
        <pt x="1485" y="1039" on="0"/>
        <pt x="1464" y="906" on="1"/>
        <pt x="1380" y="432" on="1"/>
        <pt x="1340" y="206" on="0"/>
        <pt x="1111" y="-20" on="0"/>
      </contour>
    </TTGlyph>
    <TTGlyph name="Eng.alt1" xMin="-16" yMin="-444" xMax="1485" yMax="1351">
      <contour>
        <pt x="824" y="-444" on="1"/>
        <pt x="675" y="-444" on="0"/>
        <pt x="589" y="-414" on="1"/>
        <pt x="637" y="-140" on="1"/>
        <pt x="726" y="-140" on="1"/>
        <pt x="731" y="-305" on="1"/>
        <pt x="766" y="-338" on="0"/>
        <pt x="829" y="-338" on="1"/>
        <pt x="949" y="-338" on="0"/>
        <pt x="984" y="-142" on="1"/>
        <pt x="1170" y="919" on="1"/>
        <pt x="1188" y="1015" on="0"/>
        <pt x="1188" y="1051" on="1"/>
        <pt x="1188" y="1218" on="0"/>
        <pt x="1015" y="1218" on="1"/>
        <pt x="866" y="1218" on="0"/>
        <pt x="646" y="1114" on="1"/>
        <pt x="468" y="100" on="1"/>
        <pt x="642" y="73" on="1"/>
        <pt x="631" y="0" on="1"/>
        <pt x="-16" y="0" on="1"/>
        <pt x="-3" y="74" on="1"/>
        <pt x="172" y="100" on="1"/>
        <pt x="373" y="1241" on="1"/>
        <pt x="207" y="1268" on="1"/>
        <pt x="220" y="1341" on="1"/>
        <pt x="673" y="1341" on="1"/>
        <pt x="665" y="1219" on="1"/>
        <pt x="797" y="1287" on="0"/>
        <pt x="1018" y="1351" on="0"/>
        <pt x="1123" y="1351" on="1"/>
        <pt x="1301" y="1351" on="0"/>
        <pt x="1485" y="1218" on="0"/>
        <pt x="1485" y="1072" on="1"/>
        <pt x="1485" y="1039" on="0"/>
        <pt x="1464" y="906" on="1"/>
        <pt x="1306" y="8" on="1"/>
        <pt x="1266" y="-218" on="0"/>
        <pt x="1037" y="-444" on="0"/>
      </contour>
    </TTGlyph>
    <TTGlyph name="Eng.alt2" xMin="-19" yMin="-442" xMax="1540" yMax="1341">
      <contour>
        <pt x="1225" y="1242" on="1"/>
        <pt x="1050" y="1268" on="1"/>
        <pt x="1063" y="1341" on="1"/>
        <pt x="1540" y="1341" on="1"/>
        <pt x="1527" y="1268" on="1"/>
        <pt x="1350" y="1242" on="1"/>
        <pt x="1117" y="-89" on="1"/>
        <pt x="1053" y="-442" on="0"/>
        <pt x="679" y="-442" on="1"/>
        <pt x="635" y="-442" on="0"/>
        <pt x="504" y="-423" on="0"/>
        <pt x="474" y="-413" on="1"/>
        <pt x="520" y="-153" on="1"/>
        <pt x="595" y="-153" on="1"/>
        <pt x="603" y="-306" on="1"/>
        <pt x="618" y="-319" on="0"/>
        <pt x="685" y="-337" on="0"/>
        <pt x="719" y="-337" on="1"/>
        <pt x="828" y="-337" on="0"/>
        <pt x="969" y="-217" on="0"/>
        <pt x="988" y="-110" on="1"/>
        <pt x="1010" y="15" on="1"/>
        <pt x="476" y="1112" on="1"/>
        <pt x="295" y="100" on="1"/>
        <pt x="470" y="73" on="1"/>
        <pt x="458" y="0" on="1"/>
        <pt x="-19" y="0" on="1"/>
        <pt x="-7" y="73" on="1"/>
        <pt x="170" y="100" on="1"/>
        <pt x="371" y="1242" on="1"/>
        <pt x="204" y="1268" on="1"/>
        <pt x="217" y="1341" on="1"/>
        <pt x="650" y="1341" on="1"/>
        <pt x="1085" y="447" on="1"/>
      </contour>
    </TTGlyph>
    <TTGlyph name="Eng.alt3" xMin="168" yMin="-20" xMax="1485" yMax="1351">
      <contour>
        <pt x="1190" y="1027" on="1"/>
        <pt x="1190" y="1218" on="0"/>
        <pt x="1007" y="1218" on="1"/>
        <pt x="847" y="1218" on="0"/>
        <pt x="646" y="1114" on="1"/>
        <pt x="572" y="695" on="1"/>
        <pt x="739" y="670" on="1"/>
        <pt x="728" y="605" on="1"/>
        <pt x="168" y="605" on="1"/>
        <pt x="179" y="670" on="1"/>
        <pt x="277" y="695" on="1"/>
        <pt x="373" y="1241" on="1"/>
        <pt x="207" y="1268" on="1"/>
        <pt x="220" y="1341" on="1"/>
        <pt x="673" y="1341" on="1"/>
        <pt x="665" y="1219" on="1"/>
        <pt x="906" y="1351" on="0"/>
        <pt x="1123" y="1351" on="1"/>
        <pt x="1312" y="1351" on="0"/>
        <pt x="1485" y="1210" on="0"/>
        <pt x="1485" y="1070" on="1"/>
        <pt x="1485" y="1025" on="0"/>
        <pt x="1474" y="959" on="1"/>
        <pt x="1402" y="550" on="1"/>
        <pt x="1347" y="246" on="0"/>
        <pt x="1003" y="-20" on="0"/>
        <pt x="674" y="-20" on="1"/>
        <pt x="465" y="-20" on="0"/>
        <pt x="323" y="20" on="1"/>
        <pt x="367" y="293" on="1"/>
        <pt x="438" y="293" on="1"/>
        <pt x="451" y="140" on="1"/>
        <pt x="546" y="83" on="0"/>
        <pt x="676" y="83" on="1"/>
        <pt x="807" y="83" on="0"/>
        <pt x="978" y="174" on="0"/>
        <pt x="1081" y="364" on="0"/>
        <pt x="1113" y="548" on="1"/>
        <pt x="1182" y="943" on="1"/>
        <pt x="1190" y="989" on="0"/>
      </contour>
    </TTGlyph>
    <TTGlyph name="Eogonek" xMin="-15" yMin="-430" xMax="1273" yMax="1341">
      <component glyphName="E" x="0" y="0" flags="0x204"/>
      <component glyphName="ogonek" x="648" y="0" flags="0x4"/>
    </TTGlyph>
    <TTGlyph name="Epsilon" xMin="-15" yMin="0" xMax="1273" yMax="1341">
      <component glyphName="E" x="0" y="0" flags="0x204"/>
    </TTGlyph>
    <TTGlyph name="Epsilontonos" xMin="-16" yMin="0" xMax="1498" yMax="1342">
      <component glyphName="E" x="225" y="0" flags="0x4"/>
      <component glyphName="tonos" x="-244" y="-170" flags="0x4"/>
    </TTGlyph>
    <TTGlyph name="Eta" xMin="-15" yMin="0" xMax="1645" yMax="1341">
      <component glyphName="H" x="0" y="0" flags="0x204"/>
    </TTGlyph>
    <TTGlyph name="Etatonos" xMin="-3" yMin="0" xMax="1885" yMax="1342">
      <component glyphName="H" x="240" y="0" flags="0x4"/>
      <component glyphName="tonos" x="-231" y="-170" flags="0x4"/>
    </TTGlyph>
    <TTGlyph name="Eth" xMin="-15" yMin="-4" xMax="1431" yMax="1341">
      <contour>
        <pt x="1431" y="788" on="1"/>
        <pt x="1431" y="549" on="0"/>
        <pt x="1228" y="188" on="0"/>
        <pt x="849" y="-4" on="0"/>
        <pt x="599" y="-4" on="1"/>
        <pt x="180" y="0" on="1"/>
        <pt x="-15" y="0" on="1"/>
        <pt x="-3" y="73" on="1"/>
        <pt x="174" y="100" on="1"/>
        <pt x="263" y="609" on="1"/>
        <pt x="91" y="609" on="1"/>
        <pt x="113" y="731" on="1"/>
        <pt x="285" y="731" on="1"/>
        <pt x="375" y="1242" on="1"/>
        <pt x="208" y="1268" on="1"/>
        <pt x="221" y="1341" on="1"/>
        <pt x="742" y="1341" on="1"/>
        <pt x="1079" y="1341" on="0"/>
        <pt x="1431" y="1054" on="0"/>
      </contour>
      <contour>
        <pt x="1120" y="774" on="1"/>
        <pt x="1120" y="1231" on="0"/>
        <pt x="705" y="1231" on="1"/>
        <pt x="668" y="1231" on="1"/>
        <pt x="580" y="731" on="1"/>
        <pt x="837" y="731" on="1"/>
        <pt x="816" y="609" on="1"/>
        <pt x="558" y="609" on="1"/>
        <pt x="471" y="114" on="1"/>
        <pt x="556" y="106" on="0"/>
        <pt x="595" y="106" on="1"/>
        <pt x="839" y="106" on="0"/>
        <pt x="1120" y="464" on="0"/>
      </contour>
    </TTGlyph>
    <TTGlyph name="Euro" xMin="-11" yMin="-20" xMax="1079" yMax="1356">
      <contour>
        <pt x="7" y="594" on="1"/>
        <pt x="117" y="594" on="1"/>
        <pt x="128" y="674" on="0"/>
        <pt x="143" y="738" on="1"/>
        <pt x="33" y="738" on="1"/>
        <pt x="50" y="839" on="1"/>
        <pt x="168" y="839" on="1"/>
        <pt x="247" y="1104" on="0"/>
        <pt x="539" y="1356" on="0"/>
        <pt x="759" y="1356" on="1"/>
        <pt x="858" y="1356" on="0"/>
        <pt x="996" y="1340" on="0"/>
        <pt x="1079" y="1323" on="1"/>
        <pt x="1033" y="1038" on="1"/>
        <pt x="944" y="1038" on="1"/>
        <pt x="942" y="1188" on="1"/>
        <pt x="869" y="1253" on="0"/>
        <pt x="765" y="1253" on="1"/>
        <pt x="650" y="1253" on="0"/>
        <pt x="482" y="1035" on="0"/>
        <pt x="434" y="839" on="1"/>
        <pt x="718" y="839" on="1"/>
        <pt x="701" y="738" on="1"/>
        <pt x="414" y="738" on="1"/>
        <pt x="407" y="717" on="0"/>
        <pt x="390" y="622" on="0"/>
        <pt x="388" y="594" on="1"/>
        <pt x="675" y="594" on="1"/>
        <pt x="657" y="493" on="1"/>
        <pt x="373" y="493" on="1"/>
        <pt x="369" y="400" on="1"/>
        <pt x="369" y="239" on="0"/>
        <pt x="477" y="83" on="0"/>
        <pt x="567" y="83" on="1"/>
        <pt x="694" y="83" on="0"/>
        <pt x="779" y="163" on="1"/>
        <pt x="836" y="328" on="1"/>
        <pt x="925" y="328" on="1"/>
        <pt x="869" y="30" on="1"/>
        <pt x="697" y="-20" on="0"/>
        <pt x="524" y="-20" on="1"/>
        <pt x="319" y="-20" on="0"/>
        <pt x="106" y="214" on="0"/>
        <pt x="106" y="442" on="1"/>
        <pt x="106" y="468" on="1"/>
        <pt x="107" y="493" on="1"/>
        <pt x="-11" y="493" on="1"/>
      </contour>
    </TTGlyph>
    <TTGlyph name="F" xMin="-2" yMin="0" xMax="1332" yMax="1341">
      <contour>
        <pt x="556" y="592" on="1"/>
        <pt x="469" y="100" on="1"/>
        <pt x="687" y="73" on="1"/>
        <pt x="675" y="0" on="1"/>
        <pt x="-2" y="0" on="1"/>
        <pt x="10" y="73" on="1"/>
        <pt x="174" y="100" on="1"/>
        <pt x="375" y="1242" on="1"/>
        <pt x="208" y="1268" on="1"/>
        <pt x="221" y="1341" on="1"/>
        <pt x="1332" y="1341" on="1"/>
        <pt x="1268" y="980" on="1"/>
        <pt x="1174" y="980" on="1"/>
        <pt x="1184" y="1217" on="1"/>
        <pt x="1135" y="1224" on="0"/>
        <pt x="880" y="1231" on="0"/>
        <pt x="807" y="1231" on="1"/>
        <pt x="669" y="1231" on="1"/>
        <pt x="576" y="702" on="1"/>
        <pt x="939" y="702" on="1"/>
        <pt x="1000" y="872" on="1"/>
        <pt x="1089" y="872" on="1"/>
        <pt x="1009" y="420" on="1"/>
        <pt x="920" y="420" on="1"/>
        <pt x="919" y="592" on="1"/>
      </contour>
    </TTGlyph>
    <TTGlyph name="G" xMin="70" yMin="-20" xMax="1456" yMax="1356">
      <contour>
        <pt x="70" y="523" on="1"/>
        <pt x="70" y="774" on="0"/>
        <pt x="283" y="1152" on="0"/>
        <pt x="673" y="1356" on="0"/>
        <pt x="924" y="1356" on="1"/>
        <pt x="1170" y="1356" on="0"/>
        <pt x="1399" y="1294" on="1"/>
        <pt x="1344" y="986" on="1"/>
        <pt x="1260" y="986" on="1"/>
        <pt x="1261" y="1160" on="1"/>
        <pt x="1141" y="1251" on="0"/>
        <pt x="941" y="1251" on="1"/>
        <pt x="782" y="1251" on="0"/>
        <pt x="524" y="1064" on="0"/>
        <pt x="381" y="723" on="0"/>
        <pt x="381" y="503" on="1"/>
        <pt x="381" y="305" on="0"/>
        <pt x="552" y="83" on="0"/>
        <pt x="708" y="83" on="1"/>
        <pt x="838" y="83" on="0"/>
        <pt x="945" y="126" on="1"/>
        <pt x="1013" y="506" on="1"/>
        <pt x="846" y="538" on="1"/>
        <pt x="858" y="606" on="1"/>
        <pt x="1456" y="606" on="1"/>
        <pt x="1444" y="538" on="1"/>
        <pt x="1308" y="506" on="1"/>
        <pt x="1231" y="70" on="1"/>
        <pt x="1083" y="24" on="0"/>
        <pt x="815" y="-20" on="0"/>
        <pt x="662" y="-20" on="1"/>
        <pt x="381" y="-20" on="0"/>
        <pt x="70" y="268" on="0"/>
      </contour>
    </TTGlyph>
    <TTGlyph name="Gamma" xMin="-20" yMin="0" xMax="1246" yMax="1341">
      <contour>
        <pt x="643" y="0" on="1"/>
        <pt x="-20" y="0" on="1"/>
        <pt x="-7" y="73" on="1"/>
        <pt x="169" y="99" on="1"/>
        <pt x="370" y="1241" on="1"/>
        <pt x="203" y="1268" on="1"/>
        <pt x="217" y="1341" on="1"/>
        <pt x="1246" y="1341" on="1"/>
        <pt x="1191" y="936" on="1"/>
        <pt x="1108" y="936" on="1"/>
        <pt x="1089" y="1215" on="1"/>
        <pt x="1057" y="1222" on="0"/>
        <pt x="853" y="1235" on="0"/>
        <pt x="753" y="1235" on="1"/>
        <pt x="664" y="1235" on="1"/>
        <pt x="464" y="99" on="1"/>
        <pt x="656" y="73" on="1"/>
      </contour>
    </TTGlyph>
    <TTGlyph name="Gbreve" xMin="70" yMin="-20" xMax="1456" yMax="1775">
      <component glyphName="G" x="0" y="0" flags="0x204"/>
      <component glyphName="breve" x="465" y="334" flags="0x4"/>
    </TTGlyph>
    <TTGlyph name="Gcircumflex" xMin="70" yMin="-20" xMax="1456" yMax="1778">
      <component glyphName="G" x="0" y="0" flags="0x204"/>
      <component glyphName="circumflex" x="460" y="334" flags="0x4"/>
    </TTGlyph>
    <TTGlyph name="H" xMin="-15" yMin="0" xMax="1645" yMax="1341">
      <contour>
        <pt x="-15" y="0" on="1"/>
        <pt x="-2" y="74" on="1"/>
        <pt x="174" y="100" on="1"/>
        <pt x="375" y="1241" on="1"/>
        <pt x="208" y="1268" on="1"/>
        <pt x="221" y="1341" on="1"/>
        <pt x="860" y="1341" on="1"/>
        <pt x="847" y="1268" on="1"/>
        <pt x="670" y="1241" on="1"/>
        <pt x="583" y="745" on="1"/>
        <pt x="1071" y="745" on="1"/>
        <pt x="1158" y="1241" on="1"/>
        <pt x="991" y="1268" on="1"/>
        <pt x="1004" y="1341" on="1"/>
        <pt x="1645" y="1341" on="1"/>
        <pt x="1632" y="1268" on="1"/>
        <pt x="1454" y="1241" on="1"/>
        <pt x="1253" y="100" on="1"/>
        <pt x="1421" y="74" on="1"/>
        <pt x="1408" y="0" on="1"/>
        <pt x="767" y="0" on="1"/>
        <pt x="780" y="74" on="1"/>
        <pt x="957" y="100" on="1"/>
        <pt x="1051" y="635" on="1"/>
        <pt x="563" y="635" on="1"/>
        <pt x="469" y="100" on="1"/>
        <pt x="636" y="74" on="1"/>
        <pt x="623" y="0" on="1"/>
      </contour>
    </TTGlyph>
    <TTGlyph name="Hbar" xMin="-14" yMin="0" xMax="1645" yMax="1341">
      <contour>
        <pt x="-14" y="0" on="1"/>
        <pt x="-1" y="74" on="1"/>
        <pt x="175" y="100" on="1"/>
        <pt x="326" y="952" on="1"/>
        <pt x="154" y="952" on="1"/>
        <pt x="172" y="1062" on="1"/>
        <pt x="344" y="1062" on="1"/>
        <pt x="376" y="1241" on="1"/>
        <pt x="209" y="1268" on="1"/>
        <pt x="222" y="1341" on="1"/>
        <pt x="861" y="1341" on="1"/>
        <pt x="848" y="1268" on="1"/>
        <pt x="671" y="1241" on="1"/>
        <pt x="639" y="1062" on="1"/>
        <pt x="1126" y="1062" on="1"/>
        <pt x="1158" y="1241" on="1"/>
        <pt x="991" y="1268" on="1"/>
        <pt x="1004" y="1341" on="1"/>
        <pt x="1645" y="1341" on="1"/>
        <pt x="1632" y="1268" on="1"/>
        <pt x="1454" y="1241" on="1"/>
        <pt x="1422" y="1062" on="1"/>
        <pt x="1595" y="1062" on="1"/>
        <pt x="1577" y="952" on="1"/>
        <pt x="1404" y="952" on="1"/>
        <pt x="1253" y="100" on="1"/>
        <pt x="1421" y="74" on="1"/>
        <pt x="1408" y="0" on="1"/>
        <pt x="767" y="0" on="1"/>
        <pt x="780" y="74" on="1"/>
        <pt x="957" y="100" on="1"/>
        <pt x="1051" y="635" on="1"/>
        <pt x="564" y="635" on="1"/>
        <pt x="470" y="100" on="1"/>
        <pt x="637" y="74" on="1"/>
        <pt x="624" y="0" on="1"/>
      </contour>
      <contour>
        <pt x="1071" y="745" on="1"/>
        <pt x="1108" y="952" on="1"/>
        <pt x="621" y="952" on="1"/>
        <pt x="584" y="745" on="1"/>
      </contour>
    </TTGlyph>
    <TTGlyph name="Hcircumflex" xMin="-15" yMin="0" xMax="1645" yMax="1778">
      <component glyphName="H" x="0" y="0" flags="0x204"/>
      <component glyphName="circumflex" x="515" y="334" flags="0x4"/>
    </TTGlyph>
    <TTGlyph name="I" xMin="-20" yMin="0" xMax="855" yMax="1341">
      <contour>
        <pt x="464" y="100" on="1"/>
        <pt x="631" y="74" on="1"/>
        <pt x="618" y="0" on="1"/>
        <pt x="-20" y="0" on="1"/>
        <pt x="-7" y="74" on="1"/>
        <pt x="169" y="100" on="1"/>
        <pt x="370" y="1241" on="1"/>
        <pt x="203" y="1268" on="1"/>
        <pt x="216" y="1341" on="1"/>
        <pt x="855" y="1341" on="1"/>
        <pt x="842" y="1268" on="1"/>
        <pt x="665" y="1241" on="1"/>
      </contour>
    </TTGlyph>
    <TTGlyph name="IJ" xMin="-20" yMin="-20" xMax="1743" yMax="1341">
      <component glyphName="I" x="0" y="0" flags="0x4"/>
      <component glyphName="J" x="665" y="0" flags="0x4"/>
    </TTGlyph>
    <TTGlyph name="Iacute" xMin="-20" yMin="0" xMax="893" yMax="1757">
      <component glyphName="I" x="0" y="0" flags="0x204"/>
      <component glyphName="acute" x="153" y="334" flags="0x4"/>
    </TTGlyph>
    <TTGlyph name="Ibreve" xMin="-20" yMin="0" xMax="925" yMax="1842">
      <component glyphName="I" x="0" y="0" flags="0x204"/>
      <component glyphName="breve" x="136" y="401" flags="0x4"/>
    </TTGlyph>
    <TTGlyph name="Icircumflex" xMin="-20" yMin="0" xMax="883" yMax="1778">
      <component glyphName="I" x="0" y="0" flags="0x204"/>
      <component glyphName="circumflex" x="116" y="334" flags="0x4"/>
    </TTGlyph>
    <TTGlyph name="Idieresis" xMin="-20" yMin="0" xMax="876" yMax="1704">
      <component glyphName="I" x="0" y="0" flags="0x204"/>
      <component glyphName="dieresis" x="117" y="334" flags="0x4"/>
    </TTGlyph>
    <TTGlyph name="Idotaccent" xMin="-20" yMin="0" xMax="855" yMax="1778">
      <component glyphName="I" x="0" y="0" flags="0x204"/>
      <component glyphName="dotaccent" x="126" y="334" flags="0x4"/>
    </TTGlyph>
    <TTGlyph name="Igrave" xMin="-20" yMin="0" xMax="855" yMax="1757">
      <component glyphName="I" x="0" y="0" flags="0x204"/>
      <component glyphName="grave" x="78" y="334" flags="0x4"/>
    </TTGlyph>
    <TTGlyph name="Imacron" xMin="-20" yMin="0" xMax="913" yMax="1702">
      <component glyphName="I" x="0" y="0" flags="0x204"/>
      <component glyphName="uni02C9" x="130" y="401" flags="0x4"/>
    </TTGlyph>
    <TTGlyph name="Iogonek" xMin="-20" yMin="-430" xMax="855" yMax="1341">
      <component glyphName="I" x="0" y="0" flags="0x204"/>
      <component glyphName="ogonek" x="89" y="0" flags="0x4"/>
    </TTGlyph>
    <TTGlyph name="Iota" xMin="-20" yMin="0" xMax="855" yMax="1341">
      <component glyphName="I" x="0" y="0" flags="0x204"/>
    </TTGlyph>
    <TTGlyph name="Iotadieresis" xMin="-20" yMin="0" xMax="876" yMax="1704">
      <component glyphName="I" x="0" y="0" flags="0x204"/>
      <component glyphName="dieresis" x="117" y="334" flags="0x4"/>
    </TTGlyph>
    <TTGlyph name="Iotatonos" xMin="-6" yMin="0" xMax="1094" yMax="1342">
      <component glyphName="I" x="239" y="0" flags="0x4"/>
      <component glyphName="tonos" x="-234" y="-170" flags="0x4"/>
    </TTGlyph>
    <TTGlyph name="Itilde" xMin="-20" yMin="0" xMax="943" yMax="1729">
      <component glyphName="I" x="0" y="0" flags="0x204"/>
      <component glyphName="tilde" x="118" y="334" flags="0x4"/>
    </TTGlyph>
    <TTGlyph name="J" xMin="-4" yMin="-20" xMax="1078" yMax="1341">
      <contour>
        <pt x="613" y="1242" on="1"/>
        <pt x="446" y="1268" on="1"/>
        <pt x="459" y="1341" on="1"/>
        <pt x="1078" y="1341" on="1"/>
        <pt x="1065" y="1268" on="1"/>
        <pt x="908" y="1242" on="1"/>
        <pt x="766" y="432" on="1"/>
        <pt x="728" y="216" on="0"/>
        <pt x="461" y="-20" on="0"/>
        <pt x="244" y="-20" on="1"/>
        <pt x="92" y="-20" on="0"/>
        <pt x="-4" y="10" on="1"/>
        <pt x="50" y="314" on="1"/>
        <pt x="133" y="314" on="1"/>
        <pt x="137" y="135" on="1"/>
        <pt x="169" y="86" on="0"/>
        <pt x="250" y="86" on="1"/>
        <pt x="324" y="86" on="0"/>
        <pt x="428" y="188" on="0"/>
        <pt x="443" y="276" on="1"/>
      </contour>
    </TTGlyph>
    <TTGlyph name="Jcircumflex" xMin="-4" yMin="-20" xMax="1118" yMax="1778">
      <component glyphName="J" x="0" y="0" flags="0x204"/>
      <component glyphName="circumflex" x="351" y="334" flags="0x4"/>
    </TTGlyph>
    <TTGlyph name="K" xMin="-15" yMin="0" xMax="1480" yMax="1341">
      <contour>
        <pt x="469" y="100" on="1"/>
        <pt x="647" y="73" on="1"/>
        <pt x="635" y="0" on="1"/>
        <pt x="-15" y="0" on="1"/>
        <pt x="-3" y="73" on="1"/>
        <pt x="174" y="100" on="1"/>
        <pt x="375" y="1242" on="1"/>
        <pt x="208" y="1268" on="1"/>
        <pt x="221" y="1341" on="1"/>
        <pt x="850" y="1341" on="1"/>
        <pt x="837" y="1268" on="1"/>
        <pt x="670" y="1242" on="1"/>
        <pt x="579" y="718" on="1"/>
        <pt x="1155" y="1242" on="1"/>
        <pt x="1042" y="1268" on="1"/>
        <pt x="1055" y="1341" on="1"/>
        <pt x="1480" y="1341" on="1"/>
        <pt x="1467" y="1268" on="1"/>
        <pt x="1328" y="1242" on="1"/>
        <pt x="855" y="813" on="1"/>
        <pt x="1208" y="100" on="1"/>
        <pt x="1342" y="73" on="1"/>
        <pt x="1330" y="0" on="1"/>
        <pt x="944" y="0" on="1"/>
        <pt x="648" y="636" on="1"/>
        <pt x="555" y="591" on="1"/>
      </contour>
    </TTGlyph>
    <TTGlyph name="Kappa" xMin="-15" yMin="0" xMax="1480" yMax="1341">
      <component glyphName="K" x="0" y="0" flags="0x204"/>
    </TTGlyph>
    <TTGlyph name="L" xMin="-15" yMin="0" xMax="1159" yMax="1341">
      <contour>
        <pt x="470" y="106" on="1"/>
        <pt x="583" y="106" on="1"/>
        <pt x="679" y="106" on="0"/>
        <pt x="920" y="119" on="0"/>
        <pt x="958" y="126" on="1"/>
        <pt x="1075" y="405" on="1"/>
        <pt x="1159" y="405" on="1"/>
        <pt x="1070" y="0" on="1"/>
        <pt x="-15" y="0" on="1"/>
        <pt x="-3" y="73" on="1"/>
        <pt x="174" y="100" on="1"/>
        <pt x="375" y="1242" on="1"/>
        <pt x="209" y="1268" on="1"/>
        <pt x="222" y="1341" on="1"/>
        <pt x="885" y="1341" on="1"/>
        <pt x="872" y="1268" on="1"/>
        <pt x="670" y="1242" on="1"/>
      </contour>
    </TTGlyph>
    <TTGlyph name="Lacute" xMin="-15" yMin="0" xMax="1159" yMax="1757">
      <component glyphName="L" x="0" y="0" flags="0x204"/>
      <component glyphName="acute" x="203" y="334" flags="0x4"/>
    </TTGlyph>
    <TTGlyph name="Lambda" xMin="-120" yMin="0" xMax="1233" yMax="1352">
      <contour>
        <pt x="699" y="1105" on="1"/>
        <pt x="143" y="100" on="1"/>
        <pt x="287" y="73" on="1"/>
        <pt x="275" y="0" on="1"/>
        <pt x="-120" y="0" on="1"/>
        <pt x="-108" y="73" on="1"/>
        <pt x="2" y="100" on="1"/>
        <pt x="702" y="1352" on="1"/>
        <pt x="952" y="1352" on="1"/>
        <pt x="1109" y="100" on="1"/>
        <pt x="1233" y="73" on="1"/>
        <pt x="1221" y="0" on="1"/>
        <pt x="629" y="0" on="1"/>
        <pt x="641" y="73" on="1"/>
        <pt x="797" y="100" on="1"/>
      </contour>
    </TTGlyph>
    <TTGlyph name="Lcaron" xMin="-15" yMin="0" xMax="1333" yMax="1362">
      <component glyphName="L" x="0" y="0" flags="0x204"/>
      <component glyphName="caroncommaaccent" x="795" y="0" flags="0x4"/>
    </TTGlyph>
    <TTGlyph name="Ldot" xMin="-15" yMin="0" xMax="1159" yMax="1341">
      <component glyphName="L" x="0" y="0" flags="0x204"/>
      <component glyphName="dotaccent" x="458" y="-577" flags="0x4"/>
    </TTGlyph>
    <TTGlyph name="Lslash" xMin="-15" yMin="0" xMax="1159" yMax="1341">
      <contour>
        <pt x="594" y="811" on="1"/>
        <pt x="856" y="951" on="1"/>
        <pt x="833" y="817" on="1"/>
        <pt x="571" y="680" on="1"/>
        <pt x="470" y="106" on="1"/>
        <pt x="583" y="106" on="1"/>
        <pt x="684" y="106" on="0"/>
        <pt x="921" y="119" on="0"/>
        <pt x="958" y="126" on="1"/>
        <pt x="1075" y="405" on="1"/>
        <pt x="1159" y="405" on="1"/>
        <pt x="1070" y="0" on="1"/>
        <pt x="-15" y="0" on="1"/>
        <pt x="-3" y="73" on="1"/>
        <pt x="174" y="100" on="1"/>
        <pt x="245" y="502" on="1"/>
        <pt x="61" y="402" on="1"/>
        <pt x="85" y="538" on="1"/>
        <pt x="268" y="636" on="1"/>
        <pt x="375" y="1242" on="1"/>
        <pt x="209" y="1268" on="1"/>
        <pt x="222" y="1341" on="1"/>
        <pt x="885" y="1341" on="1"/>
        <pt x="872" y="1268" on="1"/>
        <pt x="670" y="1242" on="1"/>
      </contour>
    </TTGlyph>
    <TTGlyph name="M" xMin="-27" yMin="0" xMax="1878" yMax="1341">
      <contour>
        <pt x="740" y="0" on="1"/>
        <pt x="695" y="0" on="1"/>
        <pt x="474" y="1158" on="1"/>
        <pt x="287" y="100" on="1"/>
        <pt x="462" y="73" on="1"/>
        <pt x="450" y="0" on="1"/>
        <pt x="-27" y="0" on="1"/>
        <pt x="-15" y="73" on="1"/>
        <pt x="162" y="100" on="1"/>
        <pt x="363" y="1242" on="1"/>
        <pt x="196" y="1268" on="1"/>
        <pt x="209" y="1341" on="1"/>
        <pt x="702" y="1341" on="1"/>
        <pt x="867" y="467" on="1"/>
        <pt x="1343" y="1341" on="1"/>
        <pt x="1878" y="1341" on="1"/>
        <pt x="1865" y="1268" on="1"/>
        <pt x="1688" y="1242" on="1"/>
        <pt x="1487" y="100" on="1"/>
        <pt x="1654" y="73" on="1"/>
        <pt x="1642" y="0" on="1"/>
        <pt x="985" y="0" on="1"/>
        <pt x="997" y="73" on="1"/>
        <pt x="1192" y="100" on="1"/>
        <pt x="1379" y="1158" on="1"/>
      </contour>
    </TTGlyph>
    <TTGlyph name="Mu" xMin="-27" yMin="0" xMax="1878" yMax="1341">
      <component glyphName="M" x="0" y="0" flags="0x204"/>
    </TTGlyph>
    <TTGlyph name="N" xMin="-19" yMin="0" xMax="1540" yMax="1341">
      <contour>
        <pt x="1225" y="1242" on="1"/>
        <pt x="1050" y="1268" on="1"/>
        <pt x="1063" y="1341" on="1"/>
        <pt x="1540" y="1341" on="1"/>
        <pt x="1527" y="1268" on="1"/>
        <pt x="1350" y="1242" on="1"/>
        <pt x="1132" y="0" on="1"/>
        <pt x="1017" y="0" on="1"/>
        <pt x="476" y="1112" on="1"/>
        <pt x="295" y="100" on="1"/>
        <pt x="470" y="73" on="1"/>
        <pt x="458" y="0" on="1"/>
        <pt x="-19" y="0" on="1"/>
        <pt x="-7" y="73" on="1"/>
        <pt x="170" y="100" on="1"/>
        <pt x="371" y="1242" on="1"/>
        <pt x="204" y="1268" on="1"/>
        <pt x="217" y="1341" on="1"/>
        <pt x="650" y="1341" on="1"/>
        <pt x="1085" y="447" on="1"/>
      </contour>
    </TTGlyph>
    <TTGlyph name="Nacute" xMin="-19" yMin="0" xMax="1540" yMax="1757">
      <component glyphName="N" x="0" y="0" flags="0x204"/>
      <component glyphName="acute" x="495" y="334" flags="0x4"/>
    </TTGlyph>
    <TTGlyph name="Ncaron" xMin="-19" yMin="0" xMax="1540" yMax="1778">
      <component glyphName="N" x="0" y="0" flags="0x204"/>
      <component glyphName="caron" x="444" y="334" flags="0x4"/>
    </TTGlyph>
    <TTGlyph name="Ntilde" xMin="-19" yMin="0" xMax="1540" yMax="1729">
      <component glyphName="N" x="0" y="0" flags="0x204"/>
      <component glyphName="tilde" x="497" y="334" flags="0x4"/>
    </TTGlyph>
    <TTGlyph name="Nu" xMin="-19" yMin="0" xMax="1540" yMax="1341">
      <component glyphName="N" x="0" y="0" flags="0x204"/>
    </TTGlyph>
    <TTGlyph name="O" xMin="74" yMin="-20" xMax="1421" yMax="1356">
      <contour>
        <pt x="1120" y="843" on="1"/>
        <pt x="1120" y="1033" on="0"/>
        <pt x="968" y="1251" on="0"/>
        <pt x="832" y="1251" on="1"/>
        <pt x="710" y="1251" on="0"/>
        <pt x="505" y="1051" on="0"/>
        <pt x="375" y="672" on="0"/>
        <pt x="375" y="485" on="1"/>
        <pt x="375" y="297" on="0"/>
        <pt x="523" y="83" on="0"/>
        <pt x="657" y="83" on="1"/>
        <pt x="782" y="83" on="0"/>
        <pt x="988" y="281" on="0"/>
        <pt x="1120" y="653" on="0"/>
      </contour>
      <contour>
        <pt x="639" y="-20" on="1"/>
        <pt x="473" y="-20" on="0"/>
        <pt x="216" y="117" on="0"/>
        <pt x="74" y="366" on="0"/>
        <pt x="74" y="524" on="1"/>
        <pt x="74" y="766" on="0"/>
        <pt x="270" y="1149" on="0"/>
        <pt x="625" y="1356" on="0"/>
        <pt x="856" y="1356" on="1"/>
        <pt x="1022" y="1356" on="0"/>
        <pt x="1279" y="1219" on="0"/>
        <pt x="1421" y="970" on="0"/>
        <pt x="1421" y="812" on="1"/>
        <pt x="1421" y="572" on="0"/>
        <pt x="1220" y="179" on="0"/>
        <pt x="871" y="-20" on="0"/>
      </contour>
    </TTGlyph>
    <TTGlyph name="OE" xMin="71" yMin="-7" xMax="1847" yMax="1349">
      <contour>
        <pt x="636" y="-7" on="1"/>
        <pt x="382" y="-7" on="0"/>
        <pt x="71" y="284" on="0"/>
        <pt x="71" y="524" on="1"/>
        <pt x="71" y="762" on="0"/>
        <pt x="262" y="1140" on="0"/>
        <pt x="617" y="1349" on="0"/>
        <pt x="853" y="1349" on="1"/>
        <pt x="944" y="1349" on="0"/>
        <pt x="1054" y="1341" on="1"/>
        <pt x="1847" y="1341" on="1"/>
        <pt x="1787" y="1000" on="1"/>
        <pt x="1696" y="1000" on="1"/>
        <pt x="1702" y="1217" on="1"/>
        <pt x="1593" y="1231" on="0"/>
        <pt x="1369" y="1231" on="1"/>
        <pt x="1311" y="1231" on="1"/>
        <pt x="1224" y="739" on="1"/>
        <pt x="1437" y="739" on="1"/>
        <pt x="1494" y="887" on="1"/>
        <pt x="1583" y="887" on="1"/>
        <pt x="1510" y="475" on="1"/>
        <pt x="1421" y="475" on="1"/>
        <pt x="1417" y="627" on="1"/>
        <pt x="1204" y="627" on="1"/>
        <pt x="1113" y="110" on="1"/>
        <pt x="1216" y="110" on="1"/>
        <pt x="1484" y="110" on="0"/>
        <pt x="1569" y="126" on="1"/>
        <pt x="1669" y="374" on="1"/>
        <pt x="1760" y="374" on="1"/>
        <pt x="1676" y="0" on="1"/>
        <pt x="801" y="0" on="1"/>
        <pt x="680" y="-7" on="0"/>
      </contour>
      <contour>
        <pt x="654" y="93" on="1"/>
        <pt x="751" y="93" on="0"/>
        <pt x="819" y="117" on="1"/>
        <pt x="1013" y="1219" on="1"/>
        <pt x="950" y="1238" on="0"/>
        <pt x="874" y="1248" on="0"/>
        <pt x="839" y="1248" on="1"/>
        <pt x="711" y="1248" on="0"/>
        <pt x="501" y="1048" on="0"/>
        <pt x="372" y="673" on="0"/>
        <pt x="372" y="485" on="1"/>
        <pt x="372" y="300" on="0"/>
        <pt x="518" y="93" on="0"/>
      </contour>
    </TTGlyph>
    <TTGlyph name="Oacute" xMin="74" yMin="-20" xMax="1421" yMax="1757">
      <component glyphName="O" x="0" y="0" flags="0x204"/>
      <component glyphName="acute" x="491" y="334" flags="0x4"/>
    </TTGlyph>
    <TTGlyph name="Obreve" xMin="74" yMin="-20" xMax="1421" yMax="1775">
      <component glyphName="O" x="0" y="0" flags="0x204"/>
      <component glyphName="breve" x="454" y="334" flags="0x4"/>
    </TTGlyph>
    <TTGlyph name="Ocircumflex" xMin="74" yMin="-20" xMax="1421" yMax="1778">
      <component glyphName="O" x="0" y="0" flags="0x204"/>
      <component glyphName="circumflex" x="458" y="334" flags="0x4"/>
    </TTGlyph>
    <TTGlyph name="Odieresis" xMin="74" yMin="-20" xMax="1421" yMax="1704">
      <component glyphName="O" x="0" y="0" flags="0x204"/>
      <component glyphName="dieresis" x="454" y="334" flags="0x4"/>
    </TTGlyph>
    <TTGlyph name="Ograve" xMin="74" yMin="-20" xMax="1421" yMax="1757">
      <component glyphName="O" x="0" y="0" flags="0x204"/>
      <component glyphName="grave" x="380" y="334" flags="0x4"/>
    </TTGlyph>
    <TTGlyph name="Ohm" xMin="33" yMin="0" xMax="1507" yMax="1356">
      <contour>
        <pt x="877" y="1251" on="1"/>
        <pt x="658" y="1251" on="0"/>
        <pt x="421" y="982" on="0"/>
        <pt x="421" y="742" on="1"/>
        <pt x="421" y="608" on="0"/>
        <pt x="545" y="430" on="0"/>
        <pt x="658" y="404" on="1"/>
        <pt x="612" y="0" on="1"/>
        <pt x="33" y="0" on="1"/>
        <pt x="78" y="370" on="1"/>
        <pt x="144" y="370" on="1"/>
        <pt x="178" y="236" on="1"/>
        <pt x="258" y="220" on="0"/>
        <pt x="449" y="220" on="1"/>
        <pt x="516" y="220" on="1"/>
        <pt x="527" y="327" on="1"/>
        <pt x="349" y="360" on="0"/>
        <pt x="116" y="588" on="0"/>
        <pt x="116" y="743" on="1"/>
        <pt x="116" y="930" on="0"/>
        <pt x="305" y="1209" on="0"/>
        <pt x="657" y="1356" on="0"/>
        <pt x="889" y="1356" on="1"/>
        <pt x="1183" y="1356" on="0"/>
        <pt x="1507" y="1120" on="0"/>
        <pt x="1507" y="909" on="1"/>
        <pt x="1507" y="675" on="0"/>
        <pt x="1208" y="363" on="0"/>
        <pt x="950" y="327" on="1"/>
        <pt x="919" y="220" on="1"/>
        <pt x="973" y="220" on="1"/>
        <pt x="1175" y="220" on="0"/>
        <pt x="1260" y="236" on="1"/>
        <pt x="1340" y="370" on="1"/>
        <pt x="1426" y="370" on="1"/>
        <pt x="1343" y="0" on="1"/>
        <pt x="744" y="0" on="1"/>
        <pt x="844" y="404" on="1"/>
        <pt x="1015" y="428" on="0"/>
        <pt x="1202" y="683" on="0"/>
        <pt x="1202" y="895" on="1"/>
        <pt x="1202" y="1069" on="0"/>
        <pt x="1038" y="1251" on="0"/>
      </contour>
    </TTGlyph>
    <TTGlyph name="Ohorn" xMin="74" yMin="-20" xMax="1671" yMax="1485">
      <contour>
        <pt x="1671" y="1329" on="1"/>
        <pt x="1671" y="1211" on="0"/>
        <pt x="1531" y="1042" on="0"/>
        <pt x="1392" y="999" on="1"/>
        <pt x="1421" y="912" on="0"/>
        <pt x="1421" y="812" on="1"/>
        <pt x="1421" y="572" on="0"/>
        <pt x="1220" y="179" on="0"/>
        <pt x="871" y="-20" on="0"/>
        <pt x="639" y="-20" on="1"/>
        <pt x="473" y="-20" on="0"/>
        <pt x="216" y="117" on="0"/>
        <pt x="74" y="366" on="0"/>
        <pt x="74" y="524" on="1"/>
        <pt x="74" y="766" on="0"/>
        <pt x="270" y="1149" on="0"/>
        <pt x="625" y="1356" on="0"/>
        <pt x="856" y="1356" on="1"/>
        <pt x="1031" y="1356" on="0"/>
        <pt x="1298" y="1203" on="0"/>
        <pt x="1365" y="1065" on="1"/>
        <pt x="1430" y="1085" on="0"/>
        <pt x="1507" y="1170" on="0"/>
        <pt x="1507" y="1213" on="1"/>
        <pt x="1507" y="1238" on="0"/>
        <pt x="1472" y="1263" on="0"/>
        <pt x="1429" y="1292" on="0"/>
        <pt x="1394" y="1336" on="0"/>
        <pt x="1394" y="1379" on="1"/>
        <pt x="1394" y="1431" on="0"/>
        <pt x="1466" y="1485" on="0"/>
        <pt x="1522" y="1485" on="1"/>
        <pt x="1588" y="1485" on="0"/>
        <pt x="1671" y="1400" on="0"/>
      </contour>
      <contour>
        <pt x="1120" y="843" on="1"/>
        <pt x="1120" y="1033" on="0"/>
        <pt x="968" y="1251" on="0"/>
        <pt x="832" y="1251" on="1"/>
        <pt x="710" y="1251" on="0"/>
        <pt x="505" y="1051" on="0"/>
        <pt x="375" y="672" on="0"/>
        <pt x="375" y="485" on="1"/>
        <pt x="375" y="297" on="0"/>
        <pt x="523" y="83" on="0"/>
        <pt x="657" y="83" on="1"/>
        <pt x="782" y="83" on="0"/>
        <pt x="988" y="281" on="0"/>
        <pt x="1120" y="653" on="0"/>
      </contour>
    </TTGlyph>
    <TTGlyph name="Omacron" xMin="74" yMin="-20" xMax="1421" yMax="1635">
      <component glyphName="O" x="0" y="0" flags="0x204"/>
      <component glyphName="uni02C9" x="449" y="334" flags="0x4"/>
    </TTGlyph>
    <TTGlyph name="Omega" xMin="19" yMin="0" xMax="1493" yMax="1356">
      <contour>
        <pt x="863" y="1251" on="1"/>
        <pt x="644" y="1251" on="0"/>
        <pt x="407" y="982" on="0"/>
        <pt x="407" y="742" on="1"/>
        <pt x="407" y="608" on="0"/>
        <pt x="531" y="430" on="0"/>
        <pt x="644" y="404" on="1"/>
        <pt x="598" y="0" on="1"/>
        <pt x="19" y="0" on="1"/>
        <pt x="64" y="370" on="1"/>
        <pt x="130" y="370" on="1"/>
        <pt x="164" y="236" on="1"/>
        <pt x="244" y="220" on="0"/>
        <pt x="435" y="220" on="1"/>
        <pt x="502" y="220" on="1"/>
        <pt x="513" y="327" on="1"/>
        <pt x="335" y="360" on="0"/>
        <pt x="102" y="588" on="0"/>
        <pt x="102" y="743" on="1"/>
        <pt x="102" y="930" on="0"/>
        <pt x="291" y="1209" on="0"/>
        <pt x="643" y="1356" on="0"/>
        <pt x="875" y="1356" on="1"/>
        <pt x="1169" y="1356" on="0"/>
        <pt x="1493" y="1120" on="0"/>
        <pt x="1493" y="909" on="1"/>
        <pt x="1493" y="675" on="0"/>
        <pt x="1194" y="363" on="0"/>
        <pt x="936" y="327" on="1"/>
        <pt x="905" y="220" on="1"/>
        <pt x="959" y="220" on="1"/>
        <pt x="1161" y="220" on="0"/>
        <pt x="1246" y="236" on="1"/>
        <pt x="1326" y="370" on="1"/>
        <pt x="1412" y="370" on="1"/>
        <pt x="1329" y="0" on="1"/>
        <pt x="730" y="0" on="1"/>
        <pt x="830" y="404" on="1"/>
        <pt x="1001" y="428" on="0"/>
        <pt x="1188" y="683" on="0"/>
        <pt x="1188" y="895" on="1"/>
        <pt x="1188" y="1069" on="0"/>
        <pt x="1024" y="1251" on="0"/>
      </contour>
    </TTGlyph>
    <TTGlyph name="Omegatonos" xMin="-111" yMin="0" xMax="1557" yMax="1356">
      <component glyphName="Omega" x="64" y="0" flags="0x4"/>
      <component glyphName="tonos" x="-339" y="-170" flags="0x4"/>
    </TTGlyph>
    <TTGlyph name="Omicron" xMin="74" yMin="-20" xMax="1421" yMax="1356">
      <component glyphName="O" x="0" y="0" flags="0x204"/>
    </TTGlyph>
    <TTGlyph name="Omicrontonos" xMin="-110" yMin="-20" xMax="1439" yMax="1356">
      <component glyphName="O" x="18" y="0" flags="0x4"/>
      <component glyphName="tonos" x="-338" y="-170" flags="0x4"/>
    </TTGlyph>
    <TTGlyph name="Oslash" xMin="-39" yMin="-55" xMax="1555" yMax="1391">
      <contour>
        <pt x="639" y="-20" on="1"/>
        <pt x="417" y="-20" on="0"/>
        <pt x="265" y="100" on="1"/>
        <pt x="110" y="-55" on="1"/>
        <pt x="-39" y="-55" on="1"/>
        <pt x="190" y="174" on="1"/>
        <pt x="74" y="316" on="0"/>
        <pt x="74" y="524" on="1"/>
        <pt x="74" y="766" on="0"/>
        <pt x="270" y="1149" on="0"/>
        <pt x="625" y="1356" on="0"/>
        <pt x="856" y="1356" on="1"/>
        <pt x="1090" y="1356" on="0"/>
        <pt x="1243" y="1224" on="1"/>
        <pt x="1410" y="1391" on="1"/>
        <pt x="1555" y="1391" on="1"/>
        <pt x="1314" y="1149" on="1"/>
        <pt x="1421" y="1009" on="0"/>
        <pt x="1421" y="812" on="1"/>
        <pt x="1421" y="572" on="0"/>
        <pt x="1220" y="179" on="0"/>
        <pt x="871" y="-20" on="0"/>
      </contour>
      <contour>
        <pt x="375" y="485" on="1"/>
        <pt x="375" y="410" on="0"/>
        <pt x="383" y="367" on="1"/>
        <pt x="1083" y="1065" on="1"/>
        <pt x="1011" y="1251" on="0"/>
        <pt x="832" y="1251" on="1"/>
        <pt x="710" y="1251" on="0"/>
        <pt x="505" y="1051" on="0"/>
        <pt x="375" y="672" on="0"/>
      </contour>
      <contour>
        <pt x="1120" y="843" on="1"/>
        <pt x="1120" y="890" on="0"/>
        <pt x="1113" y="948" on="1"/>
        <pt x="416" y="251" on="1"/>
        <pt x="487" y="83" on="0"/>
        <pt x="657" y="83" on="1"/>
        <pt x="782" y="83" on="0"/>
        <pt x="988" y="281" on="0"/>
        <pt x="1120" y="653" on="0"/>
      </contour>
    </TTGlyph>
    <TTGlyph name="Oslashacute" xMin="-39" yMin="-55" xMax="1555" yMax="1757">
      <component glyphName="Oslash" x="0" y="0" flags="0x204"/>
      <component glyphName="acute" x="520" y="334" flags="0x4"/>
    </TTGlyph>
    <TTGlyph name="Otilde" xMin="74" yMin="-20" xMax="1421" yMax="1729">
      <component glyphName="O" x="0" y="0" flags="0x204"/>
      <component glyphName="tilde" x="461" y="334" flags="0x4"/>
    </TTGlyph>
    <TTGlyph name="P" xMin="-1" yMin="0" xMax="1264" yMax="1341">
      <contour>
        <pt x="643" y="636" on="1"/>
        <pt x="796" y="636" on="0"/>
        <pt x="971" y="821" on="0"/>
        <pt x="971" y="980" on="1"/>
        <pt x="971" y="1100" on="0"/>
        <pt x="854" y="1230" on="0"/>
        <pt x="738" y="1230" on="1"/>
        <pt x="669" y="1230" on="1"/>
        <pt x="564" y="636" on="1"/>
      </contour>
      <contour>
        <pt x="544" y="526" on="1"/>
        <pt x="468" y="100" on="1"/>
        <pt x="687" y="73" on="1"/>
        <pt x="676" y="0" on="1"/>
        <pt x="-1" y="0" on="1"/>
        <pt x="10" y="73" on="1"/>
        <pt x="172" y="100" on="1"/>
        <pt x="374" y="1242" on="1"/>
        <pt x="206" y="1268" on="1"/>
        <pt x="218" y="1341" on="1"/>
        <pt x="749" y="1341" on="1"/>
        <pt x="1003" y="1341" on="0"/>
        <pt x="1264" y="1161" on="0"/>
        <pt x="1264" y="983" on="1"/>
        <pt x="1264" y="766" on="0"/>
        <pt x="966" y="526" on="0"/>
        <pt x="687" y="526" on="1"/>
      </contour>
    </TTGlyph>
    <TTGlyph name="Phi" xMin="70" yMin="0" xMax="1583" yMax="1341">
      <contour>
        <pt x="989" y="320" on="1"/>
        <pt x="1137" y="320" on="0"/>
        <pt x="1303" y="535" on="0"/>
        <pt x="1303" y="727" on="1"/>
        <pt x="1303" y="872" on="0"/>
        <pt x="1170" y="1039" on="0"/>
        <pt x="1058" y="1039" on="1"/>
        <pt x="1026" y="1039" on="1"/>
        <pt x="911" y="320" on="1"/>
      </contour>
      <contour>
        <pt x="656" y="1039" on="1"/>
        <pt x="508" y="1039" on="0"/>
        <pt x="342" y="824" on="0"/>
        <pt x="342" y="632" on="1"/>
        <pt x="342" y="486" on="0"/>
        <pt x="476" y="320" on="0"/>
        <pt x="587" y="320" on="1"/>
        <pt x="628" y="320" on="1"/>
        <pt x="754" y="1039" on="1"/>
      </contour>
      <contour>
        <pt x="610" y="222" on="1"/>
        <pt x="539" y="222" on="1"/>
        <pt x="322" y="222" on="0"/>
        <pt x="70" y="442" on="0"/>
        <pt x="70" y="635" on="1"/>
        <pt x="70" y="870" on="0"/>
        <pt x="372" y="1137" on="0"/>
        <pt x="644" y="1137" on="1"/>
        <pt x="773" y="1137" on="1"/>
        <pt x="790" y="1242" on="1"/>
        <pt x="624" y="1268" on="1"/>
        <pt x="637" y="1341" on="1"/>
        <pt x="1253" y="1341" on="1"/>
        <pt x="1240" y="1268" on="1"/>
        <pt x="1062" y="1242" on="1"/>
        <pt x="1045" y="1137" on="1"/>
        <pt x="1106" y="1137" on="1"/>
        <pt x="1326" y="1137" on="0"/>
        <pt x="1583" y="914" on="0"/>
        <pt x="1583" y="726" on="1"/>
        <pt x="1583" y="491" on="0"/>
        <pt x="1274" y="222" on="0"/>
        <pt x="1001" y="222" on="1"/>
        <pt x="882" y="222" on="1"/>
        <pt x="862" y="100" on="1"/>
        <pt x="1027" y="73" on="1"/>
        <pt x="1015" y="0" on="1"/>
        <pt x="399" y="0" on="1"/>
        <pt x="411" y="73" on="1"/>
        <pt x="590" y="100" on="1"/>
      </contour>
    </TTGlyph>
    <TTGlyph name="Pi" xMin="-15" yMin="0" xMax="1645" yMax="1341">
      <contour>
        <pt x="-15" y="0" on="1"/>
        <pt x="-2" y="73" on="1"/>
        <pt x="172" y="100" on="1"/>
        <pt x="373" y="1242" on="1"/>
        <pt x="207" y="1268" on="1"/>
        <pt x="221" y="1341" on="1"/>
        <pt x="1645" y="1341" on="1"/>
        <pt x="1631" y="1268" on="1"/>
        <pt x="1454" y="1242" on="1"/>
        <pt x="1253" y="100" on="1"/>
        <pt x="1419" y="73" on="1"/>
        <pt x="1408" y="0" on="1"/>
        <pt x="772" y="0" on="1"/>
        <pt x="783" y="73" on="1"/>
        <pt x="961" y="100" on="1"/>
        <pt x="1161" y="1231" on="1"/>
        <pt x="665" y="1231" on="1"/>
        <pt x="465" y="100" on="1"/>
        <pt x="631" y="73" on="1"/>
        <pt x="620" y="0" on="1"/>
      </contour>
    </TTGlyph>
    <TTGlyph name="Psi" xMin="129" yMin="0" xMax="1763" yMax="1341">
      <contour>
        <pt x="869" y="100" on="1"/>
        <pt x="1046" y="73" on="1"/>
        <pt x="1033" y="0" on="1"/>
        <pt x="397" y="0" on="1"/>
        <pt x="410" y="73" on="1"/>
        <pt x="597" y="100" on="1"/>
        <pt x="668" y="506" on="1"/>
        <pt x="444" y="506" on="0"/>
        <pt x="190" y="694" on="0"/>
        <pt x="190" y="864" on="1"/>
        <pt x="190" y="934" on="0"/>
        <pt x="201" y="987" on="1"/>
        <pt x="246" y="1242" on="1"/>
        <pt x="129" y="1268" on="1"/>
        <pt x="142" y="1341" on="1"/>
        <pt x="546" y="1341" on="1"/>
        <pt x="482" y="982" on="1"/>
        <pt x="469" y="913" on="0"/>
        <pt x="469" y="854" on="1"/>
        <pt x="469" y="749" on="0"/>
        <pt x="594" y="607" on="0"/>
        <pt x="686" y="605" on="1"/>
        <pt x="798" y="1242" on="1"/>
        <pt x="671" y="1268" on="1"/>
        <pt x="684" y="1341" on="1"/>
        <pt x="1220" y="1341" on="1"/>
        <pt x="1207" y="1268" on="1"/>
        <pt x="1070" y="1242" on="1"/>
        <pt x="958" y="605" on="1"/>
        <pt x="1084" y="605" on="0"/>
        <pt x="1259" y="777" on="0"/>
        <pt x="1285" y="926" on="1"/>
        <pt x="1359" y="1341" on="1"/>
        <pt x="1763" y="1341" on="1"/>
        <pt x="1750" y="1268" on="1"/>
        <pt x="1623" y="1242" on="1"/>
        <pt x="1568" y="931" on="1"/>
        <pt x="1529" y="714" on="0"/>
        <pt x="1215" y="506" on="0"/>
        <pt x="940" y="506" on="1"/>
      </contour>
    </TTGlyph>
    <TTGlyph name="Q" xMin="74" yMin="-332" xMax="1421" yMax="1356">
      <contour>
        <pt x="1421" y="812" on="1"/>
        <pt x="1421" y="627" on="0"/>
        <pt x="1299" y="302" on="0"/>
        <pt x="1068" y="71" on="0"/>
        <pt x="910" y="20" on="1"/>
        <pt x="942" y="-29" on="1"/>
        <pt x="1058" y="-213" on="0"/>
        <pt x="1166" y="-213" on="1"/>
        <pt x="1187" y="-213" on="0"/>
        <pt x="1255" y="-205" on="1"/>
        <pt x="1268" y="-283" on="1"/>
        <pt x="1224" y="-301" on="0"/>
        <pt x="1059" y="-332" on="0"/>
        <pt x="1007" y="-332" on="1"/>
        <pt x="919" y="-332" on="0"/>
        <pt x="793" y="-283" on="0"/>
        <pt x="687" y="-176" on="0"/>
        <pt x="593" y="-18" on="1"/>
        <pt x="439" y="-9" on="0"/>
        <pt x="202" y="133" on="0"/>
        <pt x="74" y="376" on="0"/>
        <pt x="74" y="524" on="1"/>
        <pt x="74" y="766" on="0"/>
        <pt x="270" y="1149" on="0"/>
        <pt x="625" y="1356" on="0"/>
        <pt x="856" y="1356" on="1"/>
        <pt x="1022" y="1356" on="0"/>
        <pt x="1279" y="1219" on="0"/>
        <pt x="1421" y="970" on="0"/>
      </contour>
      <contour>
        <pt x="1120" y="843" on="1"/>
        <pt x="1120" y="1033" on="0"/>
        <pt x="968" y="1251" on="0"/>
        <pt x="832" y="1251" on="1"/>
        <pt x="710" y="1251" on="0"/>
        <pt x="505" y="1051" on="0"/>
        <pt x="375" y="672" on="0"/>
        <pt x="375" y="485" on="1"/>
        <pt x="375" y="297" on="0"/>
        <pt x="523" y="83" on="0"/>
        <pt x="657" y="83" on="1"/>
        <pt x="782" y="83" on="0"/>
        <pt x="988" y="281" on="0"/>
        <pt x="1120" y="653" on="0"/>
      </contour>
    </TTGlyph>
    <TTGlyph name="R" xMin="-3" yMin="0" xMax="1288" yMax="1341">
      <contour>
        <pt x="552" y="568" on="1"/>
        <pt x="469" y="100" on="1"/>
        <pt x="636" y="73" on="1"/>
        <pt x="624" y="0" on="1"/>
        <pt x="-3" y="0" on="1"/>
        <pt x="9" y="73" on="1"/>
        <pt x="173" y="100" on="1"/>
        <pt x="374" y="1242" on="1"/>
        <pt x="207" y="1268" on="1"/>
        <pt x="220" y="1341" on="1"/>
        <pt x="755" y="1341" on="1"/>
        <pt x="1017" y="1341" on="0"/>
        <pt x="1269" y="1175" on="0"/>
        <pt x="1269" y="1003" on="1"/>
        <pt x="1269" y="847" on="0"/>
        <pt x="1100" y="639" on="0"/>
        <pt x="940" y="596" on="1"/>
        <pt x="1141" y="100" on="1"/>
        <pt x="1288" y="73" on="1"/>
        <pt x="1276" y="0" on="1"/>
        <pt x="876" y="0" on="1"/>
        <pt x="668" y="568" on="1"/>
      </contour>
      <contour>
        <pt x="626" y="678" on="1"/>
        <pt x="790" y="678" on="0"/>
        <pt x="976" y="841" on="0"/>
        <pt x="976" y="987" on="1"/>
        <pt x="976" y="1117" on="0"/>
        <pt x="855" y="1231" on="0"/>
        <pt x="738" y="1231" on="1"/>
        <pt x="669" y="1231" on="1"/>
        <pt x="571" y="678" on="1"/>
      </contour>
    </TTGlyph>
    <TTGlyph name="Racute" xMin="-3" yMin="0" xMax="1288" yMax="1757">
      <component glyphName="R" x="0" y="0" flags="0x204"/>
      <component glyphName="acute" x="391" y="334" flags="0x4"/>
    </TTGlyph>
    <TTGlyph name="Rcaron" xMin="-3" yMin="0" xMax="1288" yMax="1778">
      <component glyphName="R" x="0" y="0" flags="0x204"/>
      <component glyphName="caron" x="356" y="334" flags="0x4"/>
    </TTGlyph>
    <TTGlyph name="Rho" xMin="-1" yMin="0" xMax="1264" yMax="1341">
      <component glyphName="P" x="0" y="0" flags="0x204"/>
    </TTGlyph>
    <TTGlyph name="S" xMin="37" yMin="-20" xMax="1053" yMax="1356">
      <contour>
        <pt x="432" y="-20" on="1"/>
        <pt x="215" y="-20" on="0"/>
        <pt x="37" y="51" on="1"/>
        <pt x="101" y="411" on="1"/>
        <pt x="189" y="411" on="1"/>
        <pt x="190" y="196" on="1"/>
        <pt x="224" y="147" on="0"/>
        <pt x="368" y="81" on="0"/>
        <pt x="449" y="81" on="1"/>
        <pt x="595" y="81" on="0"/>
        <pt x="753" y="203" on="0"/>
        <pt x="753" y="311" on="1"/>
        <pt x="753" y="365" on="0"/>
        <pt x="705" y="445" on="0"/>
        <pt x="626" y="510" on="0"/>
        <pt x="526" y="567" on="0"/>
        <pt x="421" y="626" on="0"/>
        <pt x="321" y="695" on="0"/>
        <pt x="242" y="785" on="0"/>
        <pt x="194" y="901" on="0"/>
        <pt x="194" y="979" on="1"/>
        <pt x="194" y="1163" on="0"/>
        <pt x="461" y="1356" on="0"/>
        <pt x="717" y="1356" on="1"/>
        <pt x="888" y="1356" on="0"/>
        <pt x="1053" y="1313" on="1"/>
        <pt x="997" y="994" on="1"/>
        <pt x="908" y="994" on="1"/>
        <pt x="901" y="1190" on="1"/>
        <pt x="820" y="1252" on="0"/>
        <pt x="690" y="1252" on="1"/>
        <pt x="577" y="1252" on="0"/>
        <pt x="448" y="1154" on="0"/>
        <pt x="448" y="1069" on="1"/>
        <pt x="448" y="1009" on="0"/>
        <pt x="535" y="908" on="0"/>
        <pt x="627" y="857" on="1"/>
        <pt x="761" y="782" on="0"/>
        <pt x="880" y="703" on="0"/>
        <pt x="962" y="613" on="0"/>
        <pt x="1011" y="499" on="0"/>
        <pt x="1011" y="423" on="1"/>
        <pt x="1011" y="207" on="0"/>
        <pt x="714" y="-20" on="0"/>
      </contour>
    </TTGlyph>
    <TTGlyph name="Sacute" xMin="37" yMin="-20" xMax="1069" yMax="1757">
      <component glyphName="S" x="0" y="0" flags="0x204"/>
      <component glyphName="acute" x="329" y="334" flags="0x4"/>
    </TTGlyph>
    <TTGlyph name="Scaron" xMin="37" yMin="-20" xMax="1086" yMax="1778">
      <component glyphName="S" x="0" y="0" flags="0x204"/>
      <component glyphName="caron" x="265" y="334" flags="0x4"/>
    </TTGlyph>
    <TTGlyph name="Scedilla" xMin="37" yMin="-432" xMax="1053" yMax="1356">
      <component glyphName="S" x="0" y="0" flags="0x204"/>
      <component glyphName="cedilla" x="279" y="0" flags="0x4"/>
    </TTGlyph>
    <TTGlyph name="Scircumflex" xMin="37" yMin="-20" xMax="1053" yMax="1778">
      <component glyphName="S" x="0" y="0" flags="0x204"/>
      <component glyphName="circumflex" x="261" y="334" flags="0x4"/>
    </TTGlyph>
    <TTGlyph name="Scommaaccent" xMin="37" yMin="-523" xMax="1053" yMax="1356">
      <component glyphName="S" x="0" y="0" flags="0x204"/>
      <component glyphName="uni0326" x="609" y="0" flags="0x4"/>
    </TTGlyph>
    <TTGlyph name="Sigma" xMin="-34" yMin="0" xMax="1245" yMax="1341">
      <contour>
        <pt x="534" y="1231" on="1"/>
        <pt x="765" y="780" on="1"/>
        <pt x="755" y="712" on="1"/>
        <pt x="284" y="240" on="1"/>
        <pt x="565" y="240" on="1"/>
        <pt x="666" y="240" on="0"/>
        <pt x="947" y="249" on="0"/>
        <pt x="982" y="256" on="1"/>
        <pt x="1068" y="444" on="1"/>
        <pt x="1160" y="444" on="1"/>
        <pt x="1052" y="0" on="1"/>
        <pt x="-34" y="0" on="1"/>
        <pt x="-16" y="94" on="1"/>
        <pt x="520" y="641" on="1"/>
        <pt x="214" y="1242" on="1"/>
        <pt x="234" y="1341" on="1"/>
        <pt x="1245" y="1341" on="1"/>
        <pt x="1182" y="1000" on="1"/>
        <pt x="1092" y="1000" on="1"/>
        <pt x="1098" y="1217" on="1"/>
        <pt x="996" y="1231" on="0"/>
        <pt x="813" y="1231" on="1"/>
      </contour>
    </TTGlyph>
    <TTGlyph name="T" xMin="149" yMin="0" xMax="1318" yMax="1341">
      <contour>
        <pt x="167" y="0" on="1"/>
        <pt x="179" y="73" on="1"/>
        <pt x="397" y="100" on="1"/>
        <pt x="597" y="1235" on="1"/>
        <pt x="536" y="1235" on="1"/>
        <pt x="480" y="1235" on="0"/>
        <pt x="341" y="1221" on="0"/>
        <pt x="311" y="1215" on="1"/>
        <pt x="236" y="966" on="1"/>
        <pt x="149" y="966" on="1"/>
        <pt x="215" y="1341" on="1"/>
        <pt x="1318" y="1341" on="1"/>
        <pt x="1252" y="966" on="1"/>
        <pt x="1164" y="966" on="1"/>
        <pt x="1177" y="1215" on="1"/>
        <pt x="1149" y="1221" on="0"/>
        <pt x="1000" y="1233" on="0"/>
        <pt x="952" y="1233" on="1"/>
        <pt x="893" y="1233" on="1"/>
        <pt x="693" y="100" on="1"/>
        <pt x="901" y="73" on="1"/>
        <pt x="889" y="0" on="1"/>
      </contour>
    </TTGlyph>
    <TTGlyph name="Tau" xMin="149" yMin="0" xMax="1318" yMax="1341">
      <component glyphName="T" x="0" y="0" flags="0x204"/>
    </TTGlyph>
    <TTGlyph name="Tbar" xMin="149" yMin="0" xMax="1318" yMax="1341">
      <contour>
        <pt x="167" y="0" on="1"/>
        <pt x="179" y="73" on="1"/>
        <pt x="397" y="100" on="1"/>
        <pt x="486" y="609" on="1"/>
        <pt x="207" y="609" on="1"/>
        <pt x="228" y="731" on="1"/>
        <pt x="508" y="731" on="1"/>
        <pt x="597" y="1235" on="1"/>
        <pt x="536" y="1235" on="1"/>
        <pt x="480" y="1235" on="0"/>
        <pt x="341" y="1221" on="0"/>
        <pt x="311" y="1215" on="1"/>
        <pt x="236" y="966" on="1"/>
        <pt x="149" y="966" on="1"/>
        <pt x="215" y="1341" on="1"/>
        <pt x="1318" y="1341" on="1"/>
        <pt x="1252" y="966" on="1"/>
        <pt x="1164" y="966" on="1"/>
        <pt x="1177" y="1215" on="1"/>
        <pt x="1149" y="1221" on="0"/>
        <pt x="1000" y="1233" on="0"/>
        <pt x="952" y="1233" on="1"/>
        <pt x="893" y="1233" on="1"/>
        <pt x="804" y="731" on="1"/>
        <pt x="1085" y="731" on="1"/>
        <pt x="1064" y="609" on="1"/>
        <pt x="783" y="609" on="1"/>
        <pt x="693" y="100" on="1"/>
        <pt x="901" y="73" on="1"/>
        <pt x="889" y="0" on="1"/>
      </contour>
    </TTGlyph>
    <TTGlyph name="Tcaron" xMin="149" yMin="0" xMax="1318" yMax="1778">
      <component glyphName="T" x="0" y="0" flags="0x204"/>
      <component glyphName="caron" x="333" y="334" flags="0x4"/>
    </TTGlyph>
    <TTGlyph name="Theta" xMin="74" yMin="-20" xMax="1503" yMax="1356">
      <contour>
        <pt x="1202" y="843" on="1"/>
        <pt x="1202" y="1033" on="0"/>
        <pt x="1034" y="1251" on="0"/>
        <pt x="882" y="1251" on="1"/>
        <pt x="747" y="1251" on="0"/>
        <pt x="521" y="1054" on="0"/>
        <pt x="375" y="676" on="0"/>
        <pt x="375" y="485" on="1"/>
        <pt x="375" y="297" on="0"/>
        <pt x="539" y="83" on="0"/>
        <pt x="688" y="83" on="1"/>
        <pt x="826" y="83" on="0"/>
        <pt x="1054" y="279" on="0"/>
        <pt x="1202" y="654" on="0"/>
      </contour>
      <contour>
        <pt x="673" y="-20" on="1"/>
        <pt x="406" y="-20" on="0"/>
        <pt x="74" y="282" on="0"/>
        <pt x="74" y="524" on="1"/>
        <pt x="74" y="768" on="0"/>
        <pt x="286" y="1153" on="0"/>
        <pt x="662" y="1356" on="0"/>
        <pt x="904" y="1356" on="1"/>
        <pt x="1079" y="1356" on="0"/>
        <pt x="1353" y="1219" on="0"/>
        <pt x="1503" y="970" on="0"/>
        <pt x="1503" y="812" on="1"/>
        <pt x="1503" y="571" on="0"/>
        <pt x="1289" y="179" on="0"/>
        <pt x="919" y="-20" on="0"/>
      </contour>
      <contour>
        <pt x="955" y="780" on="1"/>
        <pt x="1001" y="882" on="1"/>
        <pt x="1069" y="882" on="1"/>
        <pt x="989" y="470" on="1"/>
        <pt x="921" y="470" on="1"/>
        <pt x="915" y="570" on="1"/>
        <pt x="622" y="570" on="1"/>
        <pt x="576" y="470" on="1"/>
        <pt x="508" y="470" on="1"/>
        <pt x="588" y="882" on="1"/>
        <pt x="656" y="882" on="1"/>
        <pt x="662" y="780" on="1"/>
      </contour>
    </TTGlyph>
    <TTGlyph name="Thorn" xMin="-15" yMin="0" xMax="1202" yMax="1341">
      <contour>
        <pt x="564" y="378" on="1"/>
        <pt x="909" y="378" on="0"/>
        <pt x="909" y="715" on="1"/>
        <pt x="909" y="847" on="0"/>
        <pt x="788" y="973" on="0"/>
        <pt x="665" y="973" on="1"/>
        <pt x="623" y="973" on="1"/>
        <pt x="518" y="378" on="1"/>
      </contour>
      <contour>
        <pt x="751" y="1083" on="1"/>
        <pt x="970" y="1083" on="0"/>
        <pt x="1202" y="901" on="0"/>
        <pt x="1202" y="728" on="1"/>
        <pt x="1202" y="503" on="0"/>
        <pt x="911" y="268" on="0"/>
        <pt x="643" y="268" on="1"/>
        <pt x="498" y="268" on="1"/>
        <pt x="469" y="100" on="1"/>
        <pt x="637" y="74" on="1"/>
        <pt x="624" y="0" on="1"/>
        <pt x="-15" y="0" on="1"/>
        <pt x="-2" y="74" on="1"/>
        <pt x="174" y="100" on="1"/>
        <pt x="375" y="1241" on="1"/>
        <pt x="208" y="1268" on="1"/>
        <pt x="221" y="1341" on="1"/>
        <pt x="860" y="1341" on="1"/>
        <pt x="847" y="1268" on="1"/>
        <pt x="670" y="1241" on="1"/>
        <pt x="642" y="1083" on="1"/>
      </contour>
    </TTGlyph>
    <TTGlyph name="U" xMin="167" yMin="-19" xMax="1567" yMax="1341">
      <contour>
        <pt x="167" y="1268" on="1"/>
        <pt x="180" y="1341" on="1"/>
        <pt x="799" y="1341" on="1"/>
        <pt x="786" y="1268" on="1"/>
        <pt x="609" y="1242" on="1"/>
        <pt x="496" y="586" on="1"/>
        <pt x="473" y="456" on="0"/>
        <pt x="473" y="389" on="1"/>
        <pt x="473" y="122" on="0"/>
        <pt x="740" y="122" on="1"/>
        <pt x="901" y="122" on="0"/>
        <pt x="1106" y="296" on="0"/>
        <pt x="1136" y="463" on="1"/>
        <pt x="1273" y="1242" on="1"/>
        <pt x="1098" y="1268" on="1"/>
        <pt x="1111" y="1341" on="1"/>
        <pt x="1567" y="1341" on="1"/>
        <pt x="1554" y="1268" on="1"/>
        <pt x="1397" y="1242" on="1"/>
        <pt x="1262" y="471" on="1"/>
        <pt x="1217" y="218" on="0"/>
        <pt x="932" y="-19" on="0"/>
        <pt x="689" y="-19" on="1"/>
        <pt x="445" y="-19" on="0"/>
        <pt x="180" y="198" on="0"/>
        <pt x="180" y="399" on="1"/>
        <pt x="180" y="463" on="0"/>
        <pt x="200" y="583" on="1"/>
        <pt x="314" y="1242" on="1"/>
      </contour>
    </TTGlyph>
    <TTGlyph name="UNI2206" xMin="-68" yMin="0" xMax="1108" yMax="1352">
      <contour>
        <pt x="1092" y="0" on="1"/>
        <pt x="-68" y="0" on="1"/>
        <pt x="-53" y="80" on="1"/>
        <pt x="710" y="1352" on="1"/>
        <pt x="900" y="1352" on="1"/>
        <pt x="1108" y="80" on="1"/>
      </contour>
      <contour>
        <pt x="660" y="1060" on="1"/>
        <pt x="106" y="119" on="1"/>
        <pt x="798" y="119" on="1"/>
      </contour>
    </TTGlyph>
    <TTGlyph name="Uacute" xMin="167" yMin="-19" xMax="1567" yMax="1757">
      <component glyphName="U" x="0" y="0" flags="0x204"/>
      <component glyphName="acute" x="544" y="334" flags="0x4"/>
    </TTGlyph>
    <TTGlyph name="Ubreve" xMin="167" yMin="-19" xMax="1567" yMax="1775">
      <component glyphName="U" x="0" y="0" flags="0x204"/>
      <component glyphName="breve" x="459" y="334" flags="0x4"/>
    </TTGlyph>
    <TTGlyph name="Ucircumflex" xMin="167" yMin="-19" xMax="1567" yMax="1778">
      <component glyphName="U" x="0" y="0" flags="0x204"/>
      <component glyphName="circumflex" x="513" y="334" flags="0x4"/>
    </TTGlyph>
    <TTGlyph name="Udieresis" xMin="167" yMin="-19" xMax="1567" yMax="1704">
      <component glyphName="U" x="0" y="0" flags="0x204"/>
      <component glyphName="dieresis" x="507" y="334" flags="0x4"/>
    </TTGlyph>
    <TTGlyph name="Ugrave" xMin="167" yMin="-19" xMax="1567" yMax="1757">
      <component glyphName="U" x="0" y="0" flags="0x204"/>
      <component glyphName="grave" x="414" y="334" flags="0x4"/>
    </TTGlyph>
    <TTGlyph name="Uhorn" xMin="167" yMin="-19" xMax="1725" yMax="1485">
      <contour>
        <pt x="167" y="1268" on="1"/>
        <pt x="180" y="1341" on="1"/>
        <pt x="799" y="1341" on="1"/>
        <pt x="786" y="1268" on="1"/>
        <pt x="609" y="1242" on="1"/>
        <pt x="496" y="586" on="1"/>
        <pt x="473" y="456" on="0"/>
        <pt x="473" y="389" on="1"/>
        <pt x="473" y="122" on="0"/>
        <pt x="735" y="122" on="1"/>
        <pt x="895" y="122" on="0"/>
        <pt x="1096" y="295" on="0"/>
        <pt x="1126" y="463" on="1"/>
        <pt x="1263" y="1242" on="1"/>
        <pt x="1088" y="1268" on="1"/>
        <pt x="1101" y="1341" on="1"/>
        <pt x="1405" y="1341" on="1"/>
        <pt x="1353" y="1051" on="1"/>
        <pt x="1446" y="1073" on="0"/>
        <pt x="1561" y="1161" on="0"/>
        <pt x="1561" y="1213" on="1"/>
        <pt x="1561" y="1238" on="0"/>
        <pt x="1526" y="1263" on="0"/>
        <pt x="1483" y="1292" on="0"/>
        <pt x="1448" y="1336" on="0"/>
        <pt x="1448" y="1379" on="1"/>
        <pt x="1448" y="1431" on="0"/>
        <pt x="1520" y="1485" on="0"/>
        <pt x="1576" y="1485" on="1"/>
        <pt x="1642" y="1485" on="0"/>
        <pt x="1725" y="1400" on="0"/>
        <pt x="1725" y="1329" on="1"/>
        <pt x="1725" y="1196" on="0"/>
        <pt x="1533" y="1020" on="0"/>
        <pt x="1339" y="968" on="1"/>
        <pt x="1252" y="471" on="1"/>
        <pt x="1207" y="218" on="0"/>
        <pt x="928" y="-19" on="0"/>
        <pt x="684" y="-19" on="1"/>
        <pt x="443" y="-19" on="0"/>
        <pt x="180" y="196" on="0"/>
        <pt x="180" y="399" on="1"/>
        <pt x="180" y="463" on="0"/>
        <pt x="200" y="583" on="1"/>
        <pt x="314" y="1242" on="1"/>
      </contour>
    </TTGlyph>
    <TTGlyph name="Umacron" xMin="167" yMin="-19" xMax="1567" yMax="1635">
      <component glyphName="U" x="0" y="0" flags="0x204"/>
      <component glyphName="uni02C9" x="476" y="334" flags="0x4"/>
    </TTGlyph>
    <TTGlyph name="Uogonek" xMin="167" yMin="-430" xMax="1567" yMax="1341">
      <component glyphName="U" x="0" y="0" flags="0x204"/>
      <component glyphName="ogonek" x="536" y="0" flags="0x4"/>
    </TTGlyph>
    <TTGlyph name="Upsilon" xMin="105" yMin="0" xMax="1408" yMax="1341">
      <component glyphName="Y" x="0" y="0" flags="0x204"/>
    </TTGlyph>
    <TTGlyph name="Upsilondieresis" xMin="105" yMin="0" xMax="1408" yMax="1704">
      <component glyphName="Y" x="0" y="0" flags="0x204"/>
      <component glyphName="dieresis" x="431" y="334" flags="0x4"/>
    </TTGlyph>
    <TTGlyph name="Upsilontonos" xMin="-59" yMin="0" xMax="1693" yMax="1342">
      <component glyphName="Y" x="285" y="0" flags="0x4"/>
      <component glyphName="tonos" x="-287" y="-170" flags="0x4"/>
    </TTGlyph>
    <TTGlyph name="Uring" xMin="167" yMin="-19" xMax="1567" yMax="1817">
      <component glyphName="U" x="0" y="0" flags="0x204"/>
      <component glyphName="ring" x="479" y="334" flags="0x4"/>
    </TTGlyph>
    <TTGlyph name="Utilde" xMin="167" yMin="-19" xMax="1567" yMax="1729">
      <component glyphName="U" x="0" y="0" flags="0x204"/>
      <component glyphName="tilde" x="482" y="334" flags="0x4"/>
    </TTGlyph>
    <TTGlyph name="V" xMin="120" yMin="-31" xMax="1505" yMax="1341">
      <contour>
        <pt x="1505" y="1341" on="1"/>
        <pt x="1493" y="1268" on="1"/>
        <pt x="1361" y="1241" on="1"/>
        <pt x="639" y="-31" on="1"/>
        <pt x="526" y="-31" on="1"/>
        <pt x="225" y="1241" on="1"/>
        <pt x="120" y="1268" on="1"/>
        <pt x="132" y="1341" on="1"/>
        <pt x="679" y="1341" on="1"/>
        <pt x="667" y="1268" on="1"/>
        <pt x="523" y="1241" on="1"/>
        <pt x="725" y="362" on="1"/>
        <pt x="1212" y="1241" on="1"/>
        <pt x="1082" y="1268" on="1"/>
        <pt x="1094" y="1341" on="1"/>
      </contour>
    </TTGlyph>
    <TTGlyph name="W" xMin="141" yMin="-31" xMax="1941" yMax="1341">
      <contour>
        <pt x="1214" y="-31" on="1"/>
        <pt x="1120" y="-31" on="1"/>
        <pt x="962" y="817" on="1"/>
        <pt x="560" y="-31" on="1"/>
        <pt x="459" y="-31" on="1"/>
        <pt x="271" y="1242" on="1"/>
        <pt x="141" y="1268" on="1"/>
        <pt x="154" y="1341" on="1"/>
        <pt x="718" y="1341" on="1"/>
        <pt x="705" y="1268" on="1"/>
        <pt x="543" y="1242" on="1"/>
        <pt x="649" y="428" on="1"/>
        <pt x="1046" y="1257" on="1"/>
        <pt x="1146" y="1257" on="1"/>
        <pt x="1298" y="423" on="1"/>
        <pt x="1660" y="1242" on="1"/>
        <pt x="1496" y="1268" on="1"/>
        <pt x="1509" y="1341" on="1"/>
        <pt x="1941" y="1341" on="1"/>
        <pt x="1928" y="1268" on="1"/>
        <pt x="1806" y="1242" on="1"/>
      </contour>
    </TTGlyph>
    <TTGlyph name="Wacute" xMin="141" yMin="-31" xMax="1941" yMax="1757">
      <component glyphName="W" x="0" y="0" flags="0x204"/>
      <component glyphName="acute" x="690" y="334" flags="0x4"/>
    </TTGlyph>
    <TTGlyph name="Wcircumflex" xMin="141" yMin="-31" xMax="1941" yMax="1778">
      <component glyphName="W" x="0" y="0" flags="0x204"/>
      <component glyphName="circumflex" x="644" y="334" flags="0x4"/>
    </TTGlyph>
    <TTGlyph name="Wdieresis" xMin="141" yMin="-31" xMax="1941" yMax="1704">
      <component glyphName="W" x="0" y="0" flags="0x204"/>
      <component glyphName="dieresis" x="642" y="334" flags="0x4"/>
    </TTGlyph>
    <TTGlyph name="Wgrave" xMin="141" yMin="-31" xMax="1941" yMax="1757">
      <component glyphName="W" x="0" y="0" flags="0x204"/>
      <component glyphName="grave" x="600" y="334" flags="0x4"/>
    </TTGlyph>
    <TTGlyph name="X" xMin="-52" yMin="0" xMax="1408" yMax="1341">
      <contour>
        <pt x="257" y="100" on="1"/>
        <pt x="408" y="73" on="1"/>
        <pt x="396" y="0" on="1"/>
        <pt x="-52" y="0" on="1"/>
        <pt x="-40" y="73" on="1"/>
        <pt x="113" y="100" on="1"/>
        <pt x="574" y="635" on="1"/>
        <pt x="336" y="1242" on="1"/>
        <pt x="190" y="1268" on="1"/>
        <pt x="203" y="1341" on="1"/>
        <pt x="816" y="1341" on="1"/>
        <pt x="803" y="1268" on="1"/>
        <pt x="638" y="1242" on="1"/>
        <pt x="781" y="875" on="1"/>
        <pt x="1097" y="1242" on="1"/>
        <pt x="946" y="1268" on="1"/>
        <pt x="959" y="1341" on="1"/>
        <pt x="1408" y="1341" on="1"/>
        <pt x="1395" y="1268" on="1"/>
        <pt x="1242" y="1242" on="1"/>
        <pt x="826" y="760" on="1"/>
        <pt x="1085" y="100" on="1"/>
        <pt x="1232" y="73" on="1"/>
        <pt x="1220" y="0" on="1"/>
        <pt x="607" y="0" on="1"/>
        <pt x="619" y="73" on="1"/>
        <pt x="784" y="100" on="1"/>
        <pt x="619" y="520" on="1"/>
      </contour>
    </TTGlyph>
    <TTGlyph name="Xi" xMin="6" yMin="0" xMax="1330" yMax="1341">
      <contour>
        <pt x="912" y="780" on="1"/>
        <pt x="957" y="882" on="1"/>
        <pt x="1025" y="882" on="1"/>
        <pt x="941" y="450" on="1"/>
        <pt x="873" y="450" on="1"/>
        <pt x="871" y="570" on="1"/>
        <pt x="474" y="570" on="1"/>
        <pt x="424" y="450" on="1"/>
        <pt x="356" y="450" on="1"/>
        <pt x="440" y="882" on="1"/>
        <pt x="508" y="882" on="1"/>
        <pt x="515" y="780" on="1"/>
      </contour>
      <contour>
        <pt x="655" y="1118" on="1"/>
        <pt x="480" y="1118" on="0"/>
        <pt x="368" y="1104" on="1"/>
        <pt x="300" y="940" on="1"/>
        <pt x="217" y="940" on="1"/>
        <pt x="315" y="1341" on="1"/>
        <pt x="1330" y="1341" on="1"/>
        <pt x="1272" y="940" on="1"/>
        <pt x="1189" y="940" on="1"/>
        <pt x="1185" y="1104" on="1"/>
        <pt x="1077" y="1118" on="0"/>
        <pt x="904" y="1118" on="1"/>
      </contour>
      <contour>
        <pt x="748" y="243" on="1"/>
        <pt x="984" y="243" on="0"/>
        <pt x="1069" y="259" on="1"/>
        <pt x="1141" y="444" on="1"/>
        <pt x="1224" y="444" on="1"/>
        <pt x="1120" y="0" on="1"/>
        <pt x="6" y="0" on="1"/>
        <pt x="72" y="444" on="1"/>
        <pt x="154" y="444" on="1"/>
        <pt x="154" y="259" on="1"/>
        <pt x="234" y="243" on="0"/>
        <pt x="459" y="243" on="1"/>
      </contour>
    </TTGlyph>
    <TTGlyph name="Y" xMin="105" yMin="0" xMax="1408" yMax="1341">
      <contour>
        <pt x="702" y="100" on="1"/>
        <pt x="910" y="73" on="1"/>
        <pt x="898" y="0" on="1"/>
        <pt x="176" y="0" on="1"/>
        <pt x="188" y="73" on="1"/>
        <pt x="406" y="100" on="1"/>
        <pt x="485" y="542" on="1"/>
        <pt x="251" y="1242" on="1"/>
        <pt x="105" y="1268" on="1"/>
        <pt x="118" y="1341" on="1"/>
        <pt x="754" y="1341" on="1"/>
        <pt x="741" y="1268" on="1"/>
        <pt x="556" y="1242" on="1"/>
        <pt x="734" y="686" on="1"/>
        <pt x="1098" y="1242" on="1"/>
        <pt x="939" y="1268" on="1"/>
        <pt x="952" y="1341" on="1"/>
        <pt x="1408" y="1341" on="1"/>
        <pt x="1395" y="1268" on="1"/>
        <pt x="1248" y="1242" on="1"/>
        <pt x="782" y="548" on="1"/>
      </contour>
    </TTGlyph>
    <TTGlyph name="Yacute" xMin="105" yMin="0" xMax="1408" yMax="1757">
      <component glyphName="Y" x="0" y="0" flags="0x204"/>
      <component glyphName="acute" x="454" y="334" flags="0x4"/>
    </TTGlyph>
    <TTGlyph name="Ycircumflex" xMin="105" yMin="0" xMax="1408" yMax="1778">
      <component glyphName="Y" x="0" y="0" flags="0x204"/>
      <component glyphName="circumflex" x="358" y="334" flags="0x4"/>
    </TTGlyph>
    <TTGlyph name="Ydieresis" xMin="105" yMin="0" xMax="1408" yMax="1771">
      <component glyphName="Y" x="0" y="0" flags="0x204"/>
      <component glyphName="dieresis" x="395" y="401" flags="0x4"/>
    </TTGlyph>
    <TTGlyph name="Ygrave" xMin="105" yMin="0" xMax="1408" yMax="1757">
      <component glyphName="Y" x="0" y="0" flags="0x204"/>
      <component glyphName="grave" x="325" y="334" flags="0x4"/>
    </TTGlyph>
    <TTGlyph name="Z" xMin="-5" yMin="0" xMax="1199" yMax="1341">
      <contour>
        <pt x="841" y="1235" on="1"/>
        <pt x="649" y="1235" on="1"/>
        <pt x="550" y="1235" on="0"/>
        <pt x="388" y="1222" on="0"/>
        <pt x="356" y="1215" on="1"/>
        <pt x="288" y="1004" on="1"/>
        <pt x="199" y="1004" on="1"/>
        <pt x="258" y="1341" on="1"/>
        <pt x="1199" y="1341" on="1"/>
        <pt x="1180" y="1235" on="1"/>
        <pt x="357" y="104" on="1"/>
        <pt x="544" y="104" on="1"/>
        <pt x="653" y="104" on="0"/>
        <pt x="890" y="127" on="0"/>
        <pt x="934" y="137" on="1"/>
        <pt x="1038" y="393" on="1"/>
        <pt x="1128" y="393" on="1"/>
        <pt x="1032" y="0" on="1"/>
        <pt x="-5" y="0" on="1"/>
        <pt x="15" y="114" on="1"/>
      </contour>
    </TTGlyph>
    <TTGlyph name="Zacute" xMin="-5" yMin="0" xMax="1199" yMax="1757">
      <component glyphName="Z" x="0" y="0" flags="0x204"/>
      <component glyphName="acute" x="344" y="334" flags="0x4"/>
    </TTGlyph>
    <TTGlyph name="Zcaron" xMin="-5" yMin="0" xMax="1199" yMax="1778">
      <component glyphName="Z" x="0" y="0" flags="0x204"/>
      <component glyphName="caron" x="290" y="334" flags="0x4"/>
    </TTGlyph>
    <TTGlyph name="Zeta" xMin="-5" yMin="0" xMax="1199" yMax="1341">
      <component glyphName="Z" x="0" y="0" flags="0x204"/>
    </TTGlyph>
    <TTGlyph name="a" xMin="24" yMin="-21" xMax="975" yMax="964">
      <contour>
        <pt x="823" y="90" on="1"/>
        <pt x="932" y="58" on="1"/>
        <pt x="924" y="0" on="1"/>
        <pt x="577" y="0" on="1"/>
        <pt x="573" y="138" on="1"/>
        <pt x="514" y="64" on="0"/>
        <pt x="365" y="-21" on="0"/>
        <pt x="288" y="-21" on="1"/>
        <pt x="163" y="-21" on="0"/>
        <pt x="24" y="159" on="0"/>
        <pt x="24" y="319" on="1"/>
        <pt x="24" y="494" on="0"/>
        <pt x="170" y="793" on="0"/>
        <pt x="431" y="964" on="0"/>
        <pt x="588" y="964" on="1"/>
        <pt x="726" y="964" on="0"/>
        <pt x="839" y="919" on="1"/>
        <pt x="921" y="956" on="1"/>
        <pt x="975" y="956" on="1"/>
      </contour>
      <contour>
        <pt x="287" y="351" on="1"/>
        <pt x="287" y="248" on="0"/>
        <pt x="356" y="127" on="0"/>
        <pt x="408" y="127" on="1"/>
        <pt x="448" y="127" on="0"/>
        <pt x="546" y="207" on="0"/>
        <pt x="585" y="266" on="1"/>
        <pt x="684" y="829" on="1"/>
        <pt x="639" y="863" on="0"/>
        <pt x="560" y="863" on="1"/>
        <pt x="486" y="863" on="0"/>
        <pt x="360" y="722" on="0"/>
        <pt x="287" y="481" on="0"/>
      </contour>
    </TTGlyph>
    <TTGlyph name="aacute" xMin="24" yMin="-21" xMax="1030" yMax="1423">
      <component glyphName="a" x="0" y="0" flags="0x204"/>
      <component glyphName="acute" x="290" y="0" flags="0x4"/>
    </TTGlyph>
    <TTGlyph name="abreve" xMin="24" yMin="-21" xMax="975" yMax="1441">
      <component glyphName="a" x="0" y="0" flags="0x204"/>
      <component glyphName="breve" x="140" y="0" flags="0x4"/>
    </TTGlyph>
    <TTGlyph name="acircumflex" xMin="24" yMin="-21" xMax="975" yMax="1444">
      <component glyphName="a" x="0" y="0" flags="0x204"/>
      <component glyphName="circumflex" x="192" y="0" flags="0x4"/>
    </TTGlyph>
    <TTGlyph name="acute" xMin="253" yMin="1118" xMax="740" yMax="1423">
      <contour>
        <pt x="253" y="1118" on="1"/>
        <pt x="259" y="1151" on="1"/>
        <pt x="455" y="1423" on="1"/>
        <pt x="740" y="1423" on="1"/>
        <pt x="736" y="1386" on="1"/>
        <pt x="339" y="1118" on="1"/>
      </contour>
    </TTGlyph>
    <TTGlyph name="acute.alt1" xMin="253" yMin="1118" xMax="740" yMax="1423">
      <component glyphName="acute" x="0" y="0" flags="0x4"/>
    </TTGlyph>
    <TTGlyph name="acute.alt2" xMin="253" yMin="1118" xMax="740" yMax="1423">
      <component glyphName="acute" x="0" y="0" flags="0x4"/>
    </TTGlyph>
    <TTGlyph name="acute.alt3" xMin="253" yMin="1118" xMax="740" yMax="1423">
      <component glyphName="acute" x="0" y="0" flags="0x4"/>
    </TTGlyph>
    <TTGlyph name="acute.alt4" xMin="253" yMin="1118" xMax="740" yMax="1423">
      <component glyphName="acute" x="0" y="0" flags="0x4"/>
    </TTGlyph>
    <TTGlyph name="acute.alt5" xMin="253" yMin="1118" xMax="740" yMax="1423">
      <component glyphName="acute" x="0" y="0" flags="0x4"/>
    </TTGlyph>
    <TTGlyph name="acutecomb" xMin="-463" yMin="1520" xMax="24" yMax="1825">
      <contour>
        <pt x="-463" y="1520" on="1"/>
        <pt x="-457" y="1553" on="1"/>
        <pt x="-261" y="1825" on="1"/>
        <pt x="24" y="1825" on="1"/>
        <pt x="20" y="1788" on="1"/>
        <pt x="-377" y="1520" on="1"/>
      </contour>
    </TTGlyph>
    <TTGlyph name="adieresis" xMin="24" yMin="-21" xMax="975" yMax="1370">
      <component glyphName="a" x="0" y="0" flags="0x204"/>
      <component glyphName="dieresis" x="169" y="0" flags="0x4"/>
    </TTGlyph>
    <TTGlyph name="ae" xMin="26" yMin="-21" xMax="1434" yMax="965">
      <contour>
        <pt x="901" y="508" on="1"/>
        <pt x="984" y="517" on="0"/>
        <pt x="1123" y="596" on="0"/>
        <pt x="1200" y="712" on="0"/>
        <pt x="1200" y="773" on="1"/>
        <pt x="1200" y="815" on="0"/>
        <pt x="1151" y="857" on="0"/>
        <pt x="1123" y="857" on="1"/>
        <pt x="1052" y="857" on="0"/>
        <pt x="922" y="647" on="0"/>
      </contour>
      <contour>
        <pt x="887" y="895" on="1"/>
        <pt x="938" y="929" on="0"/>
        <pt x="1073" y="965" on="0"/>
        <pt x="1135" y="965" on="1"/>
        <pt x="1275" y="965" on="0"/>
        <pt x="1434" y="853" on="0"/>
        <pt x="1434" y="760" on="1"/>
        <pt x="1434" y="671" on="0"/>
        <pt x="1300" y="519" on="0"/>
        <pt x="1049" y="421" on="0"/>
        <pt x="887" y="408" on="1"/>
        <pt x="882" y="388" on="0"/>
        <pt x="882" y="340" on="1"/>
        <pt x="882" y="227" on="0"/>
        <pt x="981" y="104" on="0"/>
        <pt x="1073" y="104" on="1"/>
        <pt x="1124" y="104" on="0"/>
        <pt x="1227" y="139" on="0"/>
        <pt x="1316" y="198" on="1"/>
        <pt x="1360" y="135" on="1"/>
        <pt x="1273" y="62" on="0"/>
        <pt x="1067" y="-20" on="0"/>
        <pt x="971" y="-20" on="1"/>
        <pt x="716" y="-20" on="0"/>
        <pt x="644" y="158" on="1"/>
        <pt x="566" y="66" on="0"/>
        <pt x="404" y="-21" on="0"/>
        <pt x="310" y="-21" on="1"/>
        <pt x="182" y="-21" on="0"/>
        <pt x="26" y="162" on="0"/>
        <pt x="26" y="319" on="1"/>
        <pt x="26" y="491" on="0"/>
        <pt x="179" y="790" on="0"/>
        <pt x="450" y="964" on="0"/>
        <pt x="610" y="964" on="1"/>
        <pt x="666" y="964" on="0"/>
        <pt x="821" y="927" on="0"/>
      </contour>
      <contour>
        <pt x="623" y="264" on="1"/>
        <pt x="620" y="330" on="1"/>
        <pt x="620" y="455" on="0"/>
        <pt x="704" y="697" on="0"/>
        <pt x="777" y="788" on="1"/>
        <pt x="725" y="826" on="0"/>
        <pt x="619" y="863" on="0"/>
        <pt x="582" y="863" on="1"/>
        <pt x="507" y="863" on="0"/>
        <pt x="372" y="720" on="0"/>
        <pt x="289" y="477" on="0"/>
        <pt x="289" y="351" on="1"/>
        <pt x="289" y="244" on="0"/>
        <pt x="359" y="127" on="0"/>
        <pt x="422" y="127" on="1"/>
        <pt x="466" y="127" on="0"/>
        <pt x="589" y="213" on="0"/>
      </contour>
    </TTGlyph>
    <TTGlyph name="aeacute" xMin="26" yMin="-21" xMax="1434" yMax="1423">
      <component glyphName="ae" x="0" y="0" flags="0x204"/>
      <component glyphName="acute" x="455" y="0" flags="0x4"/>
    </TTGlyph>
    <TTGlyph name="agrave" xMin="24" yMin="-21" xMax="975" yMax="1423">
      <component glyphName="a" x="0" y="0" flags="0x204"/>
      <component glyphName="grave" x="167" y="0" flags="0x4"/>
    </TTGlyph>
    <TTGlyph name="alef" xMin="-18" yMin="-27" xMax="1317" yMax="1212">
      <contour>
        <pt x="1317" y="1040" on="1"/>
        <pt x="1317" y="948" on="0"/>
        <pt x="1264" y="868" on="1"/>
        <pt x="1248" y="888" on="0"/>
        <pt x="1226" y="901" on="0"/>
        <pt x="1212" y="901" on="1"/>
        <pt x="1174" y="901" on="0"/>
        <pt x="1011" y="804" on="0"/>
        <pt x="867" y="669" on="0"/>
        <pt x="827" y="600" on="1"/>
        <pt x="1053" y="332" on="1"/>
        <pt x="1102" y="271" on="0"/>
        <pt x="1130" y="219" on="0"/>
        <pt x="1130" y="193" on="1"/>
        <pt x="1130" y="163" on="0"/>
        <pt x="1067" y="60" on="0"/>
        <pt x="972" y="-27" on="0"/>
        <pt x="938" y="-27" on="1"/>
        <pt x="924" y="-27" on="0"/>
        <pt x="918" y="6" on="1"/>
        <pt x="903" y="70" on="0"/>
        <pt x="840" y="152" on="1"/>
        <pt x="414" y="700" on="1"/>
        <pt x="324" y="635" on="0"/>
        <pt x="264" y="550" on="0"/>
        <pt x="264" y="492" on="1"/>
        <pt x="264" y="410" on="0"/>
        <pt x="347" y="301" on="1"/>
        <pt x="430" y="192" on="0"/>
        <pt x="430" y="121" on="1"/>
        <pt x="430" y="63" on="0"/>
        <pt x="383" y="0" on="1"/>
        <pt x="-18" y="0" on="1"/>
        <pt x="-4" y="84" on="1"/>
        <pt x="102" y="84" on="1"/>
        <pt x="152" y="84" on="0"/>
        <pt x="152" y="141" on="1"/>
        <pt x="152" y="163" on="0"/>
        <pt x="131" y="215" on="0"/>
        <pt x="107" y="277" on="0"/>
        <pt x="86" y="352" on="0"/>
        <pt x="86" y="399" on="1"/>
        <pt x="86" y="516" on="0"/>
        <pt x="202" y="674" on="0"/>
        <pt x="324" y="743" on="1"/>
        <pt x="365" y="768" on="1"/>
        <pt x="258" y="897" on="1"/>
        <pt x="213" y="951" on="0"/>
        <pt x="213" y="997" on="1"/>
        <pt x="213" y="1033" on="0"/>
        <pt x="285" y="1134" on="0"/>
        <pt x="376" y="1212" on="0"/>
        <pt x="401" y="1212" on="1"/>
        <pt x="418" y="1212" on="0"/>
        <pt x="418" y="1188" on="1"/>
        <pt x="418" y="1162" on="0"/>
        <pt x="452" y="1092" on="0"/>
        <pt x="523" y="993" on="0"/>
        <pt x="756" y="690" on="1"/>
        <pt x="890" y="836" on="0"/>
        <pt x="1047" y="905" on="1"/>
        <pt x="967" y="908" on="0"/>
        <pt x="967" y="1016" on="1"/>
        <pt x="967" y="1068" on="0"/>
        <pt x="998" y="1152" on="0"/>
        <pt x="1050" y="1204" on="0"/>
        <pt x="1073" y="1204" on="1"/>
        <pt x="1079" y="1204" on="0"/>
        <pt x="1079" y="1196" on="1"/>
        <pt x="1075" y="1165" on="1"/>
        <pt x="1075" y="1130" on="0"/>
        <pt x="1130" y="1130" on="1"/>
        <pt x="1223" y="1133" on="1"/>
        <pt x="1267" y="1133" on="0"/>
        <pt x="1317" y="1084" on="0"/>
      </contour>
    </TTGlyph>
    <TTGlyph name="alefdagesh" xMin="-18" yMin="-27" xMax="1317" yMax="1212">
      <component glyphName="alef" x="0" y="0" flags="0x204"/>
      <component glyphName="dagesh" x="596" y="-548" flags="0x4"/>
    </TTGlyph>
    <TTGlyph name="aleflamed" xMin="104" yMin="-27" xMax="1319" yMax="1681">
      <contour>
        <pt x="104" y="1001" on="1"/>
        <pt x="104" y="1183" on="0"/>
        <pt x="197" y="1327" on="1"/>
        <pt x="209" y="1345" on="0"/>
        <pt x="209" y="1370" on="1"/>
        <pt x="209" y="1386" on="0"/>
        <pt x="185" y="1401" on="0"/>
        <pt x="157" y="1419" on="0"/>
        <pt x="133" y="1448" on="0"/>
        <pt x="133" y="1479" on="1"/>
        <pt x="133" y="1530" on="0"/>
        <pt x="170" y="1620" on="0"/>
        <pt x="226" y="1681" on="0"/>
        <pt x="248" y="1681" on="1"/>
        <pt x="268" y="1681" on="0"/>
        <pt x="268" y="1665" on="1"/>
        <pt x="266" y="1653" on="1"/>
        <pt x="266" y="1630" on="0"/>
        <pt x="315" y="1620" on="1"/>
        <pt x="379" y="1604" on="0"/>
        <pt x="432" y="1579" on="0"/>
        <pt x="432" y="1556" on="1"/>
        <pt x="432" y="1538" on="0"/>
        <pt x="404" y="1492" on="0"/>
        <pt x="362" y="1444" on="1"/>
        <pt x="240" y="1306" on="0"/>
        <pt x="240" y="1186" on="1"/>
        <pt x="240" y="1157" on="0"/>
        <pt x="273" y="1135" on="0"/>
        <pt x="319" y="1135" on="1"/>
        <pt x="422" y="1135" on="1"/>
        <pt x="453" y="1135" on="0"/>
        <pt x="480" y="1118" on="0"/>
        <pt x="489" y="1083" on="1"/>
        <pt x="497" y="1046" on="0"/>
        <pt x="554" y="928" on="0"/>
        <pt x="600" y="866" on="1"/>
        <pt x="745" y="678" on="1"/>
        <pt x="889" y="832" on="0"/>
        <pt x="1047" y="905" on="1"/>
        <pt x="1008" y="907" on="0"/>
        <pt x="969" y="958" on="0"/>
        <pt x="969" y="1016" on="1"/>
        <pt x="969" y="1068" on="0"/>
        <pt x="1000" y="1152" on="0"/>
        <pt x="1052" y="1204" on="0"/>
        <pt x="1075" y="1204" on="1"/>
        <pt x="1081" y="1204" on="0"/>
        <pt x="1081" y="1196" on="1"/>
        <pt x="1077" y="1165" on="1"/>
        <pt x="1077" y="1130" on="0"/>
        <pt x="1133" y="1130" on="1"/>
        <pt x="1225" y="1133" on="1"/>
        <pt x="1269" y="1133" on="0"/>
        <pt x="1319" y="1084" on="0"/>
        <pt x="1319" y="1040" on="1"/>
        <pt x="1319" y="1004" on="0"/>
        <pt x="1291" y="907" on="0"/>
        <pt x="1266" y="868" on="1"/>
        <pt x="1250" y="888" on="0"/>
        <pt x="1228" y="901" on="0"/>
        <pt x="1214" y="901" on="1"/>
        <pt x="1179" y="901" on="0"/>
        <pt x="1016" y="805" on="0"/>
        <pt x="869" y="664" on="0"/>
        <pt x="819" y="584" on="1"/>
        <pt x="1040" y="315" on="1"/>
        <pt x="1087" y="259" on="0"/>
        <pt x="1121" y="201" on="0"/>
        <pt x="1122" y="176" on="1"/>
        <pt x="1122" y="138" on="0"/>
        <pt x="1055" y="49" on="0"/>
        <pt x="970" y="-27" on="0"/>
        <pt x="944" y="-27" on="1"/>
        <pt x="932" y="-27" on="0"/>
        <pt x="923" y="-12" on="0"/>
        <pt x="920" y="2" on="1"/>
        <pt x="908" y="63" on="0"/>
        <pt x="842" y="152" on="1"/>
        <pt x="299" y="854" on="1"/>
        <pt x="276" y="883" on="0"/>
        <pt x="238" y="901" on="0"/>
        <pt x="190" y="903" on="1"/>
        <pt x="138" y="903" on="0"/>
        <pt x="104" y="949" on="0"/>
      </contour>
    </TTGlyph>
    <TTGlyph name="aleflamedhatafsegol" xMin="104" yMin="-449" xMax="1319" yMax="1681">
      <component glyphName="aleflamed" x="0" y="0" flags="0x204"/>
      <component glyphName="hatafsegol" x="625" y="0" flags="0x4"/>
    </TTGlyph>
    <TTGlyph name="aleflamedsegol" xMin="104" yMin="-434" xMax="1319" yMax="1681">
      <component glyphName="aleflamed" x="0" y="0" flags="0x204"/>
      <component glyphName="segol" x="645" y="0" flags="0x4"/>
    </TTGlyph>
    <TTGlyph name="aleflamedtsere" xMin="104" yMin="-350" xMax="1319" yMax="1681">
      <component glyphName="aleflamed" x="0" y="0" flags="0x204"/>
      <component glyphName="tsere" x="647" y="12" flags="0x4"/>
    </TTGlyph>
    <TTGlyph name="alefmapiq" xMin="-18" yMin="-27" xMax="1317" yMax="1212">
      <component glyphName="alef" x="0" y="0" flags="0x204"/>
      <component glyphName="dagesh" x="596" y="-548" flags="0x4"/>
    </TTGlyph>
    <TTGlyph name="alefpatah" xMin="-18" yMin="-264" xMax="1317" yMax="1212">
      <component glyphName="alef" x="0" y="0" flags="0x204"/>
      <component glyphName="patah" x="696" y="0" flags="0x4"/>
    </TTGlyph>
    <TTGlyph name="alefqamats" xMin="-18" yMin="-381" xMax="1317" yMax="1212">
      <component glyphName="alef" x="0" y="0" flags="0x204"/>
      <component glyphName="qamats" x="696" y="0" flags="0x4"/>
    </TTGlyph>
    <TTGlyph name="alefwide" xMin="-18" yMin="-27" xMax="1317" yMax="1212">
      <component glyphName="alef" x="0" y="0" flags="0x204"/>
    </TTGlyph>
    <TTGlyph name="alpha" xMin="27" yMin="-21" xMax="1159" yMax="966">
      <contour>
        <pt x="1017" y="65" on="1"/>
        <pt x="1004" y="0" on="1"/>
        <pt x="721" y="0" on="1"/>
        <pt x="690" y="87" on="0"/>
        <pt x="678" y="204" on="1"/>
        <pt x="605" y="89" on="0"/>
        <pt x="449" y="-21" on="0"/>
        <pt x="351" y="-21" on="1"/>
        <pt x="202" y="-21" on="0"/>
        <pt x="27" y="177" on="0"/>
        <pt x="27" y="347" on="1"/>
        <pt x="27" y="528" on="0"/>
        <pt x="159" y="810" on="0"/>
        <pt x="396" y="966" on="0"/>
        <pt x="537" y="966" on="1"/>
        <pt x="752" y="966" on="0"/>
        <pt x="800" y="709" on="1"/>
        <pt x="892" y="940" on="1"/>
        <pt x="1159" y="940" on="1"/>
        <pt x="1151" y="900" on="1"/>
        <pt x="1114" y="860" on="0"/>
        <pt x="947" y="619" on="0"/>
        <pt x="858" y="475" on="1"/>
        <pt x="873" y="332" on="0"/>
        <pt x="916" y="138" on="0"/>
        <pt x="960" y="80" on="1"/>
      </contour>
      <contour>
        <pt x="673" y="542" on="1"/>
        <pt x="673" y="698" on="0"/>
        <pt x="599" y="866" on="0"/>
        <pt x="536" y="866" on="1"/>
        <pt x="471" y="866" on="0"/>
        <pt x="362" y="716" on="0"/>
        <pt x="293" y="447" on="0"/>
        <pt x="293" y="316" on="1"/>
        <pt x="293" y="203" on="0"/>
        <pt x="346" y="98" on="0"/>
        <pt x="387" y="98" on="1"/>
        <pt x="458" y="98" on="0"/>
        <pt x="596" y="247" on="0"/>
        <pt x="672" y="416" on="1"/>
        <pt x="673" y="482" on="1"/>
      </contour>
    </TTGlyph>
    <TTGlyph name="alphatonos" xMin="27" yMin="-21" xMax="1159" yMax="1512">
      <component glyphName="alpha" x="0" y="0" flags="0x204"/>
      <component glyphName="tonos" x="234" y="0" flags="0x4"/>
    </TTGlyph>
    <TTGlyph name="alt_plussign" xMin="63" yMin="498" xMax="1075" yMax="1128">
      <contour>
        <pt x="1036" y="498" on="1"/>
        <pt x="63" y="498" on="1"/>
        <pt x="102" y="717" on="1"/>
        <pt x="477" y="717" on="1"/>
        <pt x="551" y="1128" on="1"/>
        <pt x="770" y="1128" on="1"/>
        <pt x="696" y="717" on="1"/>
        <pt x="1075" y="717" on="1"/>
      </contour>
    </TTGlyph>
    <TTGlyph name="alternativeayin" xMin="-63" yMin="0" xMax="1106" yMax="1206">
      <component glyphName="ayin" x="0" y="0" flags="0x204"/>
    </TTGlyph>
    <TTGlyph name="alternativelamed" xMin="100" yMin="-29" xMax="895" yMax="1681">
      <component glyphName="lamed" x="0" y="0" flags="0x204"/>
    </TTGlyph>
    <TTGlyph name="amacron" xMin="24" yMin="-21" xMax="975" yMax="1301">
      <component glyphName="a" x="0" y="0" flags="0x204"/>
      <component glyphName="uni02C9" x="185" y="0" flags="0x4"/>
    </TTGlyph>
    <TTGlyph name="ampersand" xMin="50" yMin="-20" xMax="1568" yMax="1361">
      <contour>
        <pt x="1099" y="1102" on="1"/>
        <pt x="1099" y="1020" on="0"/>
        <pt x="1029" y="903" on="0"/>
        <pt x="904" y="815" on="0"/>
        <pt x="745" y="752" on="1"/>
        <pt x="1057" y="401" on="1"/>
        <pt x="1168" y="572" on="0"/>
        <pt x="1196" y="717" on="1"/>
        <pt x="1080" y="743" on="1"/>
        <pt x="1091" y="807" on="1"/>
        <pt x="1568" y="807" on="1"/>
        <pt x="1557" y="743" on="1"/>
        <pt x="1432" y="717" on="1"/>
        <pt x="1386" y="608" on="0"/>
        <pt x="1241" y="370" on="0"/>
        <pt x="1161" y="282" on="1"/>
        <pt x="1334" y="88" on="1"/>
        <pt x="1456" y="63" on="1"/>
        <pt x="1445" y="0" on="1"/>
        <pt x="1081" y="0" on="1"/>
        <pt x="980" y="120" on="1"/>
        <pt x="862" y="41" on="0"/>
        <pt x="645" y="-20" on="0"/>
        <pt x="515" y="-20" on="1"/>
        <pt x="288" y="-20" on="0"/>
        <pt x="50" y="167" on="0"/>
        <pt x="50" y="347" on="1"/>
        <pt x="50" y="447" on="0"/>
        <pt x="139" y="592" on="0"/>
        <pt x="291" y="698" on="0"/>
        <pt x="447" y="753" on="1"/>
        <pt x="361" y="889" on="0"/>
        <pt x="361" y="1037" on="1"/>
        <pt x="361" y="1185" on="0"/>
        <pt x="567" y="1361" on="0"/>
        <pt x="747" y="1361" on="1"/>
        <pt x="857" y="1361" on="0"/>
        <pt x="1015" y="1296" on="0"/>
        <pt x="1099" y="1178" on="0"/>
      </contour>
      <contour>
        <pt x="517" y="658" on="1"/>
        <pt x="431" y="614" on="0"/>
        <pt x="357" y="536" on="0"/>
        <pt x="316" y="429" on="0"/>
        <pt x="316" y="356" on="1"/>
        <pt x="316" y="242" on="0"/>
        <pt x="442" y="108" on="0"/>
        <pt x="547" y="108" on="1"/>
        <pt x="744" y="108" on="0"/>
        <pt x="886" y="228" on="1"/>
      </contour>
      <contour>
        <pt x="595" y="1071" on="1"/>
        <pt x="595" y="958" on="0"/>
        <pt x="675" y="843" on="1"/>
        <pt x="792" y="897" on="0"/>
        <pt x="879" y="1011" on="0"/>
        <pt x="879" y="1088" on="1"/>
        <pt x="879" y="1172" on="0"/>
        <pt x="804" y="1264" on="0"/>
        <pt x="747" y="1264" on="1"/>
        <pt x="673" y="1264" on="0"/>
        <pt x="595" y="1160" on="0"/>
      </contour>
    </TTGlyph>
    <TTGlyph name="anoteleia" xMin="207" yMin="511" xMax="539" yMax="843">
      <component glyphName="periodcentered" x="103" y="0" flags="0x4"/>
    </TTGlyph>
    <TTGlyph name="aogonek" xMin="24" yMin="-430" xMax="975" yMax="964">
      <component glyphName="a" x="0" y="0" flags="0x204"/>
      <component glyphName="ogonek" x="433" y="0" flags="0x4"/>
    </TTGlyph>
    <TTGlyph name="approxequal" xMin="75" yMin="289" xMax="1111" yMax="1089">
      <component glyphName="asciitilde" x="-11" y="223" flags="0x4"/>
      <component glyphName="asciitilde" x="-11" y="-192" flags="0x4"/>
    </TTGlyph>
    <TTGlyph name="aring" xMin="24" yMin="-21" xMax="975" yMax="1483">
      <component glyphName="a" x="0" y="0" flags="0x204"/>
      <component glyphName="ring" x="176" y="0" flags="0x4"/>
    </TTGlyph>
    <TTGlyph name="aringacute" xMin="24" yMin="-21" xMax="1027" yMax="1834">
      <component glyphName="a" x="0" y="0" flags="0x204"/>
      <component glyphName="acute" x="287" y="411" flags="0x4"/>
      <component glyphName="ring" x="176" y="0" flags="0x4"/>
    </TTGlyph>
    <TTGlyph name="arrowboth" xMin="418" yMin="100" xMax="1630" yMax="580">
      <contour>
        <pt x="641" y="297" on="1"/>
        <pt x="698" y="230" on="0"/>
        <pt x="760" y="100" on="1"/>
        <pt x="688" y="100" on="1"/>
        <pt x="561" y="249" on="0"/>
        <pt x="418" y="322" on="1"/>
        <pt x="418" y="358" on="1"/>
        <pt x="561" y="431" on="0"/>
        <pt x="688" y="580" on="1"/>
        <pt x="760" y="580" on="1"/>
        <pt x="698" y="450" on="0"/>
        <pt x="641" y="383" on="1"/>
        <pt x="1407" y="383" on="1"/>
        <pt x="1350" y="450" on="0"/>
        <pt x="1288" y="580" on="1"/>
        <pt x="1360" y="580" on="1"/>
        <pt x="1487" y="431" on="0"/>
        <pt x="1630" y="358" on="1"/>
        <pt x="1630" y="322" on="1"/>
        <pt x="1487" y="249" on="0"/>
        <pt x="1360" y="100" on="1"/>
        <pt x="1288" y="100" on="1"/>
        <pt x="1350" y="230" on="0"/>
        <pt x="1407" y="297" on="1"/>
      </contour>
    </TTGlyph>
    <TTGlyph name="arrowdown" xMin="272" yMin="-61" xMax="752" yMax="1151">
      <contour>
        <pt x="555" y="162" on="1"/>
        <pt x="622" y="219" on="0"/>
        <pt x="752" y="281" on="1"/>
        <pt x="752" y="209" on="1"/>
        <pt x="603" y="82" on="0"/>
        <pt x="530" y="-61" on="1"/>
        <pt x="494" y="-61" on="1"/>
        <pt x="421" y="82" on="0"/>
        <pt x="272" y="209" on="1"/>
        <pt x="272" y="281" on="1"/>
        <pt x="402" y="219" on="0"/>
        <pt x="469" y="162" on="1"/>
        <pt x="469" y="1151" on="1"/>
        <pt x="555" y="1151" on="1"/>
      </contour>
    </TTGlyph>
    <TTGlyph name="arrowleft" xMin="418" yMin="100" xMax="1630" yMax="580">
      <contour>
        <pt x="641" y="297" on="1"/>
        <pt x="698" y="230" on="0"/>
        <pt x="760" y="100" on="1"/>
        <pt x="688" y="100" on="1"/>
        <pt x="561" y="249" on="0"/>
        <pt x="418" y="322" on="1"/>
        <pt x="418" y="358" on="1"/>
        <pt x="561" y="431" on="0"/>
        <pt x="688" y="580" on="1"/>
        <pt x="760" y="580" on="1"/>
        <pt x="698" y="450" on="0"/>
        <pt x="641" y="383" on="1"/>
        <pt x="1630" y="383" on="1"/>
        <pt x="1630" y="297" on="1"/>
      </contour>
    </TTGlyph>
    <TTGlyph name="arrowright" xMin="418" yMin="100" xMax="1630" yMax="580">
      <contour>
        <pt x="1407" y="383" on="1"/>
        <pt x="1350" y="450" on="0"/>
        <pt x="1288" y="580" on="1"/>
        <pt x="1360" y="580" on="1"/>
        <pt x="1487" y="431" on="0"/>
        <pt x="1630" y="358" on="1"/>
        <pt x="1630" y="322" on="1"/>
        <pt x="1487" y="249" on="0"/>
        <pt x="1360" y="100" on="1"/>
        <pt x="1288" y="100" on="1"/>
        <pt x="1350" y="230" on="0"/>
        <pt x="1407" y="297" on="1"/>
        <pt x="418" y="297" on="1"/>
        <pt x="418" y="383" on="1"/>
      </contour>
    </TTGlyph>
    <TTGlyph name="arrowup" xMin="272" yMin="-61" xMax="752" yMax="1151">
      <contour>
        <pt x="469" y="928" on="1"/>
        <pt x="402" y="871" on="0"/>
        <pt x="272" y="809" on="1"/>
        <pt x="272" y="881" on="1"/>
        <pt x="421" y="1008" on="0"/>
        <pt x="494" y="1151" on="1"/>
        <pt x="530" y="1151" on="1"/>
        <pt x="603" y="1008" on="0"/>
        <pt x="752" y="881" on="1"/>
        <pt x="752" y="809" on="1"/>
        <pt x="622" y="871" on="0"/>
        <pt x="555" y="928" on="1"/>
        <pt x="555" y="-61" on="1"/>
        <pt x="469" y="-61" on="1"/>
      </contour>
    </TTGlyph>
    <TTGlyph name="arrowupdn" xMin="272" yMin="-61" xMax="752" yMax="1151">
      <contour>
        <pt x="469" y="928" on="1"/>
        <pt x="402" y="871" on="0"/>
        <pt x="272" y="809" on="1"/>
        <pt x="272" y="881" on="1"/>
        <pt x="421" y="1008" on="0"/>
        <pt x="494" y="1151" on="1"/>
        <pt x="530" y="1151" on="1"/>
        <pt x="603" y="1008" on="0"/>
        <pt x="752" y="881" on="1"/>
        <pt x="752" y="809" on="1"/>
        <pt x="622" y="871" on="0"/>
        <pt x="555" y="928" on="1"/>
        <pt x="555" y="162" on="1"/>
        <pt x="622" y="219" on="0"/>
        <pt x="752" y="281" on="1"/>
        <pt x="752" y="209" on="1"/>
        <pt x="603" y="82" on="0"/>
        <pt x="530" y="-61" on="1"/>
        <pt x="494" y="-61" on="1"/>
        <pt x="421" y="82" on="0"/>
        <pt x="272" y="209" on="1"/>
        <pt x="272" y="281" on="1"/>
        <pt x="402" y="219" on="0"/>
        <pt x="469" y="162" on="1"/>
      </contour>
    </TTGlyph>
    <TTGlyph name="arrowupdnbse" xMin="272" yMin="-184" xMax="752" yMax="1151">
      <contour>
        <pt x="272" y="-104" on="1"/>
        <pt x="752" y="-104" on="1"/>
        <pt x="752" y="-184" on="1"/>
        <pt x="272" y="-184" on="1"/>
      </contour>
      <contour>
        <pt x="469" y="928" on="1"/>
        <pt x="402" y="871" on="0"/>
        <pt x="272" y="809" on="1"/>
        <pt x="272" y="881" on="1"/>
        <pt x="421" y="1008" on="0"/>
        <pt x="494" y="1151" on="1"/>
        <pt x="530" y="1151" on="1"/>
        <pt x="603" y="1008" on="0"/>
        <pt x="752" y="881" on="1"/>
        <pt x="752" y="809" on="1"/>
        <pt x="622" y="871" on="0"/>
        <pt x="555" y="928" on="1"/>
        <pt x="555" y="162" on="1"/>
        <pt x="622" y="219" on="0"/>
        <pt x="752" y="281" on="1"/>
        <pt x="752" y="209" on="1"/>
        <pt x="603" y="82" on="0"/>
        <pt x="530" y="-61" on="1"/>
        <pt x="494" y="-61" on="1"/>
        <pt x="421" y="82" on="0"/>
        <pt x="272" y="209" on="1"/>
        <pt x="272" y="281" on="1"/>
        <pt x="402" y="219" on="0"/>
        <pt x="469" y="162" on="1"/>
      </contour>
    </TTGlyph>
    <TTGlyph name="asciicircum" xMin="131" yMin="389" xMax="1077" yMax="1341">
      <contour>
        <pt x="934" y="389" on="1"/>
        <pt x="604" y="1150" on="1"/>
        <pt x="274" y="389" on="1"/>
        <pt x="131" y="389" on="1"/>
        <pt x="559" y="1341" on="1"/>
        <pt x="649" y="1341" on="1"/>
        <pt x="1077" y="389" on="1"/>
      </contour>
    </TTGlyph>
    <TTGlyph name="asciitilde" xMin="86" yMin="481" xMax="1122" yMax="866">
      <contour>
        <pt x="831" y="481" on="1"/>
        <pt x="774" y="481" on="0"/>
        <pt x="652" y="540" on="0"/>
        <pt x="578" y="602" on="1"/>
        <pt x="492" y="674" on="0"/>
        <pt x="409" y="723" on="0"/>
        <pt x="376" y="723" on="1"/>
        <pt x="305" y="723" on="0"/>
        <pt x="240" y="612" on="0"/>
        <pt x="227" y="481" on="1"/>
        <pt x="86" y="481" on="1"/>
        <pt x="101" y="630" on="0"/>
        <pt x="167" y="782" on="0"/>
        <pt x="284" y="866" on="0"/>
        <pt x="376" y="866" on="1"/>
        <pt x="434" y="866" on="0"/>
        <pt x="564" y="806" on="0"/>
        <pt x="677" y="709" on="1"/>
        <pt x="773" y="624" on="0"/>
        <pt x="831" y="624" on="1"/>
        <pt x="897" y="624" on="0"/>
        <pt x="963" y="739" on="0"/>
        <pt x="978" y="866" on="1"/>
        <pt x="1122" y="866" on="1"/>
        <pt x="1102" y="715" on="0"/>
        <pt x="1034" y="564" on="0"/>
        <pt x="919" y="481" on="0"/>
      </contour>
    </TTGlyph>
    <TTGlyph name="asterisk" xMin="163" yMin="565" xMax="1034" yMax="1364">
      <contour>
        <pt x="632" y="889" on="1"/>
        <pt x="654" y="565" on="1"/>
        <pt x="424" y="602" on="1"/>
        <pt x="543" y="907" on="1"/>
        <pt x="223" y="719" on="1"/>
        <pt x="163" y="944" on="1"/>
        <pt x="480" y="983" on="1"/>
        <pt x="191" y="1120" on="1"/>
        <pt x="317" y="1315" on="1"/>
        <pt x="564" y="1040" on="1"/>
        <pt x="545" y="1364" on="1"/>
        <pt x="775" y="1328" on="1"/>
        <pt x="653" y="1026" on="1"/>
        <pt x="973" y="1205" on="1"/>
        <pt x="1034" y="984" on="1"/>
        <pt x="712" y="946" on="1"/>
        <pt x="1007" y="812" on="1"/>
        <pt x="880" y="619" on="1"/>
      </contour>
    </TTGlyph>
    <TTGlyph name="at" xMin="48" yMin="-389" xMax="1649" yMax="1364">
      <contour>
        <pt x="972" y="1364" on="1"/>
        <pt x="1295" y="1364" on="0"/>
        <pt x="1649" y="1043" on="0"/>
        <pt x="1649" y="752" on="1"/>
        <pt x="1649" y="552" on="0"/>
        <pt x="1473" y="215" on="0"/>
        <pt x="1184" y="25" on="0"/>
        <pt x="1020" y="25" on="1"/>
        <pt x="953" y="25" on="0"/>
        <pt x="861" y="100" on="0"/>
        <pt x="853" y="156" on="1"/>
        <pt x="784" y="99" on="0"/>
        <pt x="633" y="25" on="0"/>
        <pt x="580" y="25" on="1"/>
        <pt x="495" y="25" on="0"/>
        <pt x="394" y="154" on="0"/>
        <pt x="394" y="267" on="1"/>
        <pt x="394" y="413" on="0"/>
        <pt x="495" y="655" on="0"/>
        <pt x="691" y="838" on="0"/>
        <pt x="906" y="924" on="0"/>
        <pt x="1085" y="924" on="1"/>
        <pt x="1172" y="924" on="0"/>
        <pt x="1268" y="913" on="1"/>
        <pt x="1147" y="379" on="1"/>
        <pt x="1117" y="253" on="0"/>
        <pt x="1117" y="223" on="1"/>
        <pt x="1117" y="169" on="0"/>
        <pt x="1169" y="169" on="1"/>
        <pt x="1245" y="169" on="0"/>
        <pt x="1375" y="318" on="0"/>
        <pt x="1455" y="598" on="0"/>
        <pt x="1455" y="750" on="1"/>
        <pt x="1455" y="989" on="0"/>
        <pt x="1194" y="1253" on="0"/>
        <pt x="964" y="1253" on="1"/>
        <pt x="754" y="1253" on="0"/>
        <pt x="427" y="1027" on="0"/>
        <pt x="242" y="618" on="0"/>
        <pt x="242" y="365" on="1"/>
        <pt x="242" y="179" on="0"/>
        <pt x="387" y="-112" on="0"/>
        <pt x="661" y="-274" on="0"/>
        <pt x="846" y="-274" on="1"/>
        <pt x="951" y="-274" on="0"/>
        <pt x="1130" y="-236" on="0"/>
        <pt x="1283" y="-167" on="0"/>
        <pt x="1379" y="-97" on="1"/>
        <pt x="1431" y="-173" on="1"/>
        <pt x="1289" y="-287" on="0"/>
        <pt x="991" y="-389" on="0"/>
        <pt x="815" y="-389" on="1"/>
        <pt x="587" y="-389" on="0"/>
        <pt x="238" y="-201" on="0"/>
        <pt x="48" y="146" on="0"/>
        <pt x="48" y="362" on="1"/>
        <pt x="48" y="647" on="0"/>
        <pt x="289" y="1107" on="0"/>
        <pt x="713" y="1364" on="0"/>
      </contour>
      <contour>
        <pt x="644" y="320" on="1"/>
        <pt x="644" y="254" on="0"/>
        <pt x="684" y="189" on="0"/>
        <pt x="712" y="189" on="1"/>
        <pt x="779" y="189" on="0"/>
        <pt x="856" y="253" on="1"/>
        <pt x="983" y="805" on="1"/>
        <pt x="928" y="810" on="1"/>
        <pt x="823" y="810" on="0"/>
        <pt x="760" y="744" on="1"/>
        <pt x="716" y="688" on="0"/>
        <pt x="644" y="434" on="0"/>
      </contour>
    </TTGlyph>
    <TTGlyph name="atilde" xMin="24" yMin="-21" xMax="987" yMax="1395">
      <component glyphName="a" x="0" y="0" flags="0x204"/>
      <component glyphName="tilde" x="162" y="0" flags="0x4"/>
    </TTGlyph>
    <TTGlyph name="ayin" xMin="-63" yMin="0" xMax="1106" yMax="1206">
      <contour>
        <pt x="717" y="285" on="1"/>
        <pt x="748" y="285" on="0"/>
        <pt x="764" y="305" on="0"/>
        <pt x="764" y="330" on="1"/>
        <pt x="764" y="414" on="0"/>
        <pt x="785" y="518" on="0"/>
        <pt x="832" y="637" on="0"/>
        <pt x="877" y="719" on="1"/>
        <pt x="936" y="828" on="0"/>
        <pt x="946" y="852" on="0"/>
        <pt x="946" y="860" on="1"/>
        <pt x="946" y="901" on="0"/>
        <pt x="887" y="901" on="1"/>
        <pt x="864" y="901" on="1"/>
        <pt x="806" y="901" on="0"/>
        <pt x="760" y="953" on="0"/>
        <pt x="760" y="1014" on="1"/>
        <pt x="760" y="1055" on="0"/>
        <pt x="793" y="1146" on="0"/>
        <pt x="840" y="1206" on="0"/>
        <pt x="858" y="1206" on="1"/>
        <pt x="881" y="1206" on="0"/>
        <pt x="881" y="1186" on="1"/>
        <pt x="874" y="1153" on="1"/>
        <pt x="874" y="1133" on="0"/>
        <pt x="911" y="1133" on="1"/>
        <pt x="981" y="1133" on="1"/>
        <pt x="1106" y="1133" on="0"/>
        <pt x="1106" y="1024" on="1"/>
        <pt x="1106" y="958" on="0"/>
        <pt x="985" y="723" on="1"/>
        <pt x="953" y="658" on="0"/>
        <pt x="911" y="497" on="0"/>
        <pt x="911" y="420" on="1"/>
        <pt x="911" y="364" on="0"/>
        <pt x="928" y="280" on="0"/>
        <pt x="928" y="252" on="1"/>
        <pt x="928" y="212" on="0"/>
        <pt x="867" y="68" on="0"/>
        <pt x="825" y="0" on="1"/>
        <pt x="-63" y="0" on="1"/>
        <pt x="59" y="285" on="1"/>
        <pt x="229" y="285" on="1"/>
        <pt x="243" y="311" on="0"/>
        <pt x="262" y="380" on="0"/>
        <pt x="262" y="403" on="1"/>
        <pt x="262" y="434" on="0"/>
        <pt x="245" y="501" on="0"/>
        <pt x="226" y="572" on="0"/>
        <pt x="209" y="649" on="0"/>
        <pt x="209" y="690" on="1"/>
        <pt x="209" y="746" on="0"/>
        <pt x="241" y="831" on="0"/>
        <pt x="295" y="901" on="1"/>
        <pt x="235" y="901" on="0"/>
        <pt x="172" y="953" on="0"/>
        <pt x="172" y="1018" on="1"/>
        <pt x="172" y="1068" on="0"/>
        <pt x="206" y="1153" on="0"/>
        <pt x="257" y="1206" on="0"/>
        <pt x="276" y="1206" on="1"/>
        <pt x="297" y="1206" on="0"/>
        <pt x="297" y="1190" on="1"/>
        <pt x="293" y="1163" on="1"/>
        <pt x="293" y="1133" on="0"/>
        <pt x="342" y="1133" on="1"/>
        <pt x="391" y="1133" on="1"/>
        <pt x="458" y="1133" on="0"/>
        <pt x="500" y="1114" on="0"/>
        <pt x="520" y="1071" on="0"/>
        <pt x="520" y="1032" on="1"/>
        <pt x="520" y="996" on="0"/>
        <pt x="501" y="925" on="0"/>
        <pt x="478" y="881" on="0"/>
        <pt x="471" y="881" on="1"/>
        <pt x="463" y="881" on="0"/>
        <pt x="427" y="899" on="0"/>
        <pt x="399" y="899" on="1"/>
        <pt x="378" y="899" on="0"/>
        <pt x="342" y="865" on="0"/>
        <pt x="342" y="823" on="1"/>
        <pt x="342" y="782" on="0"/>
        <pt x="378" y="685" on="1"/>
        <pt x="426" y="552" on="0"/>
        <pt x="426" y="487" on="1"/>
        <pt x="426" y="440" on="0"/>
        <pt x="377" y="358" on="0"/>
        <pt x="315" y="285" on="1"/>
      </contour>
    </TTGlyph>
    <TTGlyph name="b" xMin="27" yMin="-23" xMax="963" yMax="1421">
      <contour>
        <pt x="700" y="587" on="1"/>
        <pt x="700" y="692" on="0"/>
        <pt x="633" y="813" on="0"/>
        <pt x="579" y="813" on="1"/>
        <pt x="543" y="813" on="0"/>
        <pt x="448" y="736" on="0"/>
        <pt x="405" y="674" on="1"/>
        <pt x="308" y="124" on="1"/>
        <pt x="328" y="105" on="0"/>
        <pt x="406" y="76" on="0"/>
        <pt x="437" y="76" on="1"/>
        <pt x="506" y="76" on="0"/>
        <pt x="628" y="220" on="0"/>
        <pt x="700" y="461" on="0"/>
      </contour>
      <contour>
        <pt x="449" y="-23" on="1"/>
        <pt x="340" y="-23" on="0"/>
        <pt x="113" y="13" on="0"/>
        <pt x="27" y="48" on="1"/>
        <pt x="254" y="1333" on="1"/>
        <pt x="162" y="1356" on="1"/>
        <pt x="173" y="1421" on="1"/>
        <pt x="538" y="1421" on="1"/>
        <pt x="462" y="991" on="1"/>
        <pt x="443" y="874" on="0"/>
        <pt x="420" y="797" on="1"/>
        <pt x="481" y="878" on="0"/>
        <pt x="626" y="965" on="0"/>
        <pt x="701" y="965" on="1"/>
        <pt x="821" y="965" on="0"/>
        <pt x="963" y="786" on="0"/>
        <pt x="963" y="631" on="1"/>
        <pt x="963" y="455" on="0"/>
        <pt x="826" y="148" on="0"/>
        <pt x="593" y="-23" on="0"/>
      </contour>
    </TTGlyph>
    <TTGlyph name="backslash" xMin="130" yMin="-20" xMax="469" yMax="1349">
      <contour>
        <pt x="339" y="-20" on="1"/>
        <pt x="130" y="1349" on="1"/>
        <pt x="257" y="1349" on="1"/>
        <pt x="469" y="-20" on="1"/>
      </contour>
    </TTGlyph>
    <TTGlyph name="bar" xMin="139" yMin="-442" xMax="282" yMax="1421">
      <contour>
        <pt x="139" y="-442" on="1"/>
        <pt x="139" y="1421" on="1"/>
        <pt x="282" y="1421" on="1"/>
        <pt x="282" y="-442" on="1"/>
      </contour>
    </TTGlyph>
    <TTGlyph name="bari.dotless" xMin="-20" yMin="0" xMax="547" yMax="940">
      <contour>
        <pt x="337" y="90" on="1"/>
        <pt x="456" y="66" on="1"/>
        <pt x="445" y="0" on="1"/>
        <pt x="52" y="0" on="1"/>
        <pt x="126" y="419" on="1"/>
        <pt x="-20" y="419" on="1"/>
        <pt x="-3" y="523" on="1"/>
        <pt x="144" y="523" on="1"/>
        <pt x="202" y="850" on="1"/>
        <pt x="111" y="874" on="1"/>
        <pt x="122" y="940" on="1"/>
        <pt x="487" y="940" on="1"/>
        <pt x="413" y="523" on="1"/>
        <pt x="547" y="523" on="1"/>
        <pt x="529" y="419" on="1"/>
        <pt x="395" y="419" on="1"/>
      </contour>
    </TTGlyph>
    <TTGlyph name="bet" xMin="-45" yMin="0" xMax="911" yMax="1204">
      <contour>
        <pt x="786" y="0" on="1"/>
        <pt x="-45" y="0" on="1"/>
        <pt x="78" y="285" on="1"/>
        <pt x="637" y="285" on="1"/>
        <pt x="686" y="371" on="0"/>
        <pt x="748" y="644" on="0"/>
        <pt x="748" y="772" on="1"/>
        <pt x="748" y="817" on="0"/>
        <pt x="708" y="850" on="0"/>
        <pt x="651" y="850" on="1"/>
        <pt x="260" y="850" on="1"/>
        <pt x="197" y="850" on="0"/>
        <pt x="150" y="918" on="0"/>
        <pt x="150" y="975" on="1"/>
        <pt x="150" y="1034" on="0"/>
        <pt x="182" y="1137" on="0"/>
        <pt x="233" y="1204" on="0"/>
        <pt x="254" y="1204" on="1"/>
        <pt x="270" y="1204" on="0"/>
        <pt x="270" y="1190" on="1"/>
        <pt x="266" y="1159" on="1"/>
        <pt x="266" y="1133" on="0"/>
        <pt x="305" y="1133" on="1"/>
        <pt x="739" y="1133" on="1"/>
        <pt x="838" y="1133" on="0"/>
        <pt x="911" y="1075" on="0"/>
        <pt x="911" y="993" on="1"/>
        <pt x="911" y="919" on="0"/>
        <pt x="836" y="479" on="0"/>
        <pt x="799" y="393" on="1"/>
        <pt x="790" y="374" on="0"/>
        <pt x="735" y="307" on="0"/>
        <pt x="711" y="285" on="1"/>
        <pt x="899" y="285" on="1"/>
      </contour>
    </TTGlyph>
    <TTGlyph name="beta" xMin="-63" yMin="-436" xMax="1037" yMax="1442">
      <contour>
        <pt x="697" y="1442" on="1"/>
        <pt x="854" y="1442" on="0"/>
        <pt x="1037" y="1287" on="0"/>
        <pt x="1037" y="1153" on="1"/>
        <pt x="1037" y="999" on="0"/>
        <pt x="872" y="794" on="0"/>
        <pt x="729" y="763" on="1"/>
        <pt x="728" y="753" on="1"/>
        <pt x="837" y="729" on="0"/>
        <pt x="963" y="567" on="0"/>
        <pt x="963" y="448" on="1"/>
        <pt x="963" y="234" on="0"/>
        <pt x="702" y="-20" on="0"/>
        <pt x="475" y="-20" on="1"/>
        <pt x="363" y="-20" on="0"/>
        <pt x="289" y="28" on="1"/>
        <pt x="207" y="-436" on="1"/>
        <pt x="-63" y="-436" on="1"/>
        <pt x="179" y="941" on="1"/>
        <pt x="224" y="1198" on="0"/>
        <pt x="474" y="1442" on="0"/>
      </contour>
      <contour>
        <pt x="674" y="1342" on="1"/>
        <pt x="604" y="1342" on="0"/>
        <pt x="531" y="1271" on="0"/>
        <pt x="477" y="1103" on="0"/>
        <pt x="449" y="937" on="1"/>
        <pt x="305" y="130" on="1"/>
        <pt x="329" y="114" on="0"/>
        <pt x="415" y="88" on="0"/>
        <pt x="461" y="88" on="1"/>
        <pt x="518" y="88" on="0"/>
        <pt x="630" y="179" on="0"/>
        <pt x="698" y="340" on="0"/>
        <pt x="698" y="437" on="1"/>
        <pt x="698" y="568" on="0"/>
        <pt x="587" y="696" on="0"/>
        <pt x="490" y="702" on="1"/>
        <pt x="506" y="800" on="1"/>
        <pt x="639" y="802" on="0"/>
        <pt x="783" y="986" on="0"/>
        <pt x="783" y="1144" on="1"/>
        <pt x="783" y="1238" on="0"/>
        <pt x="723" y="1342" on="0"/>
      </contour>
    </TTGlyph>
    <TTGlyph name="betdagesh" xMin="-45" yMin="0" xMax="911" yMax="1204">
      <component glyphName="bet" x="0" y="0" flags="0x204"/>
      <component glyphName="dagesh" x="440" y="-101" flags="0x4"/>
    </TTGlyph>
    <TTGlyph name="betrafe" xMin="-45" yMin="0" xMax="911" yMax="1413">
      <component glyphName="bet" x="0" y="0" flags="0x204"/>
      <component glyphName="rafe" x="444" y="0" flags="0x4"/>
    </TTGlyph>
    <TTGlyph name="block" xMin="0" yMin="-621" xMax="1451" yMax="1864">
      <contour>
        <pt x="1451" y="-621" on="1"/>
        <pt x="0" y="-621" on="1"/>
        <pt x="0" y="1864" on="1"/>
        <pt x="1451" y="1864" on="1"/>
      </contour>
    </TTGlyph>
    <TTGlyph name="braceleft" xMin="28" yMin="-274" xMax="836" yMax="1421">
      <contour>
        <pt x="402" y="-274" on="1"/>
        <pt x="280" y="-274" on="0"/>
        <pt x="150" y="-151" on="0"/>
        <pt x="150" y="-38" on="1"/>
        <pt x="150" y="2" on="0"/>
        <pt x="157" y="40" on="1"/>
        <pt x="205" y="315" on="1"/>
        <pt x="211" y="348" on="0"/>
        <pt x="211" y="376" on="1"/>
        <pt x="211" y="458" on="0"/>
        <pt x="116" y="530" on="0"/>
        <pt x="28" y="533" on="1"/>
        <pt x="43" y="618" on="1"/>
        <pt x="146" y="621" on="0"/>
        <pt x="277" y="720" on="0"/>
        <pt x="297" y="834" on="1"/>
        <pt x="352" y="1148" on="1"/>
        <pt x="377" y="1289" on="0"/>
        <pt x="546" y="1421" on="0"/>
        <pt x="701" y="1421" on="1"/>
        <pt x="836" y="1421" on="1"/>
        <pt x="821" y="1334" on="1"/>
        <pt x="759" y="1334" on="1"/>
        <pt x="690" y="1334" on="0"/>
        <pt x="609" y="1265" on="0"/>
        <pt x="594" y="1179" on="1"/>
        <pt x="530" y="819" on="1"/>
        <pt x="513" y="723" on="0"/>
        <pt x="378" y="587" on="0"/>
        <pt x="283" y="568" on="1"/>
        <pt x="283" y="565" on="1"/>
        <pt x="358" y="548" on="0"/>
        <pt x="445" y="445" on="0"/>
        <pt x="445" y="365" on="1"/>
        <pt x="440" y="312" on="1"/>
        <pt x="387" y="8" on="1"/>
        <pt x="381" y="-25" on="0"/>
        <pt x="381" y="-53" on="1"/>
        <pt x="381" y="-114" on="0"/>
        <pt x="434" y="-187" on="0"/>
        <pt x="491" y="-187" on="1"/>
        <pt x="553" y="-187" on="1"/>
        <pt x="537" y="-274" on="1"/>
      </contour>
    </TTGlyph>
    <TTGlyph name="braceright" xMin="-120" yMin="-274" xMax="688" yMax="1421">
      <contour>
        <pt x="-120" y="-274" on="1"/>
        <pt x="-104" y="-187" on="1"/>
        <pt x="-42" y="-187" on="1"/>
        <pt x="27" y="-187" on="0"/>
        <pt x="107" y="-118" on="0"/>
        <pt x="122" y="-32" on="1"/>
        <pt x="187" y="332" on="1"/>
        <pt x="204" y="430" on="0"/>
        <pt x="336" y="564" on="0"/>
        <pt x="434" y="585" on="1"/>
        <pt x="434" y="588" on="1"/>
        <pt x="362" y="604" on="0"/>
        <pt x="272" y="708" on="0"/>
        <pt x="272" y="788" on="1"/>
        <pt x="277" y="839" on="1"/>
        <pt x="329" y="1139" on="1"/>
        <pt x="335" y="1172" on="0"/>
        <pt x="335" y="1201" on="1"/>
        <pt x="335" y="1262" on="0"/>
        <pt x="282" y="1334" on="0"/>
        <pt x="226" y="1334" on="1"/>
        <pt x="164" y="1334" on="1"/>
        <pt x="179" y="1421" on="1"/>
        <pt x="314" y="1421" on="1"/>
        <pt x="444" y="1421" on="0"/>
        <pt x="567" y="1296" on="0"/>
        <pt x="567" y="1190" on="1"/>
        <pt x="567" y="1152" on="0"/>
        <pt x="559" y="1108" on="1"/>
        <pt x="512" y="834" on="1"/>
        <pt x="506" y="801" on="0"/>
        <pt x="506" y="773" on="1"/>
        <pt x="506" y="622" on="0"/>
        <pt x="688" y="618" on="1"/>
        <pt x="673" y="533" on="1"/>
        <pt x="562" y="529" on="0"/>
        <pt x="439" y="423" on="0"/>
        <pt x="420" y="315" on="1"/>
        <pt x="364" y="0" on="1"/>
        <pt x="340" y="-136" on="0"/>
        <pt x="170" y="-274" on="0"/>
        <pt x="15" y="-274" on="1"/>
      </contour>
    </TTGlyph>
    <TTGlyph name="bracketleft" xMin="51" yMin="-274" xMax="786" yMax="1421">
      <contour>
        <pt x="51" y="-274" on="1"/>
        <pt x="350" y="1421" on="1"/>
        <pt x="786" y="1421" on="1"/>
        <pt x="774" y="1354" on="1"/>
        <pt x="564" y="1313" on="1"/>
        <pt x="303" y="-166" on="1"/>
        <pt x="499" y="-207" on="1"/>
        <pt x="487" y="-274" on="1"/>
      </contour>
    </TTGlyph>
    <TTGlyph name="bracketright" xMin="-106" yMin="-274" xMax="629" yMax="1421">
      <contour>
        <pt x="-106" y="-274" on="1"/>
        <pt x="-94" y="-207" on="1"/>
        <pt x="116" y="-166" on="1"/>
        <pt x="377" y="1313" on="1"/>
        <pt x="181" y="1354" on="1"/>
        <pt x="193" y="1421" on="1"/>
        <pt x="629" y="1421" on="1"/>
        <pt x="330" y="-274" on="1"/>
      </contour>
    </TTGlyph>
    <TTGlyph name="breve" xMin="181" yMin="1118" xMax="789" yMax="1441">
      <contour>
        <pt x="431" y="1118" on="1"/>
        <pt x="311" y="1118" on="0"/>
        <pt x="181" y="1243" on="0"/>
        <pt x="181" y="1363" on="1"/>
        <pt x="181" y="1400" on="0"/>
        <pt x="187" y="1441" on="1"/>
        <pt x="308" y="1441" on="1"/>
        <pt x="315" y="1310" on="0"/>
        <pt x="465" y="1310" on="1"/>
        <pt x="615" y="1310" on="0"/>
        <pt x="668" y="1441" on="1"/>
        <pt x="789" y="1441" on="1"/>
        <pt x="758" y="1287" on="0"/>
        <pt x="571" y="1118" on="0"/>
      </contour>
    </TTGlyph>
    <TTGlyph name="breve.alt1" xMin="181" yMin="1118" xMax="789" yMax="1441">
      <component glyphName="breve" x="0" y="0" flags="0x4"/>
    </TTGlyph>
    <TTGlyph name="breve.cyr" xMin="117" yMin="1123" xMax="857" yMax="1476">
      <component glyphName="cyrillicbreve" x="0" y="0" flags="0x204"/>
    </TTGlyph>
    <TTGlyph name="breveacute" xMin="-281" yMin="1099" xMax="295" yMax="1483">
      <contour>
        <pt x="61" y="1483" on="1"/>
        <pt x="228" y="1483" on="1"/>
        <pt x="224" y="1461" on="1"/>
        <pt x="-12" y="1285" on="1"/>
        <pt x="-78" y="1285" on="1"/>
        <pt x="-76" y="1295" on="1"/>
      </contour>
      <contour>
        <pt x="-21" y="1099" on="1"/>
        <pt x="-141" y="1099" on="0"/>
        <pt x="-281" y="1206" on="0"/>
        <pt x="-281" y="1295" on="1"/>
        <pt x="-281" y="1317" on="0"/>
        <pt x="-276" y="1342" on="1"/>
        <pt x="-204" y="1342" on="1"/>
        <pt x="-199" y="1284" on="0"/>
        <pt x="-97" y="1221" on="0"/>
        <pt x="-12" y="1221" on="1"/>
        <pt x="71" y="1221" on="0"/>
        <pt x="195" y="1283" on="0"/>
        <pt x="221" y="1342" on="1"/>
        <pt x="295" y="1342" on="1"/>
        <pt x="272" y="1226" on="0"/>
        <pt x="106" y="1099" on="0"/>
      </contour>
    </TTGlyph>
    <TTGlyph name="brevegrave" xMin="-281" yMin="1099" xMax="295" yMax="1483">
      <contour>
        <pt x="77" y="1295" on="1"/>
        <pt x="75" y="1285" on="1"/>
        <pt x="9" y="1285" on="1"/>
        <pt x="-165" y="1461" on="1"/>
        <pt x="-161" y="1483" on="1"/>
        <pt x="5" y="1483" on="1"/>
      </contour>
      <contour>
        <pt x="-21" y="1099" on="1"/>
        <pt x="-141" y="1099" on="0"/>
        <pt x="-281" y="1206" on="0"/>
        <pt x="-281" y="1295" on="1"/>
        <pt x="-281" y="1317" on="0"/>
        <pt x="-276" y="1342" on="1"/>
        <pt x="-204" y="1342" on="1"/>
        <pt x="-199" y="1284" on="0"/>
        <pt x="-97" y="1221" on="0"/>
        <pt x="-12" y="1221" on="1"/>
        <pt x="71" y="1221" on="0"/>
        <pt x="195" y="1283" on="0"/>
        <pt x="221" y="1342" on="1"/>
        <pt x="295" y="1342" on="1"/>
        <pt x="272" y="1226" on="0"/>
        <pt x="106" y="1099" on="0"/>
      </contour>
    </TTGlyph>
    <TTGlyph name="brevehook" xMin="-281" yMin="1099" xMax="295" yMax="1484">
      <contour>
        <pt x="-82" y="1467" on="1"/>
        <pt x="-21" y="1484" on="0"/>
        <pt x="28" y="1484" on="1"/>
        <pt x="86" y="1484" on="0"/>
        <pt x="144" y="1446" on="0"/>
        <pt x="144" y="1414" on="1"/>
        <pt x="144" y="1371" on="0"/>
        <pt x="71" y="1321" on="0"/>
        <pt x="7" y="1318" on="1"/>
        <pt x="-1" y="1287" on="1"/>
        <pt x="-47" y="1287" on="1"/>
        <pt x="-40" y="1355" on="1"/>
        <pt x="-13" y="1360" on="1"/>
        <pt x="41" y="1370" on="0"/>
        <pt x="41" y="1402" on="1"/>
        <pt x="41" y="1430" on="0"/>
        <pt x="5" y="1430" on="1"/>
        <pt x="-26" y="1430" on="0"/>
        <pt x="-77" y="1415" on="1"/>
      </contour>
      <contour>
        <pt x="-21" y="1099" on="1"/>
        <pt x="-141" y="1099" on="0"/>
        <pt x="-281" y="1206" on="0"/>
        <pt x="-281" y="1295" on="1"/>
        <pt x="-281" y="1317" on="0"/>
        <pt x="-276" y="1342" on="1"/>
        <pt x="-204" y="1342" on="1"/>
        <pt x="-199" y="1284" on="0"/>
        <pt x="-97" y="1221" on="0"/>
        <pt x="-12" y="1221" on="1"/>
        <pt x="71" y="1221" on="0"/>
        <pt x="195" y="1283" on="0"/>
        <pt x="221" y="1342" on="1"/>
        <pt x="295" y="1342" on="1"/>
        <pt x="272" y="1226" on="0"/>
        <pt x="106" y="1099" on="0"/>
      </contour>
    </TTGlyph>
    <TTGlyph name="brevetilde" xMin="-284" yMin="1100" xMax="328" yMax="1520">
      <contour>
        <pt x="121" y="1330" on="1"/>
        <pt x="78" y="1330" on="0"/>
        <pt x="11" y="1361" on="0"/>
        <pt x="-47" y="1399" on="0"/>
        <pt x="-101" y="1430" on="0"/>
        <pt x="-131" y="1430" on="1"/>
        <pt x="-201" y="1430" on="0"/>
        <pt x="-224" y="1375" on="1"/>
        <pt x="-237" y="1344" on="1"/>
        <pt x="-284" y="1344" on="1"/>
        <pt x="-237" y="1520" on="0"/>
        <pt x="-76" y="1520" on="1"/>
        <pt x="-34" y="1520" on="0"/>
        <pt x="34" y="1489" on="0"/>
        <pt x="92" y="1451" on="0"/>
        <pt x="147" y="1420" on="0"/>
        <pt x="176" y="1420" on="1"/>
        <pt x="216" y="1420" on="0"/>
        <pt x="265" y="1456" on="0"/>
        <pt x="281" y="1505" on="1"/>
        <pt x="328" y="1505" on="1"/>
        <pt x="282" y="1330" on="0"/>
      </contour>
      <contour>
        <pt x="-24" y="1100" on="1"/>
        <pt x="-139" y="1100" on="0"/>
        <pt x="-270" y="1194" on="0"/>
        <pt x="-270" y="1274" on="1"/>
        <pt x="-267" y="1309" on="1"/>
        <pt x="-213" y="1309" on="1"/>
        <pt x="-206" y="1262" on="0"/>
        <pt x="-102" y="1211" on="0"/>
        <pt x="-17" y="1211" on="1"/>
        <pt x="69" y="1211" on="0"/>
        <pt x="190" y="1263" on="0"/>
        <pt x="212" y="1309" on="1"/>
        <pt x="266" y="1309" on="1"/>
        <pt x="222" y="1100" on="0"/>
      </contour>
    </TTGlyph>
    <TTGlyph name="brokenbar" xMin="182" yMin="-442" xMax="324" yMax="1421">
      <contour>
        <pt x="182" y="801" on="1"/>
        <pt x="182" y="1421" on="1"/>
        <pt x="324" y="1421" on="1"/>
        <pt x="324" y="801" on="1"/>
      </contour>
      <contour>
        <pt x="182" y="-442" on="1"/>
        <pt x="182" y="180" on="1"/>
        <pt x="324" y="180" on="1"/>
        <pt x="324" y="-442" on="1"/>
      </contour>
    </TTGlyph>
    <TTGlyph name="bullet" xMin="96" yMin="401" xMax="650" yMax="955">
      <contour>
        <pt x="373" y="401" on="1"/>
        <pt x="259" y="401" on="0"/>
        <pt x="96" y="562" on="0"/>
        <pt x="96" y="678" on="1"/>
        <pt x="96" y="794" on="0"/>
        <pt x="259" y="955" on="0"/>
        <pt x="373" y="955" on="1"/>
        <pt x="487" y="955" on="0"/>
        <pt x="650" y="794" on="0"/>
        <pt x="650" y="678" on="1"/>
        <pt x="650" y="562" on="0"/>
        <pt x="487" y="401" on="0"/>
      </contour>
    </TTGlyph>
    <TTGlyph name="c" xMin="30" yMin="-20" xMax="879" yMax="965">
      <contour>
        <pt x="391" y="-20" on="1"/>
        <pt x="219" y="-20" on="0"/>
        <pt x="30" y="166" on="0"/>
        <pt x="30" y="330" on="1"/>
        <pt x="30" y="515" on="0"/>
        <pt x="177" y="805" on="0"/>
        <pt x="435" y="965" on="0"/>
        <pt x="585" y="965" on="1"/>
        <pt x="657" y="965" on="0"/>
        <pt x="826" y="938" on="0"/>
        <pt x="879" y="920" on="1"/>
        <pt x="830" y="632" on="1"/>
        <pt x="758" y="632" on="1"/>
        <pt x="744" y="803" on="1"/>
        <pt x="690" y="863" on="0"/>
        <pt x="598" y="863" on="1"/>
        <pt x="519" y="863" on="0"/>
        <pt x="378" y="722" on="0"/>
        <pt x="298" y="481" on="0"/>
        <pt x="298" y="340" on="1"/>
        <pt x="298" y="228" on="0"/>
        <pt x="386" y="104" on="0"/>
        <pt x="471" y="104" on="1"/>
        <pt x="546" y="104" on="0"/>
        <pt x="669" y="158" on="0"/>
        <pt x="726" y="198" on="1"/>
        <pt x="770" y="135" on="1"/>
        <pt x="688" y="62" on="0"/>
        <pt x="487" y="-20" on="0"/>
      </contour>
    </TTGlyph>
    <TTGlyph name="cacute" xMin="30" yMin="-20" xMax="966" yMax="1423">
      <component glyphName="c" x="0" y="0" flags="0x204"/>
      <component glyphName="acute" x="226" y="0" flags="0x4"/>
    </TTGlyph>
    <TTGlyph name="caron" xMin="167" yMin="1118" xMax="821" yMax="1444">
      <contour>
        <pt x="821" y="1444" on="1"/>
        <pt x="815" y="1411" on="1"/>
        <pt x="546" y="1118" on="1"/>
        <pt x="333" y="1118" on="1"/>
        <pt x="167" y="1411" on="1"/>
        <pt x="173" y="1444" on="1"/>
        <pt x="249" y="1444" on="1"/>
        <pt x="469" y="1282" on="1"/>
        <pt x="745" y="1444" on="1"/>
      </contour>
    </TTGlyph>
    <TTGlyph name="caroncommaaccent" xMin="105" yMin="830" xMax="538" yMax="1362">
      <contour>
        <pt x="383" y="1362" on="1"/>
        <pt x="454" y="1362" on="0"/>
        <pt x="538" y="1281" on="0"/>
        <pt x="538" y="1211" on="1"/>
        <pt x="538" y="1078" on="0"/>
        <pt x="321" y="883" on="0"/>
        <pt x="105" y="830" on="1"/>
        <pt x="120" y="910" on="1"/>
        <pt x="216" y="934" on="0"/>
        <pt x="331" y="1024" on="0"/>
        <pt x="331" y="1071" on="1"/>
        <pt x="331" y="1096" on="0"/>
        <pt x="299" y="1131" on="0"/>
        <pt x="260" y="1165" on="0"/>
        <pt x="228" y="1207" on="0"/>
        <pt x="228" y="1239" on="1"/>
        <pt x="228" y="1298" on="0"/>
        <pt x="310" y="1362" on="0"/>
      </contour>
    </TTGlyph>
    <TTGlyph name="ccaron" xMin="30" yMin="-20" xMax="979" yMax="1444">
      <component glyphName="c" x="0" y="0" flags="0x204"/>
      <component glyphName="caron" x="158" y="0" flags="0x4"/>
    </TTGlyph>
    <TTGlyph name="ccedilla" xMin="30" yMin="-432" xMax="879" yMax="965">
      <component glyphName="c" x="0" y="0" flags="0x204"/>
      <component glyphName="cedilla" x="144" y="0" flags="0x4"/>
    </TTGlyph>
    <TTGlyph name="ccircumflex" xMin="30" yMin="-20" xMax="949" yMax="1444">
      <component glyphName="c" x="0" y="0" flags="0x204"/>
      <component glyphName="circumflex" x="182" y="0" flags="0x4"/>
    </TTGlyph>
    <TTGlyph name="cedilla" xMin="-56" yMin="-432" xMax="389" yMax="47">
      <contour>
        <pt x="93" y="-432" on="1"/>
        <pt x="13" y="-432" on="0"/>
        <pt x="-56" y="-403" on="1"/>
        <pt x="-19" y="-306" on="1"/>
        <pt x="36" y="-325" on="0"/>
        <pt x="84" y="-325" on="1"/>
        <pt x="131" y="-325" on="0"/>
        <pt x="192" y="-275" on="0"/>
        <pt x="192" y="-233" on="1"/>
        <pt x="192" y="-155" on="0"/>
        <pt x="86" y="-148" on="1"/>
        <pt x="172" y="47" on="1"/>
        <pt x="263" y="47" on="1"/>
        <pt x="220" y="-63" on="1"/>
        <pt x="300" y="-74" on="0"/>
        <pt x="389" y="-155" on="0"/>
        <pt x="389" y="-216" on="1"/>
        <pt x="389" y="-315" on="0"/>
        <pt x="221" y="-432" on="0"/>
      </contour>
    </TTGlyph>
    <TTGlyph name="cent" xMin="123" yMin="0" xMax="992" yMax="1341">
      <contour>
        <pt x="883" y="348" on="1"/>
        <pt x="743" y="227" on="0"/>
        <pt x="590" y="195" on="1"/>
        <pt x="556" y="0" on="1"/>
        <pt x="464" y="0" on="1"/>
        <pt x="496" y="185" on="1"/>
        <pt x="322" y="185" on="0"/>
        <pt x="123" y="374" on="0"/>
        <pt x="123" y="535" on="1"/>
        <pt x="123" y="716" on="0"/>
        <pt x="268" y="1001" on="0"/>
        <pt x="523" y="1165" on="0"/>
        <pt x="670" y="1169" on="1"/>
        <pt x="700" y="1341" on="1"/>
        <pt x="792" y="1341" on="1"/>
        <pt x="761" y="1167" on="1"/>
        <pt x="905" y="1154" on="0"/>
        <pt x="992" y="1125" on="1"/>
        <pt x="943" y="837" on="1"/>
        <pt x="871" y="837" on="1"/>
        <pt x="857" y="1008" on="1"/>
        <pt x="817" y="1053" on="0"/>
        <pt x="743" y="1065" on="1"/>
        <pt x="611" y="311" on="1"/>
        <pt x="712" y="324" on="0"/>
        <pt x="839" y="411" on="1"/>
      </contour>
      <contour>
        <pt x="391" y="545" on="1"/>
        <pt x="391" y="443" on="0"/>
        <pt x="464" y="328" on="0"/>
        <pt x="518" y="312" on="1"/>
        <pt x="651" y="1065" on="1"/>
        <pt x="580" y="1044" on="0"/>
        <pt x="459" y="894" on="0"/>
        <pt x="391" y="669" on="0"/>
      </contour>
    </TTGlyph>
    <TTGlyph name="chi" xMin="-236" yMin="-436" xMax="985" yMax="940">
      <contour>
        <pt x="309" y="366" on="1"/>
        <pt x="182" y="787" on="1"/>
        <pt x="173" y="820" on="0"/>
        <pt x="115" y="864" on="0"/>
        <pt x="57" y="875" on="1"/>
        <pt x="69" y="940" on="1"/>
        <pt x="283" y="940" on="1"/>
        <pt x="302" y="926" on="0"/>
        <pt x="322" y="854" on="1"/>
        <pt x="413" y="501" on="1"/>
        <pt x="485" y="607" on="0"/>
        <pt x="610" y="821" on="1"/>
        <pt x="680" y="940" on="1"/>
        <pt x="985" y="940" on="1"/>
        <pt x="978" y="901" on="1"/>
        <pt x="837" y="711" on="0"/>
        <pt x="497" y="217" on="1"/>
        <pt x="647" y="-283" on="1"/>
        <pt x="661" y="-330" on="0"/>
        <pt x="709" y="-366" on="0"/>
        <pt x="742" y="-371" on="1"/>
        <pt x="730" y="-436" on="1"/>
        <pt x="545" y="-436" on="1"/>
        <pt x="524" y="-419" on="0"/>
        <pt x="499" y="-318" on="1"/>
        <pt x="391" y="88" on="1"/>
        <pt x="236" y="-138" on="0"/>
        <pt x="67" y="-436" on="1"/>
        <pt x="-236" y="-436" on="1"/>
        <pt x="-230" y="-403" on="1"/>
        <pt x="-168" y="-319" on="0"/>
        <pt x="25" y="-41" on="1"/>
      </contour>
    </TTGlyph>
    <TTGlyph name="circle" xMin="167" yMin="162" xMax="1070" yMax="1065">
      <contour>
        <pt x="167" y="612" on="1"/>
        <pt x="167" y="734" on="0"/>
        <pt x="287" y="944" on="0"/>
        <pt x="496" y="1065" on="0"/>
        <pt x="617" y="1065" on="1"/>
        <pt x="739" y="1065" on="0"/>
        <pt x="949" y="944" on="0"/>
        <pt x="1070" y="733" on="0"/>
        <pt x="1070" y="612" on="1"/>
        <pt x="1070" y="491" on="0"/>
        <pt x="949" y="282" on="0"/>
        <pt x="740" y="162" on="0"/>
        <pt x="617" y="162" on="1"/>
        <pt x="495" y="162" on="0"/>
        <pt x="287" y="282" on="0"/>
        <pt x="167" y="490" on="0"/>
      </contour>
      <contour>
        <pt x="253" y="612" on="1"/>
        <pt x="253" y="514" on="0"/>
        <pt x="351" y="345" on="0"/>
        <pt x="518" y="248" on="0"/>
        <pt x="617" y="248" on="1"/>
        <pt x="715" y="248" on="0"/>
        <pt x="884" y="344" on="0"/>
        <pt x="984" y="514" on="0"/>
        <pt x="984" y="612" on="1"/>
        <pt x="984" y="710" on="0"/>
        <pt x="886" y="881" on="0"/>
        <pt x="715" y="979" on="0"/>
        <pt x="617" y="979" on="1"/>
        <pt x="520" y="979" on="0"/>
        <pt x="351" y="881" on="0"/>
        <pt x="253" y="712" on="0"/>
      </contour>
    </TTGlyph>
    <TTGlyph name="circumflex" xMin="113" yMin="1118" xMax="767" yMax="1444">
      <contour>
        <pt x="113" y="1118" on="1"/>
        <pt x="119" y="1151" on="1"/>
        <pt x="388" y="1444" on="1"/>
        <pt x="601" y="1444" on="1"/>
        <pt x="767" y="1151" on="1"/>
        <pt x="761" y="1118" on="1"/>
        <pt x="685" y="1118" on="1"/>
        <pt x="465" y="1280" on="1"/>
        <pt x="189" y="1118" on="1"/>
      </contour>
    </TTGlyph>
    <TTGlyph name="circumflex.alt1" xMin="113" yMin="1118" xMax="767" yMax="1444">
      <component glyphName="circumflex" x="0" y="0" flags="0x4"/>
    </TTGlyph>
    <TTGlyph name="circumflexacute" xMin="-336" yMin="1119" xMax="511" yMax="1483">
      <contour>
        <pt x="344" y="1483" on="1"/>
        <pt x="511" y="1483" on="1"/>
        <pt x="507" y="1461" on="1"/>
        <pt x="270" y="1285" on="1"/>
        <pt x="204" y="1285" on="1"/>
        <pt x="205" y="1295" on="1"/>
      </contour>
      <contour>
        <pt x="-336" y="1119" on="1"/>
        <pt x="-330" y="1152" on="1"/>
        <pt x="-57" y="1405" on="1"/>
        <pt x="95" y="1405" on="1"/>
        <pt x="277" y="1152" on="1"/>
        <pt x="271" y="1119" on="1"/>
        <pt x="224" y="1119" on="1"/>
        <pt x="6" y="1282" on="1"/>
        <pt x="-271" y="1119" on="1"/>
      </contour>
    </TTGlyph>
    <TTGlyph name="circumflexgrave" xMin="-450" yMin="1119" xMax="277" yMax="1483">
      <contour>
        <pt x="-208" y="1295" on="1"/>
        <pt x="-209" y="1285" on="1"/>
        <pt x="-275" y="1285" on="1"/>
        <pt x="-450" y="1461" on="1"/>
        <pt x="-446" y="1483" on="1"/>
        <pt x="-279" y="1483" on="1"/>
      </contour>
      <contour>
        <pt x="222" y="1119" on="1"/>
        <pt x="4" y="1282" on="1"/>
        <pt x="-273" y="1119" on="1"/>
        <pt x="-336" y="1119" on="1"/>
        <pt x="-330" y="1152" on="1"/>
        <pt x="-58" y="1405" on="1"/>
        <pt x="94" y="1405" on="1"/>
        <pt x="277" y="1152" on="1"/>
        <pt x="271" y="1119" on="1"/>
      </contour>
    </TTGlyph>
    <TTGlyph name="circumflexhook" xMin="-336" yMin="1119" xMax="444" yMax="1484">
      <contour>
        <pt x="-336" y="1119" on="1"/>
        <pt x="-330" y="1152" on="1"/>
        <pt x="-57" y="1405" on="1"/>
        <pt x="95" y="1405" on="1"/>
        <pt x="277" y="1152" on="1"/>
        <pt x="271" y="1119" on="1"/>
        <pt x="222" y="1119" on="1"/>
        <pt x="4" y="1282" on="1"/>
        <pt x="-273" y="1119" on="1"/>
      </contour>
      <contour>
        <pt x="196" y="1467" on="1"/>
        <pt x="261" y="1484" on="0"/>
        <pt x="318" y="1484" on="1"/>
        <pt x="381" y="1484" on="0"/>
        <pt x="444" y="1439" on="0"/>
        <pt x="444" y="1401" on="1"/>
        <pt x="444" y="1355" on="0"/>
        <pt x="363" y="1301" on="0"/>
        <pt x="294" y="1298" on="1"/>
        <pt x="283" y="1267" on="1"/>
        <pt x="233" y="1267" on="1"/>
        <pt x="239" y="1335" on="1"/>
        <pt x="269" y="1340" on="1"/>
        <pt x="332" y="1351" on="0"/>
        <pt x="332" y="1395" on="1"/>
        <pt x="332" y="1409" on="0"/>
        <pt x="310" y="1429" on="0"/>
        <pt x="288" y="1429" on="1"/>
        <pt x="250" y="1429" on="0"/>
        <pt x="200" y="1415" on="1"/>
      </contour>
    </TTGlyph>
    <TTGlyph name="circumflextilde" xMin="-321" yMin="1089" xMax="329" yMax="1520">
      <contour>
        <pt x="-321" y="1089" on="1"/>
        <pt x="-316" y="1122" on="1"/>
        <pt x="-94" y="1315" on="1"/>
        <pt x="98" y="1315" on="1"/>
        <pt x="251" y="1122" on="1"/>
        <pt x="246" y="1089" on="1"/>
        <pt x="198" y="1089" on="1"/>
        <pt x="-8" y="1212" on="1"/>
        <pt x="-257" y="1089" on="1"/>
      </contour>
      <contour>
        <pt x="122" y="1330" on="1"/>
        <pt x="79" y="1330" on="0"/>
        <pt x="12" y="1361" on="0"/>
        <pt x="-46" y="1399" on="0"/>
        <pt x="-100" y="1430" on="0"/>
        <pt x="-130" y="1430" on="1"/>
        <pt x="-200" y="1430" on="0"/>
        <pt x="-223" y="1375" on="1"/>
        <pt x="-236" y="1344" on="1"/>
        <pt x="-283" y="1344" on="1"/>
        <pt x="-236" y="1520" on="0"/>
        <pt x="-76" y="1520" on="1"/>
        <pt x="-34" y="1520" on="0"/>
        <pt x="34" y="1489" on="0"/>
        <pt x="93" y="1451" on="0"/>
        <pt x="148" y="1420" on="0"/>
        <pt x="177" y="1420" on="1"/>
        <pt x="217" y="1420" on="0"/>
        <pt x="266" y="1456" on="0"/>
        <pt x="282" y="1505" on="1"/>
        <pt x="329" y="1505" on="1"/>
        <pt x="283" y="1330" on="0"/>
      </contour>
    </TTGlyph>
    <TTGlyph name="club" xMin="60" yMin="0" xMax="1284" yMax="1223">
      <contour>
        <pt x="1094" y="0" on="1"/>
        <pt x="252" y="0" on="1"/>
        <pt x="260" y="35" on="1"/>
        <pt x="395" y="62" on="0"/>
        <pt x="514" y="116" on="0"/>
        <pt x="609" y="236" on="0"/>
        <pt x="662" y="385" on="0"/>
        <pt x="662" y="461" on="1"/>
        <pt x="660" y="508" on="1"/>
        <pt x="603" y="388" on="0"/>
        <pt x="425" y="270" on="0"/>
        <pt x="336" y="270" on="1"/>
        <pt x="259" y="270" on="0"/>
        <pt x="130" y="346" on="0"/>
        <pt x="60" y="472" on="0"/>
        <pt x="60" y="549" on="1"/>
        <pt x="60" y="664" on="0"/>
        <pt x="206" y="822" on="0"/>
        <pt x="299" y="823" on="1"/>
        <pt x="361" y="823" on="0"/>
        <pt x="461" y="772" on="1"/>
        <pt x="423" y="837" on="0"/>
        <pt x="406" y="877" on="1"/>
        <pt x="395" y="914" on="0"/>
        <pt x="395" y="952" on="1"/>
        <pt x="395" y="1073" on="0"/>
        <pt x="557" y="1223" on="0"/>
        <pt x="670" y="1223" on="1"/>
        <pt x="786" y="1223" on="0"/>
        <pt x="946" y="1063" on="0"/>
        <pt x="946" y="956" on="1"/>
        <pt x="946" y="870" on="0"/>
        <pt x="877" y="772" on="1"/>
        <pt x="961" y="812" on="0"/>
        <pt x="977" y="815" on="1"/>
        <pt x="999" y="823" on="0"/>
        <pt x="1038" y="823" on="1"/>
        <pt x="1143" y="823" on="0"/>
        <pt x="1211" y="745" on="1"/>
        <pt x="1284" y="669" on="0"/>
        <pt x="1284" y="553" on="1"/>
        <pt x="1284" y="437" on="0"/>
        <pt x="1128" y="272" on="0"/>
        <pt x="1012" y="272" on="1"/>
        <pt x="956" y="272" on="0"/>
        <pt x="838" y="321" on="0"/>
        <pt x="743" y="403" on="0"/>
        <pt x="682" y="508" on="1"/>
        <pt x="687" y="382" on="0"/>
        <pt x="736" y="229" on="0"/>
        <pt x="845" y="109" on="0"/>
        <pt x="972" y="56" on="0"/>
        <pt x="1086" y="35" on="1"/>
      </contour>
    </TTGlyph>
    <TTGlyph name="colon" xMin="69" yMin="-29" xMax="540" yMax="960">
      <contour>
        <pt x="374" y="628" on="1"/>
        <pt x="304" y="628" on="0"/>
        <pt x="209" y="724" on="0"/>
        <pt x="209" y="794" on="1"/>
        <pt x="209" y="864" on="0"/>
        <pt x="302" y="960" on="0"/>
        <pt x="374" y="960" on="1"/>
        <pt x="445" y="960" on="0"/>
        <pt x="540" y="863" on="0"/>
        <pt x="540" y="794" on="1"/>
        <pt x="540" y="725" on="0"/>
        <pt x="444" y="628" on="0"/>
      </contour>
      <contour>
        <pt x="235" y="-29" on="1"/>
        <pt x="166" y="-29" on="0"/>
        <pt x="69" y="67" on="0"/>
        <pt x="69" y="137" on="1"/>
        <pt x="69" y="206" on="0"/>
        <pt x="165" y="303" on="0"/>
        <pt x="235" y="303" on="1"/>
        <pt x="304" y="303" on="0"/>
        <pt x="401" y="207" on="0"/>
        <pt x="401" y="137" on="1"/>
        <pt x="401" y="68" on="0"/>
        <pt x="305" y="-29" on="0"/>
      </contour>
    </TTGlyph>
    <TTGlyph name="comma" xMin="-44" yMin="-317" xMax="343" yMax="301">
      <contour>
        <pt x="343" y="106" on="1"/>
        <pt x="343" y="-51" on="0"/>
        <pt x="145" y="-268" on="0"/>
        <pt x="-44" y="-317" on="1"/>
        <pt x="-44" y="-225" on="1"/>
        <pt x="12" y="-210" on="0"/>
        <pt x="94" y="-149" on="0"/>
        <pt x="138" y="-73" on="0"/>
        <pt x="138" y="-39" on="1"/>
        <pt x="138" y="-17" on="0"/>
        <pt x="109" y="16" on="0"/>
        <pt x="68" y="42" on="1"/>
        <pt x="-3" y="85" on="0"/>
        <pt x="-3" y="168" on="1"/>
        <pt x="-3" y="233" on="0"/>
        <pt x="87" y="301" on="0"/>
        <pt x="156" y="301" on="1"/>
        <pt x="240" y="301" on="0"/>
        <pt x="343" y="193" on="0"/>
      </contour>
    </TTGlyph>
    <TTGlyph name="commaaccentrotate" xMin="182" yMin="1120" xMax="564" yMax="1571">
      <contour>
        <pt x="322" y="1120" on="1"/>
        <pt x="262" y="1120" on="0"/>
        <pt x="182" y="1200" on="0"/>
        <pt x="182" y="1266" on="1"/>
        <pt x="182" y="1385" on="0"/>
        <pt x="380" y="1543" on="0"/>
        <pt x="564" y="1571" on="1"/>
        <pt x="551" y="1502" on="1"/>
        <pt x="465" y="1481" on="0"/>
        <pt x="378" y="1421" on="0"/>
        <pt x="378" y="1379" on="1"/>
        <pt x="378" y="1359" on="0"/>
        <pt x="405" y="1329" on="0"/>
        <pt x="436" y="1297" on="0"/>
        <pt x="463" y="1257" on="0"/>
        <pt x="463" y="1229" on="1"/>
        <pt x="463" y="1182" on="0"/>
        <pt x="387" y="1120" on="0"/>
      </contour>
    </TTGlyph>
    <TTGlyph name="copyright" xMin="87" yMin="-20" xMax="1469" yMax="1362">
      <contour>
        <pt x="87" y="670" on="1"/>
        <pt x="87" y="859" on="0"/>
        <pt x="274" y="1180" on="0"/>
        <pt x="591" y="1362" on="0"/>
        <pt x="777" y="1362" on="1"/>
        <pt x="964" y="1362" on="0"/>
        <pt x="1284" y="1178" on="0"/>
        <pt x="1469" y="859" on="0"/>
        <pt x="1469" y="670" on="1"/>
        <pt x="1469" y="485" on="0"/>
        <pt x="1288" y="168" on="0"/>
        <pt x="967" y="-20" on="0"/>
        <pt x="777" y="-20" on="1"/>
        <pt x="591" y="-20" on="0"/>
        <pt x="271" y="164" on="0"/>
        <pt x="87" y="484" on="0"/>
      </contour>
      <contour>
        <pt x="812" y="254" on="1"/>
        <pt x="613" y="254" on="0"/>
        <pt x="386" y="476" on="0"/>
        <pt x="386" y="664" on="1"/>
        <pt x="386" y="872" on="0"/>
        <pt x="607" y="1089" on="0"/>
        <pt x="814" y="1089" on="1"/>
        <pt x="932" y="1089" on="0"/>
        <pt x="1082" y="1059" on="1"/>
        <pt x="1086" y="852" on="1"/>
        <pt x="1017" y="852" on="1"/>
        <pt x="998" y="957" on="1"/>
        <pt x="957" y="982" on="0"/>
        <pt x="875" y="1008" on="0"/>
        <pt x="818" y="1008" on="1"/>
        <pt x="688" y="1008" on="0"/>
        <pt x="576" y="856" on="0"/>
        <pt x="576" y="666" on="1"/>
        <pt x="576" y="501" on="0"/>
        <pt x="683" y="334" on="0"/>
        <pt x="812" y="334" on="1"/>
        <pt x="934" y="334" on="0"/>
        <pt x="1007" y="393" on="1"/>
        <pt x="1029" y="512" on="1"/>
        <pt x="1099" y="512" on="1"/>
        <pt x="1095" y="293" on="1"/>
        <pt x="968" y="254" on="0"/>
      </contour>
      <contour>
        <pt x="777" y="1278" on="1"/>
        <pt x="616" y="1278" on="0"/>
        <pt x="338" y="1116" on="0"/>
        <pt x="177" y="834" on="0"/>
        <pt x="177" y="670" on="1"/>
        <pt x="177" y="507" on="0"/>
        <pt x="338" y="224" on="0"/>
        <pt x="615" y="63" on="0"/>
        <pt x="777" y="63" on="1"/>
        <pt x="937" y="63" on="0"/>
        <pt x="1216" y="224" on="0"/>
        <pt x="1379" y="508" on="0"/>
        <pt x="1379" y="670" on="1"/>
        <pt x="1379" y="832" on="0"/>
        <pt x="1219" y="1113" on="0"/>
        <pt x="942" y="1278" on="0"/>
      </contour>
    </TTGlyph>
    <TTGlyph name="currency" xMin="99" yMin="248" xMax="957" yMax="1108">
      <contour>
        <pt x="750" y="352" on="1"/>
        <pt x="653" y="283" on="0"/>
        <pt x="527" y="283" on="1"/>
        <pt x="407" y="283" on="0"/>
        <pt x="304" y="352" on="1"/>
        <pt x="199" y="248" on="1"/>
        <pt x="99" y="350" on="1"/>
        <pt x="201" y="453" on="1"/>
        <pt x="134" y="554" on="0"/>
        <pt x="134" y="676" on="1"/>
        <pt x="134" y="799" on="0"/>
        <pt x="201" y="899" on="1"/>
        <pt x="99" y="1004" on="1"/>
        <pt x="203" y="1108" on="1"/>
        <pt x="304" y="1001" on="1"/>
        <pt x="409" y="1071" on="0"/>
        <pt x="527" y="1071" on="1"/>
        <pt x="645" y="1071" on="0"/>
        <pt x="750" y="1001" on="1"/>
        <pt x="855" y="1106" on="1"/>
        <pt x="957" y="1006" on="1"/>
        <pt x="853" y="899" on="1"/>
        <pt x="922" y="796" on="0"/>
        <pt x="922" y="676" on="1"/>
        <pt x="922" y="557" on="0"/>
        <pt x="853" y="453" on="1"/>
        <pt x="957" y="350" on="1"/>
        <pt x="857" y="248" on="1"/>
      </contour>
      <contour>
        <pt x="527" y="932" on="1"/>
        <pt x="421" y="932" on="0"/>
        <pt x="273" y="781" on="0"/>
        <pt x="273" y="676" on="1"/>
        <pt x="273" y="571" on="0"/>
        <pt x="422" y="422" on="0"/>
        <pt x="527" y="422" on="1"/>
        <pt x="632" y="422" on="0"/>
        <pt x="783" y="570" on="0"/>
        <pt x="783" y="676" on="1"/>
        <pt x="783" y="782" on="0"/>
        <pt x="633" y="932" on="0"/>
      </contour>
    </TTGlyph>
    <TTGlyph name="cyrillic_otmark" xMin="-465" yMin="1087" xMax="465" yMax="1341">
      <contour>
        <pt x="465" y="1304" on="1"/>
        <pt x="381" y="1087" on="1"/>
        <pt x="317" y="1087" on="1"/>
        <pt x="268" y="1187" on="1"/>
        <pt x="81" y="1187" on="1"/>
        <pt x="32" y="1087" on="1"/>
        <pt x="-32" y="1087" on="1"/>
        <pt x="-81" y="1187" on="1"/>
        <pt x="-268" y="1187" on="1"/>
        <pt x="-317" y="1087" on="1"/>
        <pt x="-381" y="1087" on="1"/>
        <pt x="-465" y="1304" on="1"/>
        <pt x="-465" y="1341" on="1"/>
        <pt x="465" y="1341" on="1"/>
      </contour>
    </TTGlyph>
    <TTGlyph name="cyrillicbreve" xMin="117" yMin="1123" xMax="857" yMax="1476">
      <contour>
        <pt x="511" y="1247" on="1"/>
        <pt x="581" y="1247" on="0"/>
        <pt x="705" y="1350" on="0"/>
        <pt x="775" y="1476" on="1"/>
        <pt x="857" y="1439" on="1"/>
        <pt x="777" y="1269" on="0"/>
        <pt x="579" y="1123" on="0"/>
        <pt x="455" y="1123" on="1"/>
        <pt x="326" y="1123" on="0"/>
        <pt x="163" y="1245" on="0"/>
        <pt x="117" y="1385" on="1"/>
        <pt x="359" y="1425" on="1"/>
        <pt x="392" y="1247" on="0"/>
      </contour>
    </TTGlyph>
    <TTGlyph name="d" xMin="24" yMin="-20" xMax="1049" yMax="1421">
      <contour>
        <pt x="276" y="-20" on="1"/>
        <pt x="162" y="-20" on="0"/>
        <pt x="24" y="156" on="0"/>
        <pt x="24" y="310" on="1"/>
        <pt x="24" y="487" on="0"/>
        <pt x="153" y="789" on="0"/>
        <pt x="386" y="964" on="0"/>
        <pt x="528" y="964" on="1"/>
        <pt x="637" y="964" on="0"/>
        <pt x="702" y="936" on="1"/>
        <pt x="705" y="966" on="1"/>
        <pt x="716" y="1060" on="1"/>
        <pt x="762" y="1332" on="1"/>
        <pt x="602" y="1356" on="1"/>
        <pt x="614" y="1421" on="1"/>
        <pt x="1049" y="1421" on="1"/>
        <pt x="812" y="85" on="1"/>
        <pt x="911" y="60" on="1"/>
        <pt x="899" y="0" on="1"/>
        <pt x="567" y="0" on="1"/>
        <pt x="560" y="144" on="1"/>
        <pt x="501" y="65" on="0"/>
        <pt x="349" y="-20" on="0"/>
      </contour>
      <contour>
        <pt x="287" y="354" on="1"/>
        <pt x="287" y="246" on="0"/>
        <pt x="344" y="128" on="0"/>
        <pt x="390" y="128" on="1"/>
        <pt x="428" y="128" on="0"/>
        <pt x="535" y="208" on="0"/>
        <pt x="577" y="267" on="1"/>
        <pt x="674" y="817" on="1"/>
        <pt x="654" y="837" on="0"/>
        <pt x="571" y="865" on="0"/>
        <pt x="540" y="865" on="1"/>
        <pt x="472" y="865" on="0"/>
        <pt x="355" y="723" on="0"/>
        <pt x="287" y="481" on="0"/>
      </contour>
    </TTGlyph>
    <TTGlyph name="dagesh" xMin="-84" yMin="608" xMax="109" yMax="799">
      <contour>
        <pt x="-84" y="702" on="1"/>
        <pt x="-84" y="743" on="0"/>
        <pt x="-28" y="799" on="0"/>
        <pt x="12" y="799" on="1"/>
        <pt x="50" y="799" on="0"/>
        <pt x="109" y="744" on="0"/>
        <pt x="109" y="702" on="1"/>
        <pt x="109" y="665" on="0"/>
        <pt x="50" y="608" on="0"/>
        <pt x="12" y="608" on="1"/>
        <pt x="-28" y="608" on="0"/>
        <pt x="-84" y="666" on="0"/>
      </contour>
    </TTGlyph>
    <TTGlyph name="dagger" xMin="100" yMin="-240" xMax="1060" yMax="1421">
      <contour>
        <pt x="676" y="760" on="1"/>
        <pt x="399" y="-240" on="1"/>
        <pt x="333" y="-240" on="1"/>
        <pt x="410" y="760" on="1"/>
        <pt x="518" y="920" on="1"/>
        <pt x="100" y="854" on="1"/>
        <pt x="142" y="1090" on="1"/>
        <pt x="536" y="1026" on="1"/>
        <pt x="540" y="1421" on="1"/>
        <pt x="778" y="1421" on="1"/>
        <pt x="642" y="1026" on="1"/>
        <pt x="1060" y="1090" on="1"/>
        <pt x="1018" y="854" on="1"/>
        <pt x="624" y="920" on="1"/>
      </contour>
    </TTGlyph>
    <TTGlyph name="daggerdbl" xMin="-33" yMin="-240" xMax="1061" yMax="1421">
      <contour>
        <pt x="490" y="156" on="1"/>
        <pt x="488" y="-240" on="1"/>
        <pt x="250" y="-240" on="1"/>
        <pt x="384" y="156" on="1"/>
        <pt x="-33" y="92" on="1"/>
        <pt x="9" y="330" on="1"/>
        <pt x="403" y="262" on="1"/>
        <pt x="347" y="412" on="1"/>
        <pt x="471" y="590" on="1"/>
        <pt x="410" y="770" on="1"/>
        <pt x="519" y="920" on="1"/>
        <pt x="101" y="854" on="1"/>
        <pt x="143" y="1090" on="1"/>
        <pt x="537" y="1026" on="1"/>
        <pt x="543" y="1421" on="1"/>
        <pt x="781" y="1421" on="1"/>
        <pt x="643" y="1026" on="1"/>
        <pt x="1061" y="1090" on="1"/>
        <pt x="1019" y="854" on="1"/>
        <pt x="625" y="920" on="1"/>
        <pt x="684" y="770" on="1"/>
        <pt x="557" y="590" on="1"/>
        <pt x="621" y="412" on="1"/>
        <pt x="509" y="262" on="1"/>
        <pt x="927" y="330" on="1"/>
        <pt x="885" y="92" on="1"/>
      </contour>
    </TTGlyph>
    <TTGlyph name="dalet" xMin="113" yMin="-25" xMax="985" yMax="1204">
      <contour>
        <pt x="246" y="850" on="1"/>
        <pt x="173" y="850" on="0"/>
        <pt x="113" y="908" on="0"/>
        <pt x="113" y="987" on="1"/>
        <pt x="113" y="1042" on="0"/>
        <pt x="146" y="1141" on="0"/>
        <pt x="198" y="1204" on="0"/>
        <pt x="217" y="1204" on="1"/>
        <pt x="233" y="1204" on="0"/>
        <pt x="233" y="1188" on="1"/>
        <pt x="228" y="1173" on="1"/>
        <pt x="225" y="1155" on="1"/>
        <pt x="225" y="1133" on="0"/>
        <pt x="262" y="1133" on="1"/>
        <pt x="911" y="1133" on="1"/>
        <pt x="985" y="1133" on="0"/>
        <pt x="985" y="1069" on="1"/>
        <pt x="979" y="1016" on="1"/>
        <pt x="963" y="920" on="1"/>
        <pt x="952" y="860" on="0"/>
        <pt x="930" y="858" on="1"/>
        <pt x="875" y="849" on="0"/>
        <pt x="813" y="755" on="0"/>
        <pt x="801" y="653" on="1"/>
        <pt x="790" y="553" on="1"/>
        <pt x="768" y="305" on="0"/>
        <pt x="737" y="133" on="1"/>
        <pt x="726" y="83" on="0"/>
        <pt x="691" y="45" on="0"/>
        <pt x="550" y="-25" on="0"/>
        <pt x="535" y="-25" on="1"/>
        <pt x="520" y="-25" on="0"/>
        <pt x="520" y="-10" on="1"/>
        <pt x="520" y="-1" on="0"/>
        <pt x="525" y="6" on="1"/>
        <pt x="555" y="48" on="0"/>
        <pt x="588" y="217" on="1"/>
        <pt x="623" y="437" on="1"/>
        <pt x="645" y="585" on="0"/>
        <pt x="682" y="705" on="0"/>
        <pt x="744" y="799" on="0"/>
        <pt x="801" y="850" on="1"/>
      </contour>
    </TTGlyph>
    <TTGlyph name="daletdagesh" xMin="113" yMin="-25" xMax="985" yMax="1204">
      <component glyphName="dalet" x="0" y="0" flags="0x204"/>
      <component glyphName="dagesh" x="377" y="-167" flags="0x4"/>
    </TTGlyph>
    <TTGlyph name="daletwide" xMin="113" yMin="-25" xMax="985" yMax="1204">
      <component glyphName="dalet" x="0" y="0" flags="0x204"/>
    </TTGlyph>
    <TTGlyph name="dcaron" xMin="24" yMin="-20" xMax="1539" yMax="1421">
      <component glyphName="d" x="0" y="0" flags="0x4"/>
      <component glyphName="caroncommaaccent" x="1001" y="59" flags="0x4"/>
    </TTGlyph>
    <TTGlyph name="degree" xMin="184" yMin="741" xMax="805" yMax="1362">
      <contour>
        <pt x="184" y="1051" on="1"/>
        <pt x="184" y="1134" on="0"/>
        <pt x="266" y="1278" on="0"/>
        <pt x="411" y="1362" on="0"/>
        <pt x="494" y="1362" on="1"/>
        <pt x="577" y="1362" on="0"/>
        <pt x="721" y="1279" on="0"/>
        <pt x="805" y="1135" on="0"/>
        <pt x="805" y="1051" on="1"/>
        <pt x="805" y="967" on="0"/>
        <pt x="720" y="822" on="0"/>
        <pt x="576" y="741" on="0"/>
        <pt x="494" y="741" on="1"/>
        <pt x="364" y="741" on="0"/>
        <pt x="184" y="921" on="0"/>
      </contour>
      <contour>
        <pt x="493" y="1250" on="1"/>
        <pt x="413" y="1250" on="0"/>
        <pt x="303" y="1135" on="0"/>
        <pt x="303" y="1049" on="1"/>
        <pt x="303" y="966" on="0"/>
        <pt x="414" y="850" on="0"/>
        <pt x="493" y="850" on="1"/>
        <pt x="574" y="850" on="0"/>
        <pt x="685" y="966" on="0"/>
        <pt x="685" y="1049" on="1"/>
        <pt x="685" y="1135" on="0"/>
        <pt x="575" y="1250" on="0"/>
      </contour>
    </TTGlyph>
    <TTGlyph name="delta" xMin="32" yMin="-20" xMax="989" yMax="1431">
      <contour>
        <pt x="406" y="-20" on="1"/>
        <pt x="231" y="-20" on="0"/>
        <pt x="32" y="180" on="0"/>
        <pt x="32" y="353" on="1"/>
        <pt x="32" y="536" on="0"/>
        <pt x="262" y="803" on="0"/>
        <pt x="490" y="870" on="1"/>
        <pt x="344" y="1026" on="0"/>
        <pt x="344" y="1169" on="1"/>
        <pt x="344" y="1293" on="0"/>
        <pt x="549" y="1431" on="0"/>
        <pt x="739" y="1431" on="1"/>
        <pt x="851" y="1431" on="0"/>
        <pt x="989" y="1393" on="1"/>
        <pt x="951" y="1170" on="1"/>
        <pt x="884" y="1170" on="1"/>
        <pt x="861" y="1284" on="1"/>
        <pt x="841" y="1307" on="0"/>
        <pt x="768" y="1331" on="0"/>
        <pt x="727" y="1331" on="1"/>
        <pt x="667" y="1331" on="0"/>
        <pt x="592" y="1259" on="0"/>
        <pt x="592" y="1185" on="1"/>
        <pt x="592" y="1132" on="0"/>
        <pt x="663" y="1014" on="0"/>
        <pt x="777" y="901" on="1"/>
        <pt x="867" y="806" on="0"/>
        <pt x="954" y="609" on="0"/>
        <pt x="954" y="494" on="1"/>
        <pt x="954" y="354" on="0"/>
        <pt x="813" y="112" on="0"/>
        <pt x="566" y="-20" on="0"/>
      </contour>
      <contour>
        <pt x="429" y="79" on="1"/>
        <pt x="504" y="79" on="0"/>
        <pt x="617" y="181" on="0"/>
        <pt x="683" y="387" on="0"/>
        <pt x="683" y="503" on="1"/>
        <pt x="683" y="665" on="0"/>
        <pt x="558" y="786" on="1"/>
        <pt x="433" y="735" on="0"/>
        <pt x="297" y="470" on="0"/>
        <pt x="297" y="308" on="1"/>
        <pt x="297" y="196" on="0"/>
        <pt x="365" y="79" on="0"/>
      </contour>
    </TTGlyph>
    <TTGlyph name="diamond" xMin="66" yMin="-25" xMax="978" yMax="1223">
      <contour>
        <pt x="519" y="1223" on="1"/>
        <pt x="591" y="1098" on="0"/>
        <pt x="856" y="737" on="0"/>
        <pt x="978" y="600" on="1"/>
        <pt x="910" y="530" on="0"/>
        <pt x="604" y="123" on="0"/>
        <pt x="521" y="-25" on="1"/>
        <pt x="484" y="46" on="0"/>
        <pt x="299" y="307" on="0"/>
        <pt x="151" y="498" on="0"/>
        <pt x="66" y="600" on="1"/>
        <pt x="182" y="737" on="0"/>
        <pt x="441" y="1082" on="0"/>
      </contour>
    </TTGlyph>
    <TTGlyph name="dieresis" xMin="163" yMin="1130" xMax="759" yMax="1370">
      <contour>
        <pt x="640" y="1130" on="1"/>
        <pt x="592" y="1130" on="0"/>
        <pt x="519" y="1201" on="0"/>
        <pt x="519" y="1251" on="1"/>
        <pt x="519" y="1301" on="0"/>
        <pt x="592" y="1370" on="0"/>
        <pt x="640" y="1370" on="1"/>
        <pt x="689" y="1370" on="0"/>
        <pt x="759" y="1302" on="0"/>
        <pt x="759" y="1251" on="1"/>
        <pt x="759" y="1201" on="0"/>
        <pt x="689" y="1130" on="0"/>
      </contour>
      <contour>
        <pt x="284" y="1130" on="1"/>
        <pt x="236" y="1130" on="0"/>
        <pt x="163" y="1204" on="0"/>
        <pt x="163" y="1251" on="1"/>
        <pt x="163" y="1299" on="0"/>
        <pt x="235" y="1370" on="0"/>
        <pt x="284" y="1370" on="1"/>
        <pt x="333" y="1370" on="0"/>
        <pt x="403" y="1299" on="0"/>
        <pt x="403" y="1251" on="1"/>
        <pt x="403" y="1201" on="0"/>
        <pt x="333" y="1130" on="0"/>
      </contour>
    </TTGlyph>
    <TTGlyph name="dieresistonos" xMin="-8" yMin="1108" xMax="690" yMax="1512">
      <contour>
        <pt x="583" y="1122" on="1"/>
        <pt x="538" y="1122" on="0"/>
        <pt x="474" y="1186" on="0"/>
        <pt x="474" y="1231" on="1"/>
        <pt x="474" y="1276" on="0"/>
        <pt x="539" y="1338" on="0"/>
        <pt x="583" y="1338" on="1"/>
        <pt x="627" y="1338" on="0"/>
        <pt x="690" y="1277" on="0"/>
        <pt x="690" y="1231" on="1"/>
        <pt x="690" y="1185" on="0"/>
        <pt x="628" y="1122" on="0"/>
      </contour>
      <contour>
        <pt x="101" y="1122" on="1"/>
        <pt x="56" y="1122" on="0"/>
        <pt x="-8" y="1186" on="0"/>
        <pt x="-8" y="1231" on="1"/>
        <pt x="-8" y="1276" on="0"/>
        <pt x="57" y="1338" on="0"/>
        <pt x="101" y="1338" on="1"/>
        <pt x="145" y="1338" on="0"/>
        <pt x="208" y="1274" on="0"/>
        <pt x="208" y="1231" on="1"/>
        <pt x="208" y="1185" on="0"/>
        <pt x="146" y="1122" on="0"/>
      </contour>
      <contour>
        <pt x="227" y="1108" on="1"/>
        <pt x="227" y="1141" on="1"/>
        <pt x="340" y="1512" on="1"/>
        <pt x="582" y="1512" on="1"/>
        <pt x="582" y="1475" on="1"/>
        <pt x="313" y="1108" on="1"/>
      </contour>
    </TTGlyph>
    <TTGlyph name="divide" xMin="100" yMin="183" xMax="1052" yMax="1177">
      <contour>
        <pt x="1052" y="751" on="1"/>
        <pt x="1052" y="608" on="1"/>
        <pt x="100" y="608" on="1"/>
        <pt x="100" y="751" on="1"/>
      </contour>
      <contour>
        <pt x="575" y="183" on="1"/>
        <pt x="519" y="183" on="0"/>
        <pt x="441" y="261" on="0"/>
        <pt x="441" y="317" on="1"/>
        <pt x="441" y="373" on="0"/>
        <pt x="519" y="451" on="0"/>
        <pt x="575" y="451" on="1"/>
        <pt x="631" y="451" on="0"/>
        <pt x="709" y="373" on="0"/>
        <pt x="709" y="317" on="1"/>
        <pt x="709" y="261" on="0"/>
        <pt x="631" y="183" on="0"/>
      </contour>
      <contour>
        <pt x="575" y="909" on="1"/>
        <pt x="519" y="909" on="0"/>
        <pt x="441" y="987" on="0"/>
        <pt x="441" y="1043" on="1"/>
        <pt x="441" y="1099" on="0"/>
        <pt x="519" y="1177" on="0"/>
        <pt x="575" y="1177" on="1"/>
        <pt x="631" y="1177" on="0"/>
        <pt x="709" y="1099" on="0"/>
        <pt x="709" y="1043" on="1"/>
        <pt x="709" y="987" on="0"/>
        <pt x="631" y="909" on="0"/>
      </contour>
    </TTGlyph>
    <TTGlyph name="dkshade" xMin="0" yMin="-621" xMax="1493" yMax="1699">
      <contour>
        <pt x="1493" y="-621" on="1"/>
        <pt x="0" y="-621" on="1"/>
        <pt x="0" y="-331" on="1"/>
        <pt x="106" y="-331" on="1"/>
        <pt x="106" y="-234" on="1"/>
        <pt x="0" y="-234" on="1"/>
        <pt x="0" y="56" on="1"/>
        <pt x="106" y="56" on="1"/>
        <pt x="106" y="153" on="1"/>
        <pt x="0" y="153" on="1"/>
        <pt x="0" y="444" on="1"/>
        <pt x="106" y="444" on="1"/>
        <pt x="106" y="540" on="1"/>
        <pt x="0" y="540" on="1"/>
        <pt x="0" y="829" on="1"/>
        <pt x="106" y="829" on="1"/>
        <pt x="106" y="927" on="1"/>
        <pt x="0" y="927" on="1"/>
        <pt x="0" y="1216" on="1"/>
        <pt x="106" y="1216" on="1"/>
        <pt x="106" y="1314" on="1"/>
        <pt x="0" y="1314" on="1"/>
        <pt x="0" y="1603" on="1"/>
        <pt x="106" y="1603" on="1"/>
        <pt x="106" y="1699" on="1"/>
        <pt x="213" y="1699" on="1"/>
        <pt x="213" y="1603" on="1"/>
        <pt x="319" y="1603" on="1"/>
        <pt x="319" y="1699" on="1"/>
        <pt x="426" y="1699" on="1"/>
        <pt x="426" y="1603" on="1"/>
        <pt x="532" y="1603" on="1"/>
        <pt x="532" y="1699" on="1"/>
        <pt x="639" y="1699" on="1"/>
        <pt x="639" y="1603" on="1"/>
        <pt x="746" y="1603" on="1"/>
        <pt x="746" y="1699" on="1"/>
        <pt x="853" y="1699" on="1"/>
        <pt x="853" y="1603" on="1"/>
        <pt x="960" y="1603" on="1"/>
        <pt x="960" y="1699" on="1"/>
        <pt x="1067" y="1699" on="1"/>
        <pt x="1067" y="1603" on="1"/>
        <pt x="1173" y="1603" on="1"/>
        <pt x="1173" y="1699" on="1"/>
        <pt x="1280" y="1699" on="1"/>
        <pt x="1280" y="1603" on="1"/>
        <pt x="1386" y="1603" on="1"/>
        <pt x="1386" y="1699" on="1"/>
        <pt x="1493" y="1699" on="1"/>
        <pt x="1493" y="1506" on="1"/>
        <pt x="1386" y="1506" on="1"/>
        <pt x="1386" y="1408" on="1"/>
        <pt x="1493" y="1408" on="1"/>
        <pt x="1493" y="1119" on="1"/>
        <pt x="1386" y="1119" on="1"/>
        <pt x="1386" y="1023" on="1"/>
        <pt x="1493" y="1023" on="1"/>
        <pt x="1493" y="732" on="1"/>
        <pt x="1386" y="732" on="1"/>
        <pt x="1386" y="636" on="1"/>
        <pt x="1493" y="636" on="1"/>
        <pt x="1493" y="345" on="1"/>
        <pt x="1386" y="345" on="1"/>
        <pt x="1386" y="249" on="1"/>
        <pt x="1493" y="249" on="1"/>
        <pt x="1493" y="-42" on="1"/>
        <pt x="1386" y="-42" on="1"/>
        <pt x="1386" y="-136" on="1"/>
        <pt x="1493" y="-136" on="1"/>
        <pt x="1493" y="-427" on="1"/>
        <pt x="1386" y="-427" on="1"/>
        <pt x="1386" y="-523" on="1"/>
        <pt x="1493" y="-523" on="1"/>
      </contour>
      <contour>
        <pt x="106" y="1119" on="1"/>
        <pt x="106" y="1023" on="1"/>
        <pt x="213" y="1023" on="1"/>
        <pt x="213" y="1119" on="1"/>
      </contour>
      <contour>
        <pt x="319" y="1119" on="1"/>
        <pt x="319" y="1023" on="1"/>
        <pt x="426" y="1023" on="1"/>
        <pt x="426" y="1119" on="1"/>
      </contour>
      <contour>
        <pt x="532" y="1119" on="1"/>
        <pt x="532" y="1023" on="1"/>
        <pt x="639" y="1023" on="1"/>
        <pt x="639" y="1119" on="1"/>
      </contour>
      <contour>
        <pt x="746" y="1119" on="1"/>
        <pt x="746" y="1023" on="1"/>
        <pt x="853" y="1023" on="1"/>
        <pt x="853" y="1119" on="1"/>
      </contour>
      <contour>
        <pt x="960" y="927" on="1"/>
        <pt x="853" y="927" on="1"/>
        <pt x="853" y="829" on="1"/>
        <pt x="960" y="829" on="1"/>
      </contour>
      <contour>
        <pt x="746" y="927" on="1"/>
        <pt x="639" y="927" on="1"/>
        <pt x="639" y="829" on="1"/>
        <pt x="746" y="829" on="1"/>
      </contour>
      <contour>
        <pt x="532" y="927" on="1"/>
        <pt x="426" y="927" on="1"/>
        <pt x="426" y="829" on="1"/>
        <pt x="532" y="829" on="1"/>
      </contour>
      <contour>
        <pt x="319" y="927" on="1"/>
        <pt x="213" y="927" on="1"/>
        <pt x="213" y="829" on="1"/>
        <pt x="319" y="829" on="1"/>
      </contour>
      <contour>
        <pt x="106" y="732" on="1"/>
        <pt x="106" y="636" on="1"/>
        <pt x="213" y="636" on="1"/>
        <pt x="213" y="732" on="1"/>
      </contour>
      <contour>
        <pt x="319" y="732" on="1"/>
        <pt x="319" y="636" on="1"/>
        <pt x="426" y="636" on="1"/>
        <pt x="426" y="732" on="1"/>
      </contour>
      <contour>
        <pt x="532" y="732" on="1"/>
        <pt x="532" y="636" on="1"/>
        <pt x="639" y="636" on="1"/>
        <pt x="639" y="732" on="1"/>
      </contour>
      <contour>
        <pt x="746" y="732" on="1"/>
        <pt x="746" y="636" on="1"/>
        <pt x="853" y="636" on="1"/>
        <pt x="853" y="732" on="1"/>
      </contour>
      <contour>
        <pt x="319" y="540" on="1"/>
        <pt x="213" y="540" on="1"/>
        <pt x="213" y="444" on="1"/>
        <pt x="319" y="444" on="1"/>
      </contour>
      <contour>
        <pt x="426" y="540" on="1"/>
        <pt x="426" y="444" on="1"/>
        <pt x="532" y="444" on="1"/>
        <pt x="532" y="540" on="1"/>
      </contour>
      <contour>
        <pt x="639" y="540" on="1"/>
        <pt x="639" y="444" on="1"/>
        <pt x="746" y="444" on="1"/>
        <pt x="746" y="540" on="1"/>
      </contour>
      <contour>
        <pt x="853" y="540" on="1"/>
        <pt x="853" y="444" on="1"/>
        <pt x="960" y="444" on="1"/>
        <pt x="960" y="540" on="1"/>
      </contour>
      <contour>
        <pt x="106" y="345" on="1"/>
        <pt x="106" y="249" on="1"/>
        <pt x="213" y="249" on="1"/>
        <pt x="213" y="345" on="1"/>
      </contour>
      <contour>
        <pt x="532" y="345" on="1"/>
        <pt x="532" y="249" on="1"/>
        <pt x="639" y="249" on="1"/>
        <pt x="639" y="345" on="1"/>
      </contour>
      <contour>
        <pt x="426" y="249" on="1"/>
        <pt x="426" y="345" on="1"/>
        <pt x="319" y="345" on="1"/>
        <pt x="319" y="249" on="1"/>
      </contour>
      <contour>
        <pt x="746" y="345" on="1"/>
        <pt x="746" y="249" on="1"/>
        <pt x="853" y="249" on="1"/>
        <pt x="853" y="345" on="1"/>
      </contour>
      <contour>
        <pt x="960" y="56" on="1"/>
        <pt x="960" y="153" on="1"/>
        <pt x="853" y="153" on="1"/>
        <pt x="853" y="56" on="1"/>
      </contour>
      <contour>
        <pt x="746" y="56" on="1"/>
        <pt x="746" y="153" on="1"/>
        <pt x="639" y="153" on="1"/>
        <pt x="639" y="56" on="1"/>
      </contour>
      <contour>
        <pt x="532" y="56" on="1"/>
        <pt x="532" y="153" on="1"/>
        <pt x="426" y="153" on="1"/>
        <pt x="426" y="56" on="1"/>
      </contour>
      <contour>
        <pt x="319" y="56" on="1"/>
        <pt x="319" y="153" on="1"/>
        <pt x="213" y="153" on="1"/>
        <pt x="213" y="56" on="1"/>
      </contour>
      <contour>
        <pt x="106" y="-42" on="1"/>
        <pt x="106" y="-136" on="1"/>
        <pt x="213" y="-136" on="1"/>
        <pt x="213" y="-42" on="1"/>
      </contour>
      <contour>
        <pt x="319" y="-42" on="1"/>
        <pt x="319" y="-136" on="1"/>
        <pt x="426" y="-136" on="1"/>
        <pt x="426" y="-42" on="1"/>
      </contour>
      <contour>
        <pt x="532" y="-42" on="1"/>
        <pt x="532" y="-136" on="1"/>
        <pt x="639" y="-136" on="1"/>
        <pt x="639" y="-42" on="1"/>
      </contour>
      <contour>
        <pt x="746" y="-42" on="1"/>
        <pt x="746" y="-136" on="1"/>
        <pt x="853" y="-136" on="1"/>
        <pt x="853" y="-42" on="1"/>
      </contour>
      <contour>
        <pt x="960" y="-331" on="1"/>
        <pt x="960" y="-234" on="1"/>
        <pt x="853" y="-234" on="1"/>
        <pt x="853" y="-331" on="1"/>
      </contour>
      <contour>
        <pt x="746" y="-331" on="1"/>
        <pt x="746" y="-234" on="1"/>
        <pt x="639" y="-234" on="1"/>
        <pt x="639" y="-331" on="1"/>
      </contour>
      <contour>
        <pt x="532" y="-331" on="1"/>
        <pt x="532" y="-234" on="1"/>
        <pt x="426" y="-234" on="1"/>
        <pt x="426" y="-331" on="1"/>
      </contour>
      <contour>
        <pt x="319" y="-331" on="1"/>
        <pt x="319" y="-234" on="1"/>
        <pt x="213" y="-234" on="1"/>
        <pt x="213" y="-331" on="1"/>
      </contour>
      <contour>
        <pt x="106" y="-427" on="1"/>
        <pt x="106" y="-523" on="1"/>
        <pt x="213" y="-523" on="1"/>
        <pt x="213" y="-427" on="1"/>
      </contour>
      <contour>
        <pt x="319" y="-427" on="1"/>
        <pt x="319" y="-523" on="1"/>
        <pt x="426" y="-523" on="1"/>
        <pt x="426" y="-427" on="1"/>
      </contour>
      <contour>
        <pt x="532" y="-427" on="1"/>
        <pt x="532" y="-523" on="1"/>
        <pt x="639" y="-523" on="1"/>
        <pt x="639" y="-427" on="1"/>
      </contour>
      <contour>
        <pt x="746" y="-427" on="1"/>
        <pt x="746" y="-523" on="1"/>
        <pt x="853" y="-523" on="1"/>
        <pt x="853" y="-427" on="1"/>
      </contour>
      <contour>
        <pt x="960" y="1314" on="1"/>
        <pt x="853" y="1314" on="1"/>
        <pt x="853" y="1216" on="1"/>
        <pt x="960" y="1216" on="1"/>
      </contour>
      <contour>
        <pt x="746" y="1314" on="1"/>
        <pt x="639" y="1314" on="1"/>
        <pt x="639" y="1216" on="1"/>
        <pt x="746" y="1216" on="1"/>
      </contour>
      <contour>
        <pt x="532" y="1314" on="1"/>
        <pt x="426" y="1314" on="1"/>
        <pt x="426" y="1216" on="1"/>
        <pt x="532" y="1216" on="1"/>
      </contour>
      <contour>
        <pt x="319" y="1314" on="1"/>
        <pt x="213" y="1314" on="1"/>
        <pt x="213" y="1216" on="1"/>
        <pt x="319" y="1216" on="1"/>
      </contour>
      <contour>
        <pt x="853" y="1506" on="1"/>
        <pt x="746" y="1506" on="1"/>
        <pt x="746" y="1408" on="1"/>
        <pt x="853" y="1408" on="1"/>
      </contour>
      <contour>
        <pt x="639" y="1506" on="1"/>
        <pt x="532" y="1506" on="1"/>
        <pt x="532" y="1408" on="1"/>
        <pt x="639" y="1408" on="1"/>
      </contour>
      <contour>
        <pt x="426" y="1506" on="1"/>
        <pt x="319" y="1506" on="1"/>
        <pt x="319" y="1408" on="1"/>
        <pt x="426" y="1408" on="1"/>
      </contour>
      <contour>
        <pt x="213" y="1506" on="1"/>
        <pt x="106" y="1506" on="1"/>
        <pt x="106" y="1408" on="1"/>
        <pt x="213" y="1408" on="1"/>
      </contour>
      <contour>
        <pt x="960" y="1119" on="1"/>
        <pt x="960" y="1023" on="1"/>
        <pt x="1067" y="1023" on="1"/>
        <pt x="1067" y="1119" on="1"/>
      </contour>
      <contour>
        <pt x="1173" y="1119" on="1"/>
        <pt x="1173" y="1023" on="1"/>
        <pt x="1280" y="1023" on="1"/>
        <pt x="1280" y="1119" on="1"/>
      </contour>
      <contour>
        <pt x="1386" y="927" on="1"/>
        <pt x="1280" y="927" on="1"/>
        <pt x="1280" y="829" on="1"/>
        <pt x="1386" y="829" on="1"/>
      </contour>
      <contour>
        <pt x="1173" y="927" on="1"/>
        <pt x="1067" y="927" on="1"/>
        <pt x="1067" y="829" on="1"/>
        <pt x="1173" y="829" on="1"/>
      </contour>
      <contour>
        <pt x="960" y="732" on="1"/>
        <pt x="960" y="636" on="1"/>
        <pt x="1067" y="636" on="1"/>
        <pt x="1067" y="732" on="1"/>
      </contour>
      <contour>
        <pt x="1173" y="732" on="1"/>
        <pt x="1173" y="636" on="1"/>
        <pt x="1280" y="636" on="1"/>
        <pt x="1280" y="732" on="1"/>
      </contour>
      <contour>
        <pt x="1173" y="540" on="1"/>
        <pt x="1067" y="540" on="1"/>
        <pt x="1067" y="444" on="1"/>
        <pt x="1173" y="444" on="1"/>
      </contour>
      <contour>
        <pt x="1280" y="540" on="1"/>
        <pt x="1280" y="444" on="1"/>
        <pt x="1386" y="444" on="1"/>
        <pt x="1386" y="540" on="1"/>
      </contour>
      <contour>
        <pt x="960" y="345" on="1"/>
        <pt x="960" y="249" on="1"/>
        <pt x="1067" y="249" on="1"/>
        <pt x="1067" y="345" on="1"/>
      </contour>
      <contour>
        <pt x="1280" y="249" on="1"/>
        <pt x="1280" y="345" on="1"/>
        <pt x="1173" y="345" on="1"/>
        <pt x="1173" y="249" on="1"/>
      </contour>
      <contour>
        <pt x="1386" y="56" on="1"/>
        <pt x="1386" y="153" on="1"/>
        <pt x="1280" y="153" on="1"/>
        <pt x="1280" y="56" on="1"/>
      </contour>
      <contour>
        <pt x="1173" y="56" on="1"/>
        <pt x="1173" y="153" on="1"/>
        <pt x="1067" y="153" on="1"/>
        <pt x="1067" y="56" on="1"/>
      </contour>
      <contour>
        <pt x="960" y="-42" on="1"/>
        <pt x="960" y="-136" on="1"/>
        <pt x="1067" y="-136" on="1"/>
        <pt x="1067" y="-42" on="1"/>
      </contour>
      <contour>
        <pt x="1173" y="-42" on="1"/>
        <pt x="1173" y="-136" on="1"/>
        <pt x="1280" y="-136" on="1"/>
        <pt x="1280" y="-42" on="1"/>
      </contour>
      <contour>
        <pt x="1386" y="-331" on="1"/>
        <pt x="1386" y="-234" on="1"/>
        <pt x="1280" y="-234" on="1"/>
        <pt x="1280" y="-331" on="1"/>
      </contour>
      <contour>
        <pt x="1173" y="-331" on="1"/>
        <pt x="1173" y="-234" on="1"/>
        <pt x="1067" y="-234" on="1"/>
        <pt x="1067" y="-331" on="1"/>
      </contour>
      <contour>
        <pt x="960" y="-427" on="1"/>
        <pt x="960" y="-523" on="1"/>
        <pt x="1067" y="-523" on="1"/>
        <pt x="1067" y="-427" on="1"/>
      </contour>
      <contour>
        <pt x="1173" y="-427" on="1"/>
        <pt x="1173" y="-523" on="1"/>
        <pt x="1280" y="-523" on="1"/>
        <pt x="1280" y="-427" on="1"/>
      </contour>
      <contour>
        <pt x="1386" y="1314" on="1"/>
        <pt x="1280" y="1314" on="1"/>
        <pt x="1280" y="1216" on="1"/>
        <pt x="1386" y="1216" on="1"/>
      </contour>
      <contour>
        <pt x="1173" y="1314" on="1"/>
        <pt x="1067" y="1314" on="1"/>
        <pt x="1067" y="1216" on="1"/>
        <pt x="1173" y="1216" on="1"/>
      </contour>
      <contour>
        <pt x="1280" y="1506" on="1"/>
        <pt x="1173" y="1506" on="1"/>
        <pt x="1173" y="1408" on="1"/>
        <pt x="1280" y="1408" on="1"/>
      </contour>
      <contour>
        <pt x="1067" y="1506" on="1"/>
        <pt x="960" y="1506" on="1"/>
        <pt x="960" y="1408" on="1"/>
        <pt x="1067" y="1408" on="1"/>
      </contour>
    </TTGlyph>
    <TTGlyph name="dnblock" xMin="0" yMin="-621" xMax="1451" yMax="621">
      <contour>
        <pt x="1451" y="-621" on="1"/>
        <pt x="0" y="-621" on="1"/>
        <pt x="0" y="621" on="1"/>
        <pt x="1451" y="621" on="1"/>
      </contour>
    </TTGlyph>
    <TTGlyph name="dollar" xMin="-24" yMin="-156" xMax="982" yMax="1483">
      <contour>
        <pt x="713" y="1354" on="1"/>
        <pt x="857" y="1346" on="0"/>
        <pt x="982" y="1313" on="1"/>
        <pt x="926" y="994" on="1"/>
        <pt x="837" y="994" on="1"/>
        <pt x="830" y="1190" on="1"/>
        <pt x="768" y="1236" on="0"/>
        <pt x="693" y="1247" on="1"/>
        <pt x="611" y="810" on="1"/>
        <pt x="756" y="728" on="0"/>
        <pt x="865" y="628" on="0"/>
        <pt x="929" y="504" on="0"/>
        <pt x="929" y="423" on="1"/>
        <pt x="929" y="19" on="0"/>
        <pt x="455" y="-16" on="1"/>
        <pt x="429" y="-156" on="1"/>
        <pt x="327" y="-156" on="1"/>
        <pt x="352" y="-20" on="1"/>
        <pt x="140" y="-17" on="0"/>
        <pt x="-24" y="51" on="1"/>
        <pt x="40" y="411" on="1"/>
        <pt x="128" y="411" on="1"/>
        <pt x="129" y="196" on="1"/>
        <pt x="161" y="149" on="0"/>
        <pt x="280" y="82" on="0"/>
        <pt x="371" y="81" on="1"/>
        <pt x="468" y="596" on="1"/>
        <pt x="332" y="667" on="0"/>
        <pt x="222" y="765" on="0"/>
        <pt x="159" y="892" on="0"/>
        <pt x="159" y="979" on="1"/>
        <pt x="159" y="1339" on="0"/>
        <pt x="611" y="1355" on="1"/>
        <pt x="635" y="1483" on="1"/>
        <pt x="738" y="1483" on="1"/>
      </contour>
      <contour>
        <pt x="685" y="346" on="1"/>
        <pt x="685" y="409" on="0"/>
        <pt x="630" y="507" on="0"/>
        <pt x="563" y="553" on="1"/>
        <pt x="476" y="91" on="1"/>
        <pt x="573" y="113" on="0"/>
        <pt x="685" y="249" on="0"/>
      </contour>
      <contour>
        <pt x="399" y="1047" on="1"/>
        <pt x="399" y="982" on="0"/>
        <pt x="465" y="892" on="0"/>
        <pt x="517" y="856" on="1"/>
        <pt x="592" y="1250" on="1"/>
        <pt x="499" y="1241" on="0"/>
        <pt x="399" y="1135" on="0"/>
      </contour>
    </TTGlyph>
    <TTGlyph name="dotaccent" xMin="307" yMin="1137" xMax="614" yMax="1444">
      <contour>
        <pt x="307" y="1291" on="1"/>
        <pt x="307" y="1356" on="0"/>
        <pt x="398" y="1444" on="0"/>
        <pt x="461" y="1444" on="1"/>
        <pt x="525" y="1444" on="0"/>
        <pt x="614" y="1355" on="0"/>
        <pt x="614" y="1291" on="1"/>
        <pt x="614" y="1228" on="0"/>
        <pt x="526" y="1137" on="0"/>
        <pt x="461" y="1137" on="1"/>
        <pt x="397" y="1137" on="0"/>
        <pt x="307" y="1226" on="0"/>
      </contour>
    </TTGlyph>
    <TTGlyph name="dotbelow.alt1" xMin="-241" yMin="-311" xMax="-61" yMax="-139">
      <contour>
        <pt x="-241" y="-311" on="1"/>
        <pt x="-241" y="-139" on="1"/>
        <pt x="-61" y="-139" on="1"/>
        <pt x="-61" y="-311" on="1"/>
      </contour>
    </TTGlyph>
    <TTGlyph name="dotbelow.alt10" xMin="-775" yMin="-311" xMax="-595" yMax="-139">
      <component glyphName="dotbelow.alt1" x="-534" y="0" flags="0x4"/>
    </TTGlyph>
    <TTGlyph name="dotbelow.alt11" xMin="-646" yMin="-311" xMax="-466" yMax="-139">
      <component glyphName="dotbelow.alt1" x="-405" y="0" flags="0x4"/>
    </TTGlyph>
    <TTGlyph name="dotbelow.alt12" xMin="-666" yMin="-311" xMax="-486" yMax="-139">
      <component glyphName="dotbelow.alt1" x="-425" y="0" flags="0x4"/>
    </TTGlyph>
    <TTGlyph name="dotbelow.alt13" xMin="-866" yMin="-311" xMax="-686" yMax="-139">
      <component glyphName="dotbelow.alt1" x="-625" y="0" flags="0x4"/>
    </TTGlyph>
    <TTGlyph name="dotbelow.alt14" xMin="-733" yMin="-311" xMax="-553" yMax="-139">
      <component glyphName="dotbelow.alt1" x="-492" y="0" flags="0x4"/>
    </TTGlyph>
    <TTGlyph name="dotbelow.alt15" xMin="-966" yMin="-311" xMax="-786" yMax="-139">
      <component glyphName="dotbelow.alt1" x="-725" y="0" flags="0x4"/>
    </TTGlyph>
    <TTGlyph name="dotbelow.alt2" xMin="-769" yMin="-311" xMax="-589" yMax="-139">
      <component glyphName="dotbelow.alt1" x="-528" y="0" flags="0x4"/>
    </TTGlyph>
    <TTGlyph name="dotbelow.alt3" xMin="-885" yMin="-311" xMax="-705" yMax="-139">
      <component glyphName="dotbelow.alt1" x="-644" y="0" flags="0x4"/>
    </TTGlyph>
    <TTGlyph name="dotbelow.alt4" xMin="-1045" yMin="-311" xMax="-865" yMax="-139">
      <component glyphName="dotbelow.alt1" x="-804" y="0" flags="0x4"/>
    </TTGlyph>
    <TTGlyph name="dotbelow.alt5" xMin="-817" yMin="-311" xMax="-637" yMax="-139">
      <component glyphName="dotbelow.alt1" x="-576" y="0" flags="0x4"/>
    </TTGlyph>
    <TTGlyph name="dotbelow.alt6" xMin="-1114" yMin="-311" xMax="-934" yMax="-139">
      <component glyphName="dotbelow.alt1" x="-873" y="0" flags="0x4"/>
    </TTGlyph>
    <TTGlyph name="dotbelow.alt7" xMin="-659" yMin="-311" xMax="-479" yMax="-139">
      <component glyphName="dotbelow.alt1" x="-418" y="0" flags="0x4"/>
    </TTGlyph>
    <TTGlyph name="dotbelow.alt8" xMin="-380" yMin="-311" xMax="-200" yMax="-139">
      <component glyphName="dotbelow.alt1" x="-139" y="0" flags="0x4"/>
    </TTGlyph>
    <TTGlyph name="dotbelow.alt9" xMin="-310" yMin="-311" xMax="-130" yMax="-139">
      <component glyphName="dotbelow.alt1" x="-69" y="0" flags="0x4"/>
    </TTGlyph>
    <TTGlyph name="dotbelowcomb" xMin="-234" yMin="-401" xMax="73" yMax="-94">
      <contour>
        <pt x="-234" y="-247" on="1"/>
        <pt x="-234" y="-182" on="0"/>
        <pt x="-143" y="-94" on="0"/>
        <pt x="-80" y="-94" on="1"/>
        <pt x="-16" y="-94" on="0"/>
        <pt x="73" y="-183" on="0"/>
        <pt x="73" y="-247" on="1"/>
        <pt x="73" y="-310" on="0"/>
        <pt x="-15" y="-401" on="0"/>
        <pt x="-80" y="-401" on="1"/>
        <pt x="-144" y="-401" on="0"/>
        <pt x="-234" y="-312" on="0"/>
      </contour>
    </TTGlyph>
    <TTGlyph name="dotlessi" xMin="47" yMin="0" xMax="482" yMax="940">
      <contour>
        <pt x="332" y="90" on="1"/>
        <pt x="451" y="66" on="1"/>
        <pt x="440" y="0" on="1"/>
        <pt x="47" y="0" on="1"/>
        <pt x="197" y="850" on="1"/>
        <pt x="106" y="874" on="1"/>
        <pt x="117" y="940" on="1"/>
        <pt x="482" y="940" on="1"/>
      </contour>
    </TTGlyph>
    <TTGlyph name="dotlessi.alt1" xMin="47" yMin="0" xMax="482" yMax="940">
      <contour>
        <pt x="332" y="90" on="1"/>
        <pt x="451" y="66" on="1"/>
        <pt x="440" y="0" on="1"/>
        <pt x="47" y="0" on="1"/>
        <pt x="197" y="850" on="1"/>
        <pt x="106" y="874" on="1"/>
        <pt x="117" y="940" on="1"/>
        <pt x="482" y="940" on="1"/>
      </contour>
    </TTGlyph>
    <TTGlyph name="dottediacute" xMin="52" yMin="0" xMax="800" yMax="1832">
      <component glyphName="i" x="0" y="0" flags="0x204"/>
      <component glyphName="acute" x="60" y="409" flags="0x4"/>
    </TTGlyph>
</ttFont>
